<svg width="28" height="24" viewBox="0 0 28 24" fill="none" xmlns="http://www.w3.org/2000/svg">
<g clip-path="url(#clip0_9_45)">
<g clip-path="url(#clip1_9_45)">
<g clip-path="url(#clip2_9_45)">
<path d="M27.8977 11.217C27.5482 7.57283 24.3085 4.90091 20.6642 5.25223C20.5427 5.26361 20.4193 5.27881 20.2978 5.2978C19.1925 5.45352 18.1462 5.8922 17.2593 6.57015C17.605 7.82349 17.8879 9.08824 18.1195 10.3644C18.9475 8.61729 21.0346 7.87097 22.7817 8.69895C24.5287 9.52692 25.2751 11.6139 24.4471 13.3611C23.8509 14.622 22.5614 15.4063 21.1675 15.3607C20.2331 15.3417 19.3463 14.9411 18.7139 14.2517C18.7899 14.8669 18.8639 15.486 18.9342 16.1071C18.9779 16.1431 19.0254 16.1735 19.0747 16.1981C19.3521 16.3463 19.6407 16.4679 19.9407 16.5647C20.0223 16.5875 20.1135 16.6045 20.0813 16.7052C20.0338 16.9255 19.9921 17.1229 19.9521 17.3205C19.9274 17.4401 19.8534 17.4363 19.7622 17.4097C19.5154 17.3337 19.2818 17.2464 19.0501 17.1477C19.0843 17.4819 19.1222 17.8161 19.1565 18.1371C19.8154 18.3555 20.5047 18.4713 21.1998 18.4827C22.2271 18.5073 23.2469 18.2813 24.1679 17.8237C25.6187 17.1287 26.7697 15.9285 27.4019 14.4492C27.6146 13.9099 27.7761 13.3516 27.8843 12.7818L27.9281 11.3576C27.8977 11.3158 27.8977 11.2626 27.8977 11.217ZM20.4762 7.02591C19.8875 7.11136 19.3235 7.32025 18.8241 7.64119C18.7482 7.68867 18.6855 7.69816 18.6305 7.61081C18.5183 7.43989 18.4082 7.27279 18.2923 7.11516C18.2335 7.02591 18.2677 6.97843 18.3494 6.93476C18.9837 6.57773 19.673 6.32707 20.387 6.19224C20.4782 6.17515 20.5333 6.19224 20.5427 6.30048C20.5655 6.49419 20.5921 6.68599 20.6167 6.88159C20.6415 6.99932 20.5579 7.01641 20.4762 7.02591ZM24.4813 7.38863C24.3617 7.52535 24.2515 7.66968 24.147 7.81969C24.0749 7.91655 24.0141 7.93933 23.9002 7.85957C23.5033 7.56143 23.0533 7.33925 22.5747 7.20632C22.4741 7.17593 22.4038 7.13415 22.4285 7.01831C22.4702 6.82081 22.5158 6.62332 22.5575 6.42392C22.5575 6.36505 22.5879 6.31188 22.6697 6.32517C22.8405 6.38215 23.0153 6.43341 23.1842 6.49799C23.621 6.65749 24.0407 6.86259 24.4357 7.10947C24.5649 7.19303 24.6047 7.25949 24.4907 7.38863H24.4813ZM24.1622 16.8096C23.6305 17.0907 23.0551 17.2768 22.4607 17.3585C22.3411 17.3756 22.3107 17.3261 22.2974 17.2293C22.2803 17.0717 22.2594 16.9103 22.2405 16.7167C22.2177 16.6425 22.2746 16.5969 22.3715 16.5761C22.833 16.464 23.2754 16.2912 23.6931 16.0633C23.7825 16.0196 23.8394 16.0064 23.8983 16.1051C24.0027 16.2779 24.1167 16.4432 24.2325 16.6008C24.2819 16.7015 24.2723 16.7565 24.1698 16.8077L24.1622 16.8096ZM25.5086 9.04836C25.6491 8.95911 25.7917 8.86796 25.9246 8.76921C26.0575 8.67045 26.0898 8.71793 26.1562 8.82428C26.5265 9.43007 26.7734 10.1023 26.8817 10.8031C26.9045 10.9417 26.8817 11.0006 26.7373 11.0157L26.1163 11.0841C26.0822 11.0841 26.0613 11.0195 26.0499 10.9455C25.9435 10.3549 25.7403 9.78519 25.4479 9.26105C25.3985 9.14711 25.4231 9.09964 25.5143 9.04836H25.5086ZM26.5967 13.9725C26.4506 14.282 26.2758 14.5764 26.0765 14.8556C25.9873 14.9791 25.915 14.9809 25.8087 14.8897C25.6643 14.7663 25.4517 14.6771 25.389 14.5232C25.3263 14.3695 25.5295 14.1985 25.6093 14.0276C25.7765 13.7048 25.915 13.3687 26.0233 13.023C26.0613 12.8977 26.1182 12.854 26.2511 12.892C26.4239 12.9433 26.6043 12.9679 26.7829 13.0059C26.8474 13.0059 26.9082 13.0287 26.9025 13.1066C26.8361 13.4047 26.7354 13.6933 26.6063 13.9707L26.5967 13.9725Z" fill="white"/>
<path d="M23.839 11.9349C23.7971 13.3516 22.6159 14.4663 21.1993 14.4245C21.1937 14.4245 21.1898 14.4245 21.1841 14.4245C19.7655 14.4093 18.6261 13.2452 18.6433 11.8248C18.6585 10.4062 19.8225 9.26679 21.243 9.28388C21.2847 9.28388 21.3285 9.28579 21.3702 9.28768C22.7774 9.33136 23.8845 10.5087 23.839 11.9159C23.839 11.9216 23.839 11.9273 23.839 11.9349Z" fill="white"/>
<path d="M0.582031 4.15652C0.582031 2.8424 1.4214 1.79604 2.63487 1.61374C5.23273 1.22064 7.83059 0.871223 10.4417 0.495216C11.3647 0.364184 12.2895 0.248344 13.2124 0.105918C14.6424 -0.114368 15.8939 0.738291 16.1065 2.16826C16.5737 5.30543 17.0048 8.44451 17.4472 11.5836C17.8043 14.1149 18.1441 16.6483 18.5125 19.1759C18.7196 20.5964 17.9409 21.8403 16.5337 22.0719C14.2321 22.4497 11.9192 22.748 9.60617 23.0765C8.38889 23.2493 7.16973 23.4107 5.95245 23.5968C4.49021 23.8171 3.24825 22.9683 3.02797 21.4984C2.56271 18.4011 2.13543 15.2961 1.69676 12.1951C1.34164 9.66938 0.992221 7.13608 0.639002 4.60659C0.616214 4.42239 0.591527 4.23628 0.582031 4.15652ZM12.9314 10.6626C12.9636 9.89536 12.5212 9.18512 11.8147 8.87939C11.095 8.50528 10.2196 8.62112 9.62327 9.17184C9.40108 9.36743 9.23396 9.49656 8.89593 9.34275C7.83059 8.8623 6.76333 9.18892 6.22401 10.1081C5.68469 11.0253 5.91068 12.0868 6.85259 12.8293C7.55713 13.3801 8.27116 13.9193 8.99468 14.4492C9.70681 14.9715 10.2879 14.8973 10.8348 14.2024C11.4235 13.4599 11.9818 12.685 12.5667 11.9273C12.8326 11.5589 12.9598 11.1126 12.9314 10.6626ZM16.3609 18.084C16.3761 17.7004 16.2471 17.5275 16.0268 17.4288C15.8312 17.3187 15.5843 17.3871 15.4741 17.5827C15.4665 17.5959 15.4589 17.6111 15.4532 17.6244C15.2064 18.3669 14.9291 18.6137 14.4125 17.7972C14.2644 17.6111 13.9948 17.5807 13.8087 17.7269C13.7916 17.7403 13.7745 17.7555 13.7612 17.7725C13.5485 17.9073 13.4859 18.1884 13.6207 18.4011C13.6245 18.4068 13.6283 18.4125 13.6321 18.4181C14.0157 18.9917 14.3899 19.5728 14.8113 20.1159C15.0583 20.4483 15.4741 20.4292 15.6432 20.0647C15.9527 19.3867 16.1559 18.6651 16.3629 18.0801V18.084H16.3609ZM2.783 5.61687C2.783 6.01187 2.89124 6.21127 3.15711 6.28532C3.39828 6.3537 3.65464 6.23786 3.76099 6.00996C3.89961 5.79158 3.85784 5.39848 4.10471 5.34722C4.41615 5.28075 4.46173 5.70612 4.66303 5.87894C4.86432 6.05175 5.06181 6.16568 5.31059 5.99478C5.54417 5.88654 5.64672 5.61118 5.53847 5.37759C5.53088 5.36051 5.52139 5.34342 5.51188 5.32632C5.16816 4.71104 4.76557 4.12994 4.30791 3.59442C4.16168 3.37983 3.86924 3.32475 3.65464 3.47098C3.57299 3.52606 3.51032 3.60771 3.47613 3.70076C3.18179 4.34074 2.98429 5.04336 2.783 5.61687Z" fill="white"/>
</g>
</g>
</g>
<defs>
<clipPath id="clip0_9_45">
<rect width="28" height="24" fill="white"/>
</clipPath>
<clipPath id="clip1_9_45">
<rect width="28" height="24" fill="white"/>
</clipPath>
<clipPath id="clip2_9_45">
<rect width="28" height="24" fill="white"/>
</clipPath>
</defs>
</svg>
