<svg width="32" height="32" viewBox="0 0 32 32" fill="none" xmlns="http://www.w3.org/2000/svg">
<g clip-path="url(#clip0_522_429)">
<path d="M16 32C24.8366 32 32 24.8366 32 16C32 7.16344 24.8366 0 16 0C7.16344 0 0 7.16344 0 16C0 24.8366 7.16344 32 16 32Z" fill="url(#paint0_linear_522_429)"/>
<path d="M11.4498 10.5229C11.316 10.6938 11.1713 10.8587 11.0148 11.0152C10.8583 11.1717 10.6934 11.3165 10.5225 11.4503C8.98297 12.6564 6.60209 13.1385 4.81641 13.0631C4.82953 12.6246 4.87716 12.1865 4.95803 11.7541C5.51197 11.7616 7.92803 11.72 9.58591 10.5138C9.76253 10.3856 9.93084 10.2436 10.087 10.0875C10.243 9.93139 10.3852 9.76308 10.5133 9.58639C11.7191 7.92889 11.7611 5.51421 11.7537 4.95852C12.186 4.87764 12.6242 4.82996 13.0627 4.81689C13.0784 5.23827 13.1343 8.37133 11.4498 10.5229Z" fill="black"/>
<path d="M21.8409 12.7749L17.3079 17.3079L12.7749 21.8409C10.9307 21.7206 9.18233 21.0045 7.78676 19.8083L8.37133 18.6291L6.85901 18.8805C5.43195 17.2178 4.7512 15.1306 4.81683 13.063L5.40926 12.5466L4.95851 11.754C5.22564 10.3248 5.85964 8.95151 6.85908 7.78632C6.85908 7.78632 7.67664 7.94413 8.00764 8.00757C8.31864 8.06532 8.09827 8.0907 7.78639 6.85901C8.9507 5.86038 10.3231 5.22645 11.751 4.95888C11.7532 4.95845 11.7541 4.95844 11.7541 4.95844L12.5358 5.70432L13.0631 4.81682C15.1307 4.75126 17.218 5.43195 18.8806 6.85901L18.6458 7.93407L19.8084 7.78676C21.0045 9.18232 21.7206 10.9307 21.8409 12.7749Z" fill="url(#paint1_linear_522_429)"/>
<path d="M14.261 13.3341L16.2228 15.2959L15.7593 15.7598L15.2955 16.2232L13.3337 14.2615L7.78641 19.8083C7.62072 19.6663 7.45978 19.5176 7.30459 19.3624C7.14853 19.2063 6.99984 19.0458 6.85866 18.8806L12.406 13.3337L10.5225 11.4502C8.98297 12.6563 6.60209 13.1385 4.81641 13.0631C4.82953 12.6245 4.87716 12.1865 4.95803 11.7541C5.51197 11.7615 7.92803 11.72 9.58591 10.5137L6.85859 7.78639C6.99984 7.62158 7.14847 7.46108 7.30453 7.30502C7.46059 7.14896 7.62109 7.00027 7.78591 6.85908L10.5132 9.58639C11.719 7.92889 11.761 5.51421 11.7536 4.95852C12.186 4.87764 12.6241 4.82996 13.0626 4.81689C13.0643 4.86714 13.067 4.95589 13.067 5.07702C13.067 5.97202 12.9332 8.62808 11.4497 10.5229L13.3332 12.4064L18.8801 6.85908C19.0453 7.00027 19.2058 7.14896 19.3619 7.30502C19.5171 7.46027 19.6658 7.62114 19.8078 7.78683L14.261 13.3341Z" fill="url(#paint2_linear_522_429)"/>
<path d="M27.1879 15.2599C27.1879 14.0038 26.937 13.0249 26.5128 12.6008C25.9926 12.0805 24.6359 11.8208 22.9575 11.9655L22.0778 12.8382L21.5444 12.1727C19.4768 12.5973 17.1697 13.5967 15.3832 15.3832C13.5963 17.17 12.5965 19.4781 12.1723 21.5461L12.8963 22.0996L11.9655 22.957C11.8208 24.6358 12.0801 25.9921 12.6008 26.5128C13.1215 27.0335 14.4782 27.2928 16.1571 27.1472L16.9917 26.173L17.568 26.9403C19.636 26.5163 21.944 25.5163 23.7305 23.7303C25.5178 21.943 26.5173 19.635 26.9413 17.567L26.1583 16.8893L27.1481 16.1565C27.1748 15.8453 27.1879 15.5453 27.1879 15.2599Z" fill="url(#paint3_linear_522_429)"/>
<path d="M27.1477 16.1565C27.1088 16.6068 27.041 17.0798 26.9409 17.5669C25.4519 17.8668 23.891 17.3991 22.8023 16.3103C21.7531 15.2606 21.242 13.72 21.544 12.1726C22.0319 12.0725 22.5063 12.0043 22.957 11.9653C22.5577 13.09 22.7812 14.4341 23.73 15.383C24.6452 16.2983 25.9842 16.5671 27.1477 16.1565Z" fill="#E0E6F3"/>
<path d="M17.5683 26.9407C17.0812 27.0408 16.6077 27.109 16.1574 27.1475C16.5743 25.961 16.2854 24.6326 15.3835 23.7307C14.4729 22.8201 13.1331 22.5441 11.9658 22.9573C12.0048 22.507 12.0729 22.0335 12.1726 21.5464C13.6569 21.2483 15.2213 21.7133 16.3108 22.803C17.4115 23.9036 17.8647 25.4668 17.5683 26.9407Z" fill="#F2F7FF"/>
<path d="M22.3393 17.7017L20.0207 20.0207L17.7018 22.3392L16.7744 21.4114L19.093 19.0929L21.4115 16.7744L22.3393 17.7017Z" fill="url(#paint4_linear_522_429)"/>
<path d="M16.7705 19.5566L17.6978 18.6293L20.4798 21.4113L19.5525 22.3386L16.7705 19.5566Z" fill="#4E5A61"/>
<path d="M18.625 17.7021L19.5523 16.7748L22.3343 19.5568L21.407 20.4841L18.625 17.7021Z" fill="#424B52"/>
</g>
<defs>
<linearGradient id="paint0_linear_522_429" x1="4.68631" y1="4.68631" x2="27.3137" y2="27.3137" gradientUnits="userSpaceOnUse">
<stop stop-color="#9DD7F5"/>
<stop offset="0.9966" stop-color="#7FA7FC"/>
</linearGradient>
<linearGradient id="paint1_linear_522_429" x1="6.30445" y1="18.326" x2="18.326" y2="6.30451" gradientUnits="userSpaceOnUse">
<stop stop-color="#E06426"/>
<stop offset="0.9966" stop-color="#CF3B0E"/>
</linearGradient>
<linearGradient id="paint2_linear_522_429" x1="5.50328" y1="17.5611" x2="17.5607" y2="5.50371" gradientUnits="userSpaceOnUse">
<stop stop-color="#EABD3E"/>
<stop offset="0.9966" stop-color="#E69022"/>
</linearGradient>
<linearGradient id="paint3_linear_522_429" x1="12.6008" y1="26.5128" x2="26.5128" y2="12.6008" gradientUnits="userSpaceOnUse">
<stop stop-color="#EABD3E"/>
<stop offset="0.9966" stop-color="#E69022"/>
</linearGradient>
<linearGradient id="paint4_linear_522_429" x1="17.2381" y1="21.8755" x2="21.8756" y2="17.238" gradientUnits="userSpaceOnUse">
<stop stop-color="#4E5A61"/>
<stop offset="0.9966" stop-color="#424B52"/>
</linearGradient>
<clipPath id="clip0_522_429">
<rect width="32" height="32" fill="white"/>
</clipPath>
</defs>
</svg>
