<svg width="32" height="32" viewBox="0 0 32 32" fill="none" xmlns="http://www.w3.org/2000/svg">
<path d="M6.01232 22.655C6.00845 22.769 6.00076 22.8926 5.98526 23.022C5.96982 23.1708 5.94276 23.3253 5.89832 23.476C5.87126 23.5649 5.83457 23.6634 5.75345 23.7156C5.65107 23.7813 5.51195 23.7503 5.38832 23.7117C5.29557 23.6827 5.20095 23.648 5.11789 23.6016C5.02707 23.5552 4.94982 23.4934 4.8957 23.4084C4.81264 23.2809 4.80107 23.1148 4.78945 22.9815C4.7122 21.9712 4.67545 20.9492 4.68126 19.9311C4.68126 19.6123 4.68707 19.2936 4.6967 18.9748C4.72757 18.9768 4.75657 18.9787 4.78751 18.9787C4.9247 18.9787 5.06376 18.969 5.20095 18.9594C5.2087 18.9594 5.21832 18.9594 5.22607 18.9575C5.26082 18.9555 5.2937 18.9536 5.32845 18.9517C5.32457 18.9575 5.32457 18.9632 5.32651 18.969C5.82295 20.1243 6.06057 21.3993 6.01232 22.655Z" fill="#F15A24"/>
<path d="M10.0245 11.2415C9.98008 11.315 9.9337 11.3883 9.88352 11.4598C9.72127 11.7071 9.53964 11.9408 9.3407 12.1611C9.30783 12.1958 9.19389 12.3098 9.11083 12.2519C9.07989 12.2326 9.06445 12.1959 9.04902 12.1534C8.79983 11.4946 8.56026 10.8262 8.33039 10.1578C8.28014 10.013 8.22995 9.86808 8.18164 9.72314C8.38639 9.90858 8.58927 10.0825 8.77858 10.2428C9.1862 10.5809 9.60733 10.9131 10.0169 11.2358C10.0187 11.2376 10.0226 11.2396 10.0245 11.2415Z" fill="#E33036"/>
<path d="M11.85 12.7466C11.7148 12.7447 11.5796 12.7466 11.4463 12.7563H11.4444C11.3922 12.7582 11.34 12.7602 11.2879 12.766H11.2859C11.2434 12.7699 11.2009 12.7737 11.1584 12.7795C11.0812 12.7892 11.0058 12.8007 10.9305 12.8142C10.9073 12.8084 10.8841 12.7988 10.8609 12.793C10.8494 12.7891 10.8377 12.7949 10.8339 12.8065C10.8319 12.8181 10.8377 12.8297 10.8493 12.8316C10.7565 12.8509 10.6639 12.8741 10.5711 12.9031C10.2253 13.0036 9.8911 13.1523 9.58204 13.3455C9.57623 13.3474 9.56854 13.3474 9.56273 13.3494C9.55691 13.3513 9.55304 13.3571 9.55116 13.3648C9.41785 13.4498 9.29035 13.5406 9.16673 13.6411C9.16479 13.6411 9.16285 13.6391 9.15898 13.6411C9.08554 13.6642 9.01216 13.6894 8.93873 13.7145C8.93679 13.7126 8.93679 13.7106 8.93485 13.7087C8.66248 13.4846 8.4326 13.2083 8.21041 12.9417L6.97791 11.4581C6.94316 11.4156 6.91029 11.3731 6.87554 11.3326C6.73648 11.1587 6.59348 10.981 6.40998 10.8477C6.23804 10.7221 6.12216 10.5424 6.0101 10.3667L5.97729 10.3145C5.96573 10.2991 5.9541 10.2778 5.9541 10.2604C5.9541 10.2276 5.99466 10.2025 6.02366 10.1851C6.56073 9.90112 7.16341 9.7775 7.74879 9.66162C8.04435 10.6082 8.41335 11.5355 8.8596 12.4202C8.87504 12.4511 8.89048 12.484 8.9156 12.5091C8.97741 12.5748 9.12229 12.5961 9.22085 12.5961C9.2421 12.5961 9.26141 12.5941 9.27491 12.5941C9.31935 12.5883 9.3541 12.5594 9.38116 12.5362L9.38504 12.5323C9.43141 12.4917 9.47973 12.4512 9.52798 12.4106C9.66516 12.2947 9.81004 12.1749 9.92591 12.0397L9.92979 12.0358C10.0032 11.9508 10.0805 11.8619 10.1655 11.7769C10.2466 11.6977 10.3316 11.6224 10.4282 11.5606C10.9092 11.9411 11.3922 12.3332 11.85 12.7466Z" fill="#E33036"/>
<path d="M19.6376 22.1445C19.2898 21.4916 19.116 20.7555 18.9479 20.0427C18.861 19.6699 18.7682 19.2855 18.6523 18.9126C19.3807 19.5965 20.1186 20.2668 20.8643 20.9236C20.6653 21.0955 20.5069 21.2965 20.3523 21.4915C20.1592 21.7407 19.9757 21.9745 19.7148 22.1542C19.6878 22.1715 19.6704 22.1773 19.6588 22.1715C19.6511 22.1677 19.6453 22.1562 19.6376 22.1445Z" fill="#E33036"/>
<path d="M24.5138 23.047C24.1699 22.7766 23.857 22.452 23.5537 22.1371C23.3817 21.9556 23.2021 21.772 23.0186 21.5962C23.4648 21.4977 23.8995 21.3547 24.3109 21.2098C24.9291 20.9934 25.5473 20.7501 26.1636 20.4873C26.0476 20.6438 25.9472 20.808 25.8506 20.9664C25.7984 21.0533 25.7463 21.1441 25.6903 21.2311C25.5319 21.4783 25.3812 21.7352 25.2421 21.9922C25.1011 22.253 24.9485 22.4944 24.7862 22.7475C24.7302 22.8364 24.6741 22.9252 24.6181 23.0141C24.5949 23.0546 24.5737 23.0701 24.5524 23.0701C24.5389 23.0682 24.5254 23.0586 24.5138 23.047Z" fill="#DB181F"/>
<path d="M28.7149 22.4172C28.7111 22.4712 28.6531 22.508 28.5952 22.5369L24.4302 24.6252L21.9652 25.8616C21.8589 25.9138 21.7372 25.9756 21.6136 25.9756C21.6078 25.9756 21.6039 25.9756 21.6001 25.9737C21.4687 25.9698 21.3876 25.8732 21.3026 25.7689C21.2679 25.7284 21.2331 25.6839 21.1944 25.6492C21.1036 25.5661 21.009 25.485 20.9182 25.4057C20.8312 25.3323 20.7443 25.257 20.6593 25.1797C19.3476 23.9878 18.1846 22.6124 17.0623 21.2832C16.4267 20.5337 15.7699 19.7571 15.0938 19.023C15.8529 18.7216 16.6025 18.399 17.3424 18.0474C17.4332 18.0069 17.5221 17.9624 17.6128 17.9199C17.7056 18.0107 17.7982 18.0996 17.891 18.1884C17.9721 18.3816 18.0436 18.5806 18.0996 18.7815C18.1093 18.8143 18.1189 18.8491 18.1267 18.8819C18.1885 19.1079 18.2368 19.3359 18.2832 19.56C18.3179 19.7261 18.3527 19.8961 18.3933 20.0642C18.5652 20.777 18.8318 21.4725 19.0887 22.1447C19.1409 22.2819 19.2008 22.4384 19.309 22.5562C19.4056 22.6644 19.5331 22.7243 19.6529 22.7243C19.6644 22.7243 19.6741 22.7243 19.6838 22.7224C19.7031 22.7204 19.7224 22.7165 19.7417 22.7108C19.8692 22.676 19.9601 22.5717 20.0354 22.4867L20.7154 21.7101L21.0573 21.3199L21.1674 21.1924C21.2061 21.2252 21.2427 21.26 21.2795 21.2909C21.4321 21.4242 21.6041 21.5729 21.8107 21.6482C21.9382 21.6946 22.0735 21.71 22.2067 21.71C22.2551 21.71 22.3034 21.7081 22.3516 21.7042C22.3478 21.712 22.3477 21.7216 22.3555 21.7274L23.6633 22.987C23.7078 23.0295 23.7561 23.0836 23.8082 23.1396C23.9472 23.2942 24.1037 23.468 24.2661 23.5202C24.3124 23.5356 24.3607 23.5414 24.4129 23.5414C24.5906 23.5414 24.7799 23.4545 24.8901 23.3096C25.0466 23.099 25.1779 22.8634 25.3054 22.6335C25.3865 22.4905 25.4696 22.3399 25.5565 22.2007C25.7651 21.8704 26.0008 21.5265 26.2771 21.1517C26.3756 21.0165 26.4683 20.8735 26.5591 20.7364C26.5688 20.7229 26.5765 20.7094 26.5862 20.6959C26.8721 20.9875 27.2237 21.2155 27.5637 21.4357C27.9559 21.6888 28.3615 21.9496 28.6629 22.3089C28.6898 22.3419 28.7169 22.3785 28.7149 22.4172Z" fill="#E33036"/>
<path d="M14.2559 14.3441C14.2115 14.516 14.0975 14.6841 13.9044 14.858C13.6359 15.0995 13.319 15.2791 13.0061 15.4202C13.0621 15.0879 13.0331 14.7421 12.9249 14.4214C12.8554 14.2147 12.7549 14.0196 12.6236 13.8457C12.4961 13.6757 12.3396 13.525 12.1541 13.3898C11.9957 13.272 11.8141 13.1657 11.6094 13.071C11.7176 13.0498 11.8257 13.0305 11.9359 13.015C12.3763 12.9494 12.8399 12.9204 13.321 12.93C13.3693 12.9455 13.4195 12.959 13.4659 12.9784C13.4736 12.9822 13.4832 12.9861 13.491 12.9899C13.8793 13.1657 14.1691 13.5309 14.2541 13.9462C14.2849 14.093 14.2849 14.2282 14.2559 14.3441Z" fill="#95DCFC"/>
<path d="M13.1465 12.8857C12.7041 12.8857 12.2791 12.9185 11.8734 12.9804C11.7613 12.9978 11.6493 13.019 11.5411 13.0403C11.4581 13.0036 11.3711 12.9669 11.2784 12.934C11.1953 12.9012 11.1084 12.8722 11.0176 12.8432C11.0659 12.8355 11.1141 12.8259 11.1625 12.82C11.4058 12.791 11.6531 12.7853 11.8985 12.7892C11.9081 12.7969 11.9158 12.8046 11.9255 12.8124C11.9333 12.8201 11.9468 12.8201 11.9545 12.8124C11.9603 12.8065 11.9603 12.7989 11.9584 12.7911C12.1535 12.7969 12.3486 12.8065 12.5418 12.8182C12.7427 12.8297 12.9475 12.8451 13.1465 12.8857Z" fill="#95DCFC"/>
<path d="M12.9632 15.4161C12.9632 15.4239 12.967 15.4316 12.9709 15.4355C12.8318 15.4973 12.6927 15.5552 12.5575 15.6055C12.0919 15.7832 11.6476 15.9126 11.2265 15.9938C11.238 15.8547 11.24 15.7156 11.2303 15.5765C11.2091 15.2539 11.1318 14.9351 11.0024 14.6376C10.817 14.2068 10.5291 13.8205 10.1602 13.5307C10.5793 13.3356 11.0411 13.1849 11.5375 13.0825C11.7713 13.1888 11.9741 13.3047 12.1499 13.438C12.3238 13.5674 12.4687 13.7123 12.5903 13.8726C12.7237 14.0485 12.826 14.2493 12.8917 14.4599C12.9921 14.769 13.0192 15.0993 12.9632 15.4161Z" fill="#95DCFC"/>
<path d="M11.4717 13.0535C10.9868 13.1578 10.5347 13.3065 10.1232 13.4997C10.0073 13.4128 9.89916 13.3587 9.8006 13.3375C9.76391 13.3297 9.7291 13.3259 9.69629 13.3259C10.0788 13.1018 10.496 12.9395 10.9288 12.8584C11.0196 12.8855 11.1085 12.9144 11.1935 12.9473C11.292 12.98 11.3847 13.0167 11.4717 13.0535Z" fill="#95DCFC"/>
<path d="M10.077 13.521C9.64234 13.7297 9.25597 13.9885 8.92366 14.2938C8.87147 14.3402 8.82322 14.3884 8.77297 14.4387C8.77297 14.4387 8.77103 14.4406 8.76909 14.4425C8.62422 14.5893 8.48897 14.7478 8.36534 14.9139C8.28034 15.0298 8.20116 15.1573 8.17603 15.2983C8.13547 15.111 8.18953 14.8946 8.34797 14.6338C8.65709 14.1296 9.09366 13.7007 9.59978 13.3839C9.64422 13.3704 9.69253 13.3646 9.74272 13.3704C9.84135 13.3819 9.95334 13.4322 10.077 13.521Z" fill="#95DCFC"/>
<path d="M17.5801 17.8891C16.7552 18.2889 15.9148 18.6541 15.0629 18.9882C15.0551 18.9805 15.0475 18.9709 15.0378 18.9612C15.03 18.9534 15.0165 18.9515 15.0088 18.9612C15.001 18.9689 14.9991 18.9805 15.0068 18.9902C15.0126 18.9941 15.0165 18.9999 15.0223 19.0056C12.8973 19.8402 10.7008 20.4796 8.45602 20.9046C8.16627 20.9606 7.88227 21.0109 7.60215 21.0051C7.16171 20.9973 6.73865 20.8621 6.32715 20.7191C6.3484 20.7211 6.36771 20.7249 6.3909 20.7269C6.41796 20.7269 6.4469 20.7288 6.47784 20.7288C6.60727 20.7288 6.76759 20.7114 6.9009 20.6322C7.07284 20.5279 7.17715 20.3386 7.25827 20.1859C7.34134 20.0333 7.42827 19.8749 7.49202 19.7087C7.52102 19.6334 7.54609 19.5581 7.56546 19.4789C7.6099 19.2896 7.61377 19.0944 7.61571 18.9264C7.62346 18.0937 7.52684 17.3036 7.32596 16.5772C7.31052 16.5251 7.29502 16.471 7.27765 16.415C7.1849 16.1175 7.04971 15.7775 6.81402 15.5032C6.79084 15.4761 6.76765 15.451 6.74252 15.4279C6.46046 15.1439 6.08571 15.0009 5.74571 15.0512C5.70515 15.057 5.66459 15.0686 5.62402 15.0821C5.74377 14.9971 5.8829 14.9275 6.03552 14.8618C7.02846 14.4271 8.05621 14.0408 9.08784 13.7085C8.78452 13.9693 8.5199 14.2726 8.31315 14.6126C8.13346 14.9062 8.08134 15.1516 8.14896 15.3602C8.21077 15.5495 8.36921 15.7041 8.6319 15.8296C8.66471 15.8451 8.69952 15.8606 8.73621 15.876C9.1709 16.0556 9.6519 16.1445 10.1773 16.1445C10.896 16.1445 11.6958 15.9764 12.5728 15.6442C13.019 15.4761 13.5271 15.2539 13.9308 14.8889C14.0835 14.7536 14.1878 14.6184 14.2496 14.4832C15.3256 15.6443 16.4383 16.7802 17.5801 17.8891Z" fill="#F2444B"/>
<path d="M28.537 13.5386C28.5119 13.7897 28.2859 13.9636 28.0734 14.0254C27.8416 14.0911 27.5885 14.0621 27.349 14.0254C26.7443 13.9346 26.1416 13.8051 25.5466 13.6622V13.6544C25.5408 13.6429 25.5273 13.639 25.5176 13.6448C25.5137 13.6467 25.5098 13.6486 25.506 13.6506C25.0211 13.5328 24.54 13.4052 24.0668 13.2796C23.8272 13.2178 23.5819 13.1502 23.3501 13.0556C23.325 13.0459 23.2998 13.0363 23.2748 13.0246L23.2458 13.0131C23.182 12.9841 23.1222 12.959 23.1163 12.93C23.1144 12.9107 23.1337 12.8817 23.1723 12.8469C23.2496 12.7793 23.3675 12.7368 23.4698 12.7001C23.4892 12.6924 23.5085 12.6847 23.5278 12.6789C24.1827 12.4336 24.8569 12.2133 25.533 12.0259C25.9426 11.91 26.3792 11.8057 26.7907 11.9023C26.9047 11.9294 27.0128 11.9719 27.1172 12.024C27.1191 12.024 27.121 12.0259 27.123 12.0259C27.1268 12.0318 27.1327 12.0375 27.1403 12.0375C27.1423 12.0375 27.1423 12.0356 27.1423 12.0356C27.4012 12.1669 27.633 12.3563 27.8435 12.5301C28.0599 12.7098 28.282 12.8933 28.4288 13.1386C28.5138 13.2816 28.5506 13.4169 28.537 13.5386Z" fill="#FF545B"/>
<path d="M24.8556 23.2846C24.7262 23.4566 24.4731 23.5435 24.278 23.4798C24.1273 23.4334 23.9747 23.2615 23.8395 23.1127C23.7873 23.0548 23.739 23.0006 23.6927 22.9562L22.3887 21.7025C22.4427 21.6966 22.4949 21.6909 22.5452 21.6831C22.6881 21.6638 22.8292 21.6368 22.9682 21.6078C23.1595 21.7875 23.3449 21.9788 23.5246 22.1661C23.8279 22.481 24.1409 22.8095 24.4867 23.0799C24.504 23.0934 24.5234 23.1089 24.5485 23.1108H24.5562C24.6084 23.1108 24.6412 23.0587 24.6547 23.0374C24.7107 22.9466 24.7668 22.8577 24.8228 22.7708C24.9831 22.5158 25.1357 22.2743 25.2787 22.0116C25.4177 21.7547 25.5665 21.4997 25.7249 21.2544C25.7809 21.1655 25.835 21.0766 25.8872 20.9897C25.9915 20.8139 26.0977 20.6343 26.2291 20.4662C26.231 20.4643 26.231 20.4604 26.231 20.4585C26.4629 20.358 26.6947 20.2537 26.9265 20.1475C26.7816 20.329 26.6502 20.5222 26.5247 20.7135C26.4339 20.8506 26.3412 20.9916 26.2426 21.1269C25.9664 21.5036 25.7307 21.8475 25.522 22.1778C25.4332 22.3188 25.3501 22.4695 25.269 22.6145C25.1434 22.8422 25.012 23.0779 24.8556 23.2846Z" fill="#ADABD6"/>
<path d="M20.0029 22.4594C19.9333 22.5386 19.8464 22.6391 19.7325 22.6719C19.603 22.7067 19.4504 22.6507 19.3403 22.529C19.2379 22.415 19.1819 22.2701 19.1278 22.1291C18.8708 21.4588 18.6062 20.7652 18.4343 20.0544C18.3956 19.8863 18.359 19.7163 18.3241 19.5521C18.2701 19.2932 18.214 19.0267 18.1406 18.7697C18.0904 18.5959 18.0305 18.4239 17.9629 18.2559C18.1715 18.4568 18.3801 18.6577 18.5907 18.8547C18.7163 19.2488 18.8148 19.6564 18.9075 20.0525C19.0756 20.7672 19.2495 21.5072 19.601 22.164C19.6088 22.1794 19.6184 22.1969 19.6377 22.2084C19.6474 22.2123 19.659 22.2162 19.6686 22.2162C19.6976 22.2162 19.7266 22.1969 19.7382 22.1872C20.0048 22.0056 20.198 21.7583 20.3853 21.5187C20.5399 21.3217 20.6983 21.1208 20.8953 20.9527C20.9765 21.0223 21.0556 21.0937 21.1368 21.1652L20.0029 22.4594Z" fill="#ADABD6"/>
<path d="M7.57512 18.9245C7.57319 19.0906 7.56738 19.2838 7.52488 19.4692C7.46694 19.7184 7.34137 19.9464 7.22156 20.1666C7.14237 20.3134 7.04187 20.4989 6.87962 20.5955C6.727 20.6882 6.53962 20.6921 6.39281 20.6844H6.38506C6.132 20.6709 5.962 20.5974 5.87506 20.468C5.86925 20.4583 5.85769 20.4564 5.84994 20.4602C5.734 19.9444 5.57369 19.4364 5.36506 18.9515L5.36312 18.9496C5.622 18.9322 5.90981 18.9109 6.1455 18.7602C6.22856 18.7062 6.28075 18.6501 6.30969 18.5864C6.34444 18.5052 6.34062 18.4144 6.33287 18.3217C6.3155 18.1227 6.29231 17.9237 6.26331 17.7267C6.24594 17.6089 6.22469 17.4832 6.18412 17.3654C6.15325 17.2727 6.11069 17.1838 6.05081 17.1085C6.03925 17.0911 6.02569 17.0776 6.01219 17.0621C5.91556 16.9597 5.78037 16.9037 5.62 16.8979H5.58525C5.41912 16.8979 5.19887 16.9849 5.054 17.0679C5.03662 16.6681 5.01731 16.2643 4.99219 15.8606C4.99412 15.8586 4.99606 15.8567 4.99606 15.8528C5.03275 15.6094 5.18344 15.3872 5.38631 15.2443C5.3805 15.254 5.38244 15.2675 5.39213 15.2733C5.396 15.2772 5.39987 15.2791 5.40369 15.2791C5.4095 15.2791 5.41719 15.2752 5.42106 15.2694C5.44812 15.2327 5.48094 15.1999 5.51569 15.169C5.591 15.1323 5.67025 15.1052 5.75331 15.0937C6.06819 15.0434 6.41788 15.1729 6.68638 15.4337H6.68831C6.72119 15.4646 6.75206 15.4974 6.783 15.5322C7.00131 15.7872 7.13456 16.104 7.22344 16.388H7.22538C7.24856 16.4576 7.26788 16.5252 7.28525 16.5889C7.48431 17.3114 7.58287 18.0976 7.57512 18.9245Z" fill="#ADABD6"/>
<path d="M6.27104 18.5689C6.24592 18.6249 6.1976 18.6771 6.12229 18.7254C5.88854 18.8742 5.59298 18.8935 5.33217 18.9089C5.28773 18.9109 5.24329 18.9147 5.19885 18.9186C4.8241 18.9418 4.43579 18.9689 4.08417 18.7989C4.02429 18.7699 3.93348 18.7177 3.85817 18.6443C3.7461 18.538 3.66304 18.3835 3.74223 18.1768C3.78667 18.0609 3.86973 17.9469 3.99917 17.8194C4.15567 17.6649 4.30442 17.5354 4.44348 17.4292C4.44735 17.4311 4.45317 17.4311 4.45698 17.4272C4.52073 17.3809 4.71004 17.406 4.86267 17.4794C4.91098 17.5026 4.95154 17.5277 4.98048 17.5547C4.98242 17.5547 4.98242 17.5567 4.98242 17.5586C4.9921 17.5721 5.00173 17.5857 5.01335 17.5934C5.02685 17.6127 5.0346 17.632 5.0346 17.6513C5.0346 17.6629 5.04429 17.6725 5.05585 17.6725C5.06554 17.6725 5.07517 17.6648 5.07517 17.6552C5.07517 17.6532 5.07517 17.6532 5.07517 17.6513C5.07517 17.6397 5.07517 17.6262 5.07323 17.6146C5.06742 17.4465 5.06167 17.2804 5.05585 17.1124H5.05779C5.08098 17.0989 5.1061 17.0834 5.13504 17.0699C5.2606 17.008 5.42285 16.9501 5.55229 16.9404C5.56385 16.9385 5.57548 16.9385 5.58517 16.9385H5.59098C5.75323 16.9385 5.88848 16.9906 5.98123 17.0911C5.99473 17.1046 6.00829 17.1201 6.01792 17.1355C6.09135 17.2283 6.13767 17.3403 6.16667 17.4562C6.19179 17.549 6.20723 17.6436 6.22073 17.7325C6.24973 17.9276 6.27292 18.1285 6.29029 18.3255C6.2981 18.4163 6.30392 18.4975 6.27104 18.5689Z" fill="#FBB03B"/>
<path d="M5.03101 17.5471C4.99626 17.5085 4.94601 17.4736 4.88032 17.4408C4.78376 17.3945 4.66007 17.3616 4.56157 17.3616C4.53644 17.3616 4.51519 17.3655 4.49394 17.3694C4.49201 17.3694 4.49394 17.3675 4.49201 17.3675C4.48619 17.3578 4.47269 17.3559 4.46301 17.3616C4.45913 17.3655 4.45526 17.3675 4.45332 17.3713C4.35676 17.1086 4.24082 16.8498 4.12876 16.5986C4.00126 16.3146 3.86794 16.021 3.76363 15.7196C3.46419 14.8522 3.29032 13.952 3.24782 13.0421C3.23626 12.8045 3.23238 12.5301 3.34057 12.2964C3.43713 12.0839 3.66707 11.8868 3.92013 11.9178C4.06501 11.9371 4.19057 12.0201 4.29107 12.167C4.38382 12.2964 4.45719 12.476 4.51326 12.704C4.88994 14.2475 4.96532 15.8548 5.02519 17.4176C5.02713 17.4601 5.02907 17.5046 5.03101 17.5471Z" fill="#F15A24"/>
<path d="M10.3937 11.5332C10.1967 11.6646 10.0363 11.8481 9.89528 12.0123C9.78128 12.1456 9.63834 12.2634 9.50122 12.3793C9.45097 12.4199 9.40272 12.4624 9.35441 12.503C9.32541 12.5281 9.30034 12.5474 9.27134 12.5513C9.17478 12.561 9.00284 12.5397 8.94678 12.4798C8.92553 12.4585 8.91009 12.4295 8.89653 12.4025C8.45028 11.5158 8.08128 10.5885 7.78572 9.64003C7.78766 9.63616 7.78959 9.63422 7.78766 9.63034C7.78766 9.62647 7.78378 9.62259 7.77991 9.61878C7.73934 9.48934 7.69878 9.35991 7.66016 9.23047C7.81472 9.38116 7.96728 9.52797 8.11797 9.66516C8.39809 10.5017 8.69753 11.3439 9.01047 12.1688C9.02397 12.2055 9.04328 12.2577 9.08772 12.2866C9.10897 12.302 9.13409 12.3098 9.16116 12.3098C9.22491 12.3098 9.29834 12.2673 9.37172 12.1881C9.62866 11.906 9.85853 11.595 10.0575 11.2666C10.1696 11.3555 10.2817 11.4443 10.3937 11.5332Z" fill="#ADABD6"/>
<path d="M11.1839 16.0017C10.2585 16.1775 9.44528 16.1234 8.75172 15.8375C8.56822 15.7622 8.43103 15.6753 8.33447 15.5767C8.27266 15.5149 8.22628 15.4454 8.19922 15.372C8.20503 15.3681 8.20891 15.3642 8.20891 15.3565C8.21666 15.2039 8.30553 15.0649 8.40016 14.9393C8.48516 14.8234 8.57597 14.7133 8.67253 14.607C8.76141 14.5085 8.85603 14.4139 8.95266 14.325C9.28684 14.0178 9.67709 13.759 10.1156 13.5503C10.4885 13.8362 10.7802 14.2245 10.9656 14.6572C11.0931 14.9528 11.1703 15.2696 11.1916 15.5922C11.1994 15.7294 11.1975 15.8645 11.1839 16.0017Z" fill="#95DCFC"/>
<path d="M27.2472 9.10279L27.2318 9.22448C27.1178 10.1344 27.0792 11.0597 27.1197 11.9754C27.0946 11.9639 27.0676 11.9522 27.0425 11.9407C26.9633 11.9078 26.8841 11.8808 26.801 11.8615C26.3799 11.763 25.9375 11.8692 25.5221 11.9851C24.846 12.1744 24.1699 12.3947 23.513 12.64C23.4956 12.6458 23.4763 12.6535 23.457 12.6593C23.3507 12.6979 23.2291 12.7424 23.146 12.8158C23.0938 12.8622 23.0707 12.9008 23.0764 12.9355C23.0842 12.9877 23.1499 13.0147 23.231 13.0515L23.2581 13.063C23.3547 13.1055 23.4532 13.1422 23.5536 13.1751C23.7198 13.2311 23.8897 13.2755 24.0559 13.32C24.5137 13.4417 24.9793 13.5653 25.4487 13.6793C24.6451 14.0946 23.8222 14.4984 23.005 14.879C22.8485 14.7862 22.6921 14.6916 22.5356 14.5989C21.1389 13.7624 19.6939 12.8969 18.3821 11.8847C18.3609 11.8692 18.3416 11.8519 18.3203 11.8364C18.3976 11.8229 18.4768 11.8112 18.5541 11.7958C19.9353 11.564 21.3301 11.3032 22.7017 11.0192C22.8775 10.9845 23.061 10.9458 23.2349 10.8802C23.7758 10.6792 24.1911 10.2369 24.5562 9.84667C24.9581 9.41779 25.3367 9.01404 25.6497 8.51567C25.9066 8.10611 26.2292 7.75067 26.6117 7.45898C26.6987 7.38942 26.8011 7.32567 26.9034 7.32373C26.9208 7.32373 26.9382 7.32567 26.9556 7.32954C27.0928 7.35854 27.172 7.50729 27.2126 7.62704C27.3767 8.09442 27.311 8.60829 27.2472 9.10279Z" fill="#F2444B"/>
<path d="M28.7446 19.1947C27.2841 19.981 25.7889 20.6455 24.2975 21.171C23.8802 21.3178 23.4378 21.4627 22.9839 21.5612C22.9819 21.5593 22.98 21.5573 22.9781 21.5554C22.9684 21.5477 22.9549 21.5477 22.9472 21.5573C22.9452 21.5612 22.9433 21.5651 22.9433 21.5689C22.81 21.5979 22.6748 21.623 22.5396 21.6423C22.3174 21.6732 22.0586 21.6926 21.8267 21.6095C21.6257 21.536 21.4577 21.3892 21.3089 21.2598C21.2703 21.2269 21.2336 21.1941 21.1969 21.1613L21.2123 21.142C21.2201 21.1342 21.2201 21.1207 21.2104 21.113C21.2026 21.1052 21.1891 21.1052 21.1814 21.1149L21.164 21.1342C21.0481 21.0318 20.9322 20.9295 20.8162 20.8251C20.0783 20.176 19.3461 19.5115 18.6275 18.8334C18.6197 18.8102 18.614 18.787 18.6062 18.7658C18.6024 18.7542 18.5908 18.7484 18.5811 18.7523C18.5696 18.7562 18.5657 18.7658 18.5676 18.7755C18.4189 18.6345 18.2721 18.4953 18.1252 18.3543C18.0596 18.2906 17.9939 18.2288 17.9282 18.165C17.9243 18.1573 17.9224 18.1496 17.9185 18.1418C17.9146 18.1303 17.9031 18.1264 17.8914 18.1303C17.8103 18.053 17.7292 17.9757 17.6499 17.8985C17.6519 17.8927 17.6538 17.885 17.6519 17.8792C17.6461 17.8695 17.6345 17.8657 17.6229 17.8695C17.6229 17.8695 17.6229 17.8695 17.6209 17.8695C16.4715 16.7528 15.3491 15.6073 14.2654 14.4405C14.2751 14.4115 14.2886 14.3825 14.2963 14.3535C14.3253 14.2318 14.3253 14.0908 14.2944 13.9382C14.2924 13.9285 14.2905 13.9208 14.2886 13.9112C14.192 13.4842 13.8867 13.1133 13.483 12.9395C13.4752 12.9375 13.4656 12.9356 13.4579 12.9317H13.4965C13.5081 12.9337 13.5177 12.924 13.5177 12.9124C13.5177 12.9008 13.51 12.8912 13.4984 12.8912C13.4405 12.8892 13.3844 12.8892 13.3265 12.8873C13.0734 12.81 12.8068 12.7907 12.5441 12.7752C12.3374 12.7637 12.1269 12.752 11.9163 12.7482C11.3252 12.213 10.6916 11.7108 10.0753 11.2278C10.0734 11.222 10.0714 11.2162 10.0656 11.2143C10.0617 11.2123 10.0598 11.2123 10.0559 11.2123C10.0521 11.2085 10.0482 11.2065 10.0424 11.2027C9.63481 10.882 9.21175 10.5497 8.80606 10.2097C8.59937 10.0358 8.37912 9.84653 8.15312 9.64178C8.15118 9.63403 8.14731 9.62635 8.14537 9.6186C8.1415 9.60703 8.12993 9.60122 8.11831 9.6051L8.11637 9.60703C7.41125 8.96178 6.66362 8.16203 6.11693 7.20191C6.086 7.14785 6.059 7.09372 6.06287 7.03966C6.07256 6.91603 6.229 6.85997 6.35843 6.83491L9.98831 6.10853C10.3206 6.04285 10.734 5.95978 11.0875 6.1066C11.2807 6.18578 11.4391 6.32491 11.6129 6.48522C12.3122 7.13435 13.0347 7.80272 13.8867 8.39191C14.8564 9.06416 15.776 9.81953 16.6627 10.5517C16.7671 10.6367 16.8694 10.7237 16.9757 10.8087C17.3833 11.1448 17.8025 11.4848 18.2256 11.8132C18.2197 11.819 18.2159 11.8248 18.2178 11.8325C18.2178 11.8441 18.2294 11.8518 18.241 11.8499C18.2487 11.848 18.2564 11.846 18.2642 11.846C18.2951 11.8692 18.326 11.8943 18.3569 11.9195C19.6706 12.9317 21.1156 13.7972 22.5142 14.6337C22.6649 14.7245 22.8156 14.8152 22.9682 14.906C22.9662 14.9099 22.9662 14.9157 22.9682 14.9195C22.9721 14.9273 22.9797 14.933 22.9875 14.933C22.9894 14.933 22.9933 14.9311 22.9952 14.9311C22.9972 14.9292 23.0011 14.9272 23.003 14.9272C23.0359 14.9465 23.0687 14.9658 23.1015 14.9871C23.4937 15.2228 23.7912 15.4043 24.0674 15.5743C24.7726 16.0128 25.4757 16.4688 26.1557 16.9305C26.4301 17.1159 26.7469 17.3342 27.0424 17.5699C27.6589 18.0568 28.2114 18.6345 28.7446 19.1947Z" fill="#FF545B"/>
<path d="M4.8804 17.4407C4.94609 17.4735 4.99634 17.5084 5.03109 17.547C4.96928 15.9435 4.89972 14.2899 4.51334 12.7039C4.39359 12.2171 4.19459 11.9524 3.92028 11.9177C3.66722 11.8867 3.43734 12.0838 3.34072 12.2963C3.23253 12.53 3.2364 12.8044 3.24797 13.042C3.29047 13.9519 3.46434 14.8521 3.76378 15.7195C3.86809 16.0209 4.0014 16.3145 4.1289 16.5985C4.24097 16.8496 4.35684 17.1085 4.45347 17.3712C4.4554 17.3674 4.45928 17.3654 4.46315 17.3615C4.47284 17.3557 4.48634 17.3577 4.49215 17.3674C4.49409 17.3674 4.49215 17.3693 4.49409 17.3693C4.51534 17.3654 4.53659 17.3615 4.56172 17.3615C4.66015 17.3615 4.78378 17.3944 4.8804 17.4407ZM6.01247 22.6547C6.06078 21.399 5.82315 20.124 5.32665 18.9688C5.32472 18.963 5.32472 18.9572 5.32859 18.9514C5.28609 18.9534 5.24359 18.9572 5.20109 18.9592C5.0639 18.9689 4.92484 18.9785 4.78765 18.9785C4.75672 18.9785 4.72778 18.9765 4.69684 18.9746C4.65628 20.3056 4.68715 21.654 4.78959 22.9812C4.80115 23.1145 4.81278 23.2807 4.89584 23.4082C4.99822 23.5704 5.19334 23.6497 5.38847 23.7115C5.51209 23.7501 5.65122 23.781 5.75359 23.7154C5.83472 23.6632 5.8714 23.5647 5.89847 23.4758C5.98153 23.1937 6.00278 22.902 6.01247 22.6547ZM6.12253 18.7254C6.19784 18.6771 6.24615 18.625 6.27128 18.5689C6.30415 18.4974 6.29834 18.4163 6.29059 18.3255C6.27322 18.1284 6.25003 17.9275 6.22103 17.7324C6.19015 17.5102 6.14184 17.2591 5.98147 17.091C5.88872 16.9906 5.75353 16.9384 5.59122 16.9384C5.58928 16.9384 5.58734 16.9384 5.5854 16.9384C5.42315 16.9404 5.19709 17.0292 5.05803 17.1123H5.05609C5.0619 17.292 5.06959 17.4716 5.0754 17.6513V17.6552C5.0754 17.6649 5.06572 17.6725 5.05609 17.6725C5.04453 17.6725 5.03484 17.6629 5.03484 17.6513C5.0329 17.5934 4.96915 17.5296 4.8629 17.4794C4.71028 17.4059 4.52097 17.3809 4.45722 17.4272C4.45334 17.431 4.44753 17.431 4.44372 17.4291C4.30465 17.5354 4.1559 17.6648 3.9994 17.8194C3.86997 17.9469 3.7869 18.0609 3.74247 18.1767C3.60915 18.5245 3.93759 18.7273 4.0844 18.7988C4.43597 18.9688 4.82428 18.9417 5.19909 18.9185C5.24353 18.9147 5.28797 18.9108 5.3324 18.9089C5.59322 18.8935 5.88878 18.8742 6.12253 18.7254ZM7.52503 19.4692C7.56753 19.2837 7.57334 19.0905 7.57528 18.9244C7.58303 18.0976 7.48447 17.3114 7.28553 16.5889C7.19472 16.2624 7.05565 15.849 6.78328 15.5322C6.50122 15.2076 6.10715 15.0376 5.75359 15.0937C5.67053 15.1052 5.59134 15.1323 5.51597 15.169C5.48122 15.1999 5.44834 15.2327 5.42134 15.2694C5.41747 15.2752 5.40978 15.2791 5.40397 15.2791C5.40009 15.2791 5.39622 15.2772 5.3924 15.2733C5.38272 15.2675 5.38084 15.254 5.38659 15.2443C5.18378 15.3872 5.03309 15.6094 4.99634 15.8528C4.99634 15.8567 4.9944 15.8586 4.99247 15.8605C5.01759 16.2643 5.0369 16.668 5.05428 17.0679C5.19915 16.9849 5.4194 16.8979 5.58553 16.8979H5.59134C5.76522 16.8979 5.91009 16.9539 6.01247 17.0621C6.18053 17.2379 6.23078 17.4987 6.26359 17.7267C6.29259 17.9237 6.31578 18.1227 6.33315 18.3217C6.3409 18.4144 6.34478 18.5052 6.30997 18.5864C6.28097 18.6501 6.22884 18.7061 6.14578 18.7602C5.91009 18.9109 5.62228 18.9322 5.3634 18.9495L5.36534 18.9515C5.57397 19.4364 5.73434 19.9444 5.85022 20.4602C5.85797 20.4564 5.86953 20.4583 5.87534 20.468C5.96228 20.5994 6.13615 20.6727 6.39309 20.6844C6.5399 20.6921 6.72728 20.6882 6.8799 20.5955C7.04215 20.4989 7.14265 20.3134 7.22184 20.1666C7.34153 19.9464 7.46709 19.7184 7.52503 19.4692ZM10.077 13.5211C9.89153 13.3859 9.73115 13.3414 9.59978 13.3839C9.09365 13.7007 8.65703 14.1296 8.34797 14.6338C8.18953 14.8946 8.13547 15.111 8.17603 15.2984C8.20115 15.1574 8.28034 15.0299 8.36534 14.9139C8.53147 14.6898 8.71884 14.4812 8.92365 14.2938C9.25597 13.9886 9.64234 13.7297 10.077 13.5211ZM9.34097 12.1611C9.5979 11.8771 9.82778 11.568 10.0248 11.2415C10.0229 11.2396 10.019 11.2377 10.0171 11.2357C9.60753 10.9131 9.1864 10.5809 8.77878 10.2428C8.58947 10.0825 8.38659 9.9086 8.18184 9.7231C8.45615 10.5345 8.74597 11.3516 9.04922 12.1534C9.06465 12.1959 9.08009 12.2325 9.11103 12.2519C9.19415 12.3099 9.30815 12.1959 9.34097 12.1611ZM9.8954 12.0124C10.0364 11.8482 10.1968 11.6646 10.3938 11.5333C10.2818 11.4444 10.1698 11.3555 10.0577 11.2667C9.85872 11.5952 9.62884 11.9062 9.3719 12.1882C9.29847 12.2674 9.22509 12.3099 9.16134 12.3099C9.13428 12.3099 9.10915 12.3022 9.0879 12.2867C9.04347 12.2577 9.02415 12.2056 9.01065 12.1689C8.69772 11.344 8.39828 10.5017 8.11815 9.66529C7.96747 9.5281 7.81484 9.38129 7.66034 9.2306C7.69897 9.36004 7.73953 9.48948 7.78009 9.61892C7.78397 9.62279 7.78784 9.62667 7.78784 9.63048C7.78978 9.63436 7.78784 9.63629 7.7859 9.64017C8.08147 10.5887 8.45047 11.516 8.89672 12.4027C8.91022 12.4297 8.92572 12.4587 8.94697 12.4799C9.00297 12.5398 9.1749 12.561 9.27153 12.5514C9.30053 12.5475 9.32559 12.5282 9.35459 12.5031C9.4029 12.4625 9.45115 12.42 9.5014 12.3795C9.63847 12.2635 9.7814 12.1456 9.8954 12.0124ZM10.9289 12.8585C10.4962 12.9396 10.0789 13.1019 9.6964 13.326C9.82197 13.324 9.9649 13.382 10.1233 13.4999C10.5348 13.3067 10.9868 13.1579 11.4718 13.0536C11.3076 12.984 11.126 12.9184 10.9289 12.8585ZM11.8504 12.7464C11.3926 12.333 10.9096 11.9409 10.4286 11.5603C10.2296 11.6878 10.0693 11.8752 9.92634 12.0394C9.81047 12.1746 9.66553 12.2944 9.5284 12.4103C9.47815 12.4528 9.4299 12.4934 9.38159 12.5359C9.35453 12.559 9.31978 12.588 9.27534 12.5938C9.26184 12.5938 9.24247 12.5957 9.22128 12.5957C9.12278 12.5957 8.97784 12.5745 8.91603 12.5088C8.8909 12.4837 8.87547 12.4509 8.86003 12.4199C8.41378 11.5352 8.04478 10.6079 7.74922 9.66129C7.16384 9.77723 6.56115 9.90086 6.02409 10.1848C5.99509 10.2022 5.95453 10.2273 5.95453 10.2601C5.95453 10.2775 5.96615 10.2987 5.97772 10.3142L6.01053 10.3664C6.12259 10.5422 6.23847 10.7218 6.4104 10.8474C6.5939 10.9807 6.7369 11.1584 6.87597 11.3322C6.91072 11.3728 6.94359 11.4153 6.97834 11.4578L8.21084 12.9414C8.43303 13.208 8.6629 13.4842 8.93528 13.7084C8.93722 13.7103 8.93722 13.7122 8.93915 13.7142C9.01259 13.689 9.08597 13.6639 9.1594 13.6407C9.16328 13.6388 9.16522 13.6407 9.16715 13.6407C9.29078 13.5403 9.41828 13.4495 9.55159 13.3645C9.55353 13.3567 9.5574 13.351 9.56315 13.349C9.56897 13.3471 9.57665 13.3471 9.58247 13.3452C9.97272 13.1017 10.4035 12.926 10.8497 12.8313C10.8382 12.8294 10.8323 12.8178 10.8343 12.8062C10.8382 12.7946 10.8497 12.7888 10.8613 12.7927C10.8845 12.7985 10.9077 12.8081 10.9309 12.8139C11.0062 12.8004 11.0816 12.7888 11.1588 12.7792C11.3868 12.7503 11.6186 12.7445 11.8504 12.7464ZM11.9547 12.8121C11.947 12.8199 11.9335 12.8199 11.9257 12.8121C11.916 12.8044 11.9083 12.7967 11.8987 12.7889C11.6533 12.785 11.406 12.7909 11.1627 12.8198C11.1143 12.8256 11.066 12.8352 11.0178 12.843C11.2071 12.9029 11.3829 12.9685 11.5413 13.04C12.0455 12.9377 12.5825 12.8855 13.1467 12.8855C12.9477 12.8449 12.7429 12.8295 12.542 12.8179C12.3488 12.8063 12.1537 12.7966 11.9585 12.7908C11.9605 12.7986 11.9605 12.8063 11.9547 12.8121ZM13.4654 12.9782C13.419 12.9589 13.3688 12.9454 13.3205 12.9299C12.7178 12.9184 12.144 12.9666 11.6089 13.0709C12.0532 13.2776 12.3855 13.5307 12.6231 13.8456C12.9573 14.288 13.0983 14.8753 13.0056 15.42C13.3185 15.279 13.6353 15.0994 13.9039 14.8579C14.0971 14.684 14.2111 14.5159 14.2555 14.344C14.2845 14.228 14.2845 14.0929 14.2535 13.946C14.1667 13.5211 13.8653 13.1502 13.4654 12.9782ZM13.931 14.8888C13.5272 15.2539 13.0192 15.476 12.5729 15.6441C11.6958 15.9764 10.8961 16.1444 10.1775 16.1444C9.65203 16.1444 9.17097 16.0555 8.73634 15.8759C8.41178 15.7426 8.21859 15.5726 8.14909 15.3601C8.08147 15.1515 8.13365 14.9061 8.31328 14.6125C8.51997 14.2725 8.78465 13.9692 9.08797 13.7084C8.05634 14.0407 7.02865 14.427 6.03565 14.8617C5.88303 14.9274 5.74397 14.997 5.62415 15.082C5.66472 15.0685 5.70528 15.0569 5.74584 15.0511C6.11484 14.997 6.52434 15.1689 6.81415 15.5032C7.09428 15.8277 7.23334 16.2469 7.32609 16.5773C7.52703 17.3037 7.62359 18.0938 7.61584 18.9264C7.6139 19.0945 7.61003 19.2896 7.56559 19.4789C7.50572 19.732 7.38015 19.9638 7.2584 20.186C7.17728 20.3386 7.07297 20.5279 6.90103 20.6322C6.76772 20.7114 6.6074 20.7289 6.47797 20.7289C6.44703 20.7289 6.41809 20.7269 6.39103 20.7269C6.36784 20.725 6.34853 20.7211 6.32728 20.7192C6.73878 20.8621 7.16184 20.9974 7.60228 21.0051C7.8824 21.0109 8.1664 20.9607 8.45615 20.9047C10.7009 20.4797 12.8974 19.8402 15.0224 19.0057C15.0166 18.9999 15.0127 18.9941 15.007 18.9902C14.9992 18.9805 15.0012 18.969 15.0089 18.9612C15.0167 18.9515 15.0302 18.9535 15.0379 18.9612C15.0476 18.9709 15.0553 18.9805 15.063 18.9883C15.915 18.6541 16.7553 18.289 17.5802 17.8891C16.4385 16.7802 15.3258 15.6444 14.2498 14.4833C14.1879 14.6184 14.0836 14.7536 13.931 14.8888ZM8.75178 15.8374C9.44528 16.1232 10.2586 16.1774 11.184 16.0015C11.2728 15.0762 10.8537 14.1161 10.1157 13.55C9.67715 13.7587 9.2869 14.0175 8.95272 14.3247C8.7499 14.5102 8.5644 14.7169 8.40022 14.939C8.30559 15.0646 8.21672 15.2037 8.20897 15.3563C8.20897 15.364 8.20509 15.3679 8.19928 15.3717C8.27072 15.5611 8.45234 15.7137 8.75178 15.8374ZM11.2264 15.9938C11.6475 15.9127 12.0918 15.7832 12.5574 15.6055C12.6927 15.5552 12.8317 15.4973 12.9708 15.4355C12.967 15.4316 12.9631 15.4239 12.9631 15.4162C13.0578 14.883 12.9167 14.3054 12.5903 13.8727C12.3468 13.55 12.003 13.2931 11.5374 13.0825C11.0409 13.1849 10.5792 13.3356 10.16 13.5307C10.8942 14.1045 11.3095 15.0646 11.2264 15.9938ZM19.6009 22.164C19.2493 21.5072 19.0755 20.7674 18.9074 20.0525C18.8147 19.6565 18.7162 19.2489 18.5906 18.8548C18.38 18.6577 18.1714 18.4569 17.9628 18.2559C18.0304 18.424 18.0903 18.5959 18.1405 18.7698C18.214 19.0267 18.27 19.2933 18.324 19.5522C18.3588 19.7164 18.3955 19.8864 18.4342 20.0544C18.6061 20.7654 18.8707 21.4589 19.1277 22.1292C19.1818 22.2702 19.2378 22.415 19.3402 22.529C19.4503 22.6507 19.6029 22.7068 19.7323 22.672C19.8463 22.6392 19.9333 22.5387 20.0028 22.4595L21.1368 21.1652C21.0557 21.0937 20.9765 21.0222 20.8953 20.9527C20.6982 21.1207 20.5398 21.3217 20.3853 21.5187C20.1979 21.7582 20.0047 22.0055 19.7382 22.1871C19.7265 22.1968 19.6976 22.2161 19.6686 22.2161C19.6589 22.2161 19.6473 22.2122 19.6377 22.2084C19.6183 22.1969 19.6086 22.1795 19.6009 22.164ZM18.9479 20.0429C19.116 20.7558 19.2898 21.4918 19.6376 22.1447C19.6453 22.1563 19.6511 22.1679 19.6588 22.1718C19.6704 22.1776 19.6878 22.1718 19.7148 22.1544C19.9757 21.9747 20.1592 21.741 20.3523 21.4918C20.5069 21.2967 20.6653 21.0958 20.8643 20.9239C20.1186 20.267 19.3807 19.5967 18.6523 18.9129C18.7683 19.2857 18.861 19.6701 18.9479 20.0429ZM25.6494 8.51573C25.3365 9.01417 24.9578 9.41792 24.556 9.84673C24.1908 10.237 23.7755 10.6794 23.2346 10.8802C23.0607 10.9459 22.8772 10.9845 22.7014 11.0193C21.2525 11.3187 19.7785 11.593 18.32 11.8365C18.3413 11.8519 18.3606 11.8693 18.3818 11.8848C19.6935 12.897 21.1385 13.7625 22.5353 14.599C22.6918 14.6917 22.8482 14.7864 23.0047 14.8791C23.8219 14.4985 24.6448 14.0948 25.4485 13.6794C24.979 13.5654 24.5135 13.4418 24.0556 13.3201C23.7909 13.2486 23.5147 13.1772 23.2578 13.0632L23.2307 13.0516C23.1496 13.0149 23.0839 12.9879 23.0762 12.9357C23.0703 12.9009 23.0935 12.8622 23.1457 12.8159C23.2288 12.7425 23.3505 12.6981 23.4567 12.6594C23.476 12.6536 23.4953 12.6459 23.5127 12.6401C24.1695 12.3948 24.8457 12.1745 25.5218 11.9852C25.9372 11.8693 26.3796 11.763 26.8007 11.8616C26.9108 11.8867 27.0171 11.9273 27.1195 11.9756C27.0789 11.0599 27.1175 10.1346 27.2315 9.22467L27.247 9.10298C27.3107 8.60842 27.3764 8.09454 27.2122 7.62704C27.1717 7.50729 27.0925 7.35854 26.9553 7.32954C26.8336 7.30442 26.7138 7.37979 26.6114 7.45898C26.229 7.75073 25.9063 8.10617 25.6494 8.51573ZM24.0904 15.5399C24.7955 15.9765 25.4987 16.4324 26.1787 16.896C26.453 17.0834 26.7718 17.3017 27.0673 17.5374C27.6933 18.0319 28.2535 18.6192 28.7944 19.1852C28.7983 19.191 28.8002 19.1968 28.8002 19.2026C28.7983 19.2104 28.7944 19.2161 28.7887 19.218C28.1995 19.5368 27.6064 19.8343 27.0075 20.1105C26.8607 20.2825 26.7332 20.4737 26.6096 20.6611C26.8955 20.9528 27.2471 21.1808 27.5871 21.401C27.9812 21.654 28.3888 21.9168 28.694 22.2819C28.7269 22.3205 28.7597 22.365 28.7558 22.4191C28.752 22.4944 28.6824 22.5408 28.6148 22.5737L21.9848 25.8984C21.8728 25.9544 21.7492 26.0162 21.6139 26.0162C21.6081 26.0162 21.6042 26.0162 21.5985 26.0162C21.4478 26.0123 21.3589 25.9022 21.27 25.7959C21.2353 25.7534 21.2024 25.7129 21.1657 25.68C21.0768 25.5969 20.9822 25.5158 20.8895 25.4366C20.8045 25.3632 20.7156 25.2879 20.6325 25.2106C19.3189 24.0167 18.154 22.6413 17.0297 21.3102C16.3922 20.5568 15.7315 19.7764 15.0515 19.0384C12.9207 19.8769 10.7165 20.5182 8.46397 20.947C8.18384 20.9992 7.91147 21.0475 7.63909 21.0475C7.62559 21.0475 7.61397 21.0475 7.60047 21.0455C7.10397 21.0378 6.63265 20.8717 6.17672 20.7094C6.16897 20.7075 6.16515 20.6997 6.16515 20.692C6.02797 20.6573 5.92753 20.5993 5.86184 20.5143C6.01253 21.2175 6.08209 21.94 6.05309 22.6567C6.0434 22.9059 6.02215 23.2014 5.93909 23.4874C5.91009 23.5839 5.86759 23.6902 5.77684 23.7501C5.72659 23.7829 5.66865 23.7945 5.60878 23.7945C5.53153 23.7945 5.45034 23.7752 5.37503 23.7501C5.17222 23.6864 4.97128 23.6033 4.85922 23.4314C4.77228 23.2942 4.75878 23.1223 4.74909 22.9851C4.64478 21.656 4.61384 20.3057 4.6544 18.9727C4.4554 18.963 4.25647 18.9283 4.06715 18.8375C3.73297 18.6752 3.59965 18.4299 3.70397 18.1633C3.75034 18.0397 3.83534 17.9218 3.97053 17.7904C4.12703 17.6339 4.27772 17.5045 4.41872 17.3982C4.32022 17.1317 4.20428 16.8689 4.09028 16.6159C3.96278 16.33 3.82947 16.0363 3.72515 15.733C3.42378 14.8618 3.2499 13.9577 3.20547 13.0439C3.1939 12.8024 3.19197 12.5224 3.30203 12.2789C3.40634 12.0529 3.65359 11.8442 3.92603 11.8771C4.21965 11.9138 4.43022 12.1881 4.55384 12.6943C4.79728 13.6892 4.91315 14.7092 4.98272 15.7272C5.05997 15.4722 5.25122 15.252 5.49272 15.1342C5.63565 15.0009 5.82303 14.9082 6.01815 14.8232C6.95509 14.4136 7.9229 14.0485 8.89659 13.7278C8.62615 13.5037 8.39815 13.2313 8.17797 12.9667L6.94547 11.485C6.91072 11.4425 6.87784 11.4 6.84309 11.3575C6.7059 11.1875 6.5649 11.0117 6.38528 10.8822C6.20753 10.7509 6.08972 10.5674 5.97572 10.3896L5.94284 10.3374C5.92934 10.3181 5.91197 10.291 5.91197 10.2582C5.9139 10.2042 5.96603 10.1694 6.00472 10.1481C6.54565 9.86217 7.15028 9.73854 7.73759 9.62073C7.68928 9.4681 7.64103 9.31742 7.59853 9.16673V9.16479C7.04797 8.61036 6.50509 7.96704 6.08015 7.22329C6.04728 7.16342 6.0164 7.10354 6.02222 7.03592C6.02997 6.91811 6.1439 6.83498 6.35065 6.79248L9.98053 6.06804C10.3186 6.00042 10.7378 5.91736 11.1029 6.06804C11.3038 6.14917 11.4642 6.29211 11.6419 6.45442C12.3393 7.10154 13.0618 7.77192 13.9098 8.35723C14.8815 9.02948 15.8011 9.78679 16.6897 10.5209C17.2055 10.9459 17.7387 11.3824 18.2757 11.8017C19.7458 11.5563 21.2314 11.28 22.6938 10.9787C22.8677 10.942 23.0492 10.9053 23.2212 10.8415C23.7524 10.6445 24.1639 10.206 24.5252 9.81961C24.925 9.39073 25.3037 8.98698 25.6147 8.49242C25.8736 8.08092 26.2 7.72161 26.5864 7.42604C26.6946 7.34104 26.826 7.25798 26.965 7.28886C27.1215 7.32167 27.2065 7.48398 27.2528 7.61342C27.419 8.09061 27.3533 8.60829 27.2876 9.10867L27.2722 9.23035C27.1582 10.1441 27.1195 11.0752 27.1601 11.9967C27.4248 12.132 27.6585 12.3232 27.871 12.499C28.0797 12.6709 28.3153 12.866 28.4641 13.1172C28.5549 13.2679 28.5935 13.4108 28.58 13.5422C28.5529 13.8126 28.3115 14 28.0854 14.0657C27.9811 14.0947 27.8729 14.1062 27.7628 14.1062C27.6218 14.1062 27.4807 14.0869 27.3436 14.0676C26.7273 13.9749 26.115 13.8416 25.5103 13.6947C24.7008 14.1139 23.8721 14.5215 23.0472 14.906C23.0723 14.9214 23.0975 14.935 23.1225 14.9504C23.5148 15.1863 23.8142 15.3679 24.0904 15.5399ZM22.9777 21.5555L22.9835 21.5614C23.4375 21.4629 23.8799 21.3179 24.2972 21.1711C25.7885 20.6457 27.2838 19.9811 28.7442 19.1949C28.211 18.6346 27.6585 18.057 27.0423 17.5702C26.7467 17.3345 26.4299 17.1162 26.1556 16.9307C25.4756 16.469 24.7724 16.0131 24.0673 15.5746C23.791 15.4046 23.4935 15.223 23.1013 14.9874C23.0685 14.9661 23.0357 14.9468 23.0028 14.9275C23.0009 14.9275 22.997 14.9294 22.9951 14.9314C22.9932 14.9314 22.9893 14.9333 22.9873 14.9333C22.9796 14.9333 22.9719 14.9275 22.968 14.9198C22.9661 14.9159 22.9661 14.9101 22.968 14.9063C22.8154 14.8155 22.6647 14.7247 22.514 14.6339C21.1154 13.7974 19.6704 12.932 18.3568 11.9197C18.3258 11.8946 18.295 11.8695 18.264 11.8463C18.2563 11.8463 18.2486 11.8482 18.2408 11.8502C18.2293 11.8521 18.2177 11.8444 18.2177 11.8328C18.2157 11.825 18.2196 11.8193 18.2254 11.8135C17.6942 11.402 17.1707 10.9712 16.6626 10.552C15.7759 9.81979 14.8563 9.06448 13.8865 8.39217C13.0346 7.80298 12.3121 7.13454 11.6128 6.48548C11.4389 6.32517 11.2805 6.18604 11.0873 6.10685C10.7338 5.96004 10.3204 6.04311 9.98815 6.10879L6.35828 6.83517C6.22884 6.86029 6.07234 6.91629 6.06272 7.03992C6.05884 7.09398 6.0859 7.14811 6.11678 7.20217C6.66347 8.16229 7.41109 8.96204 8.11622 9.60729L8.11815 9.60535C8.12972 9.60148 8.14134 9.60729 8.14522 9.61885C8.14715 9.6266 8.15103 9.63429 8.15297 9.64204C8.37897 9.84679 8.59922 10.0361 8.8059 10.21C9.21159 10.55 9.63465 10.8822 10.0423 11.2029C10.0481 11.2068 10.052 11.2087 10.0558 11.2126C10.0597 11.2126 10.0616 11.2126 10.0655 11.2145C10.0713 11.2165 10.0732 11.2223 10.0752 11.228C10.6914 11.711 11.325 12.2133 11.9162 12.7484C12.1267 12.7523 12.3373 12.7639 12.544 12.7755C12.8067 12.7909 13.0733 12.8102 13.3263 12.8875C13.3843 12.8895 13.4403 12.8895 13.4983 12.8914C13.5098 12.8914 13.5176 12.9011 13.5176 12.9127C13.5176 12.9242 13.5079 12.9339 13.4963 12.932C13.4828 12.932 13.4712 12.932 13.4577 12.932C13.4655 12.9359 13.4751 12.9378 13.4828 12.9397C13.8943 13.1175 14.2053 13.5 14.2942 13.9385C14.3252 14.0911 14.3252 14.2321 14.2962 14.3538C14.2884 14.3828 14.2749 14.4117 14.2652 14.4407C15.349 15.6075 16.4713 16.7531 17.6208 17.8697H17.6227C17.6343 17.8659 17.6459 17.8697 17.6517 17.8794C17.6537 17.8852 17.6517 17.8929 17.6498 17.8987C17.729 17.976 17.8101 18.0533 17.8913 18.1305C17.9028 18.1267 17.9145 18.1305 17.9183 18.1421C17.9222 18.1499 17.9242 18.1575 17.928 18.1653C18.1405 18.37 18.353 18.5729 18.5675 18.7757C18.5655 18.766 18.5694 18.7564 18.581 18.7525C18.5907 18.7487 18.6022 18.7545 18.6061 18.766C18.6138 18.7873 18.6196 18.8105 18.6273 18.8337C19.46 19.618 20.308 20.3849 21.1638 21.1345L21.1812 21.1152C21.189 21.1055 21.2025 21.1055 21.2102 21.1132C21.2199 21.121 21.2199 21.1345 21.2122 21.1422L21.1967 21.1615C21.2334 21.1944 21.2702 21.2272 21.3088 21.26C21.4575 21.3895 21.6256 21.5363 21.8265 21.6097C22.0583 21.6928 22.3172 21.6735 22.5394 21.6426C22.6747 21.6233 22.8098 21.5982 22.9432 21.5692C22.9432 21.5653 22.9451 21.5614 22.947 21.5576C22.9545 21.5478 22.968 21.5478 22.9777 21.5555ZM23.1728 12.8469C23.1342 12.8816 23.1149 12.9106 23.1168 12.9299C23.1227 12.9589 23.1825 12.984 23.2463 13.013L23.2753 13.0245C23.5303 13.1366 23.8027 13.21 24.0673 13.2795C24.5407 13.4051 25.0217 13.5326 25.5065 13.6505C25.5104 13.6485 25.5143 13.6466 25.5182 13.6447C25.5278 13.6389 25.5413 13.6427 25.5472 13.6544V13.6621C26.1422 13.805 26.7449 13.9345 27.3495 14.0253C27.5891 14.062 27.8422 14.091 28.074 14.0253C28.2865 13.9635 28.5125 13.7896 28.5376 13.5385C28.5511 13.4168 28.5144 13.2815 28.4294 13.1386C28.2826 12.8932 28.0604 12.7097 27.8441 12.5301C27.6335 12.3562 27.4017 12.1669 27.1428 12.0355C27.1428 12.0355 27.1428 12.0375 27.1409 12.0375C27.1332 12.0375 27.1274 12.0317 27.1235 12.0259C27.0173 11.9737 26.9072 11.9294 26.7913 11.9023C26.3798 11.8057 25.9432 11.91 25.5337 12.0259C24.8575 12.2133 24.1833 12.4335 23.5284 12.6789C23.5091 12.6847 23.4898 12.6924 23.4705 12.7001C23.3679 12.7368 23.2501 12.7792 23.1728 12.8469ZM23.5244 22.166C23.3447 21.9786 23.1593 21.7874 22.968 21.6077C22.829 21.6367 22.6879 21.6637 22.545 21.683C22.4947 21.6907 22.4426 21.6965 22.3885 21.7023L23.6925 22.956C23.7388 23.0005 23.7871 23.0545 23.8393 23.1125C23.9745 23.2613 24.1272 23.4332 24.2778 23.4796C24.4729 23.5434 24.726 23.4564 24.8554 23.2845C25.0119 23.0778 25.1432 22.8421 25.2688 22.6142C25.35 22.4693 25.433 22.3186 25.5219 22.1775C25.7305 21.8472 25.9662 21.5034 26.2425 21.1266C26.341 20.9914 26.4337 20.8504 26.5245 20.7132C26.6501 20.5219 26.7815 20.3287 26.9263 20.1472C26.6945 20.2534 26.4627 20.3577 26.2309 20.4582C26.2309 20.4601 26.2309 20.464 26.229 20.4659C26.0976 20.634 25.9913 20.8137 25.887 20.9894C25.8348 21.0764 25.7808 21.1652 25.7248 21.2541C25.5663 21.4995 25.4176 21.7545 25.2785 22.0114C25.1356 22.2741 24.983 22.5155 24.8227 22.7705C24.7667 22.8575 24.7106 22.9464 24.6546 23.0371C24.6411 23.0584 24.6082 23.1105 24.5561 23.1105C24.5542 23.1105 24.5522 23.1105 24.5483 23.1105C24.5232 23.1086 24.5039 23.0932 24.4865 23.0796C24.1407 22.8093 23.8277 22.4809 23.5244 22.166ZM24.413 23.5414C24.3608 23.5414 24.3126 23.5356 24.2662 23.5202C24.104 23.468 23.9475 23.2942 23.8083 23.1396C23.7562 23.0836 23.7079 23.0295 23.6635 22.987L22.3557 21.7274C22.3479 21.7216 22.3479 21.712 22.3518 21.7042C22.3035 21.7081 22.2552 21.71 22.2069 21.71C22.0736 21.71 21.9384 21.6946 21.8109 21.6482C21.6042 21.5729 21.4323 21.4242 21.2797 21.2909C21.243 21.2599 21.2062 21.2252 21.1676 21.1924L20.0355 22.4867C19.9602 22.5717 19.8694 22.676 19.7419 22.7107C19.7129 22.7204 19.684 22.7242 19.653 22.7242C19.5333 22.7242 19.4058 22.6644 19.3092 22.5562C19.201 22.4384 19.1411 22.2819 19.0889 22.1447C18.832 21.4724 18.5654 20.7769 18.3935 20.0641C18.3529 19.896 18.3182 19.726 18.2833 19.5599C18.2293 19.303 18.1732 19.0383 18.0998 18.7814C18.0438 18.5805 17.9723 18.3815 17.8912 18.1884C17.7985 18.0995 17.7058 18.0106 17.613 17.9199C16.7862 18.3197 15.9458 18.6849 15.0939 19.0229C15.77 19.757 16.4268 20.5336 17.0624 21.2832C18.1848 22.6123 19.3477 23.9877 20.6595 25.1797C20.7445 25.2569 20.8314 25.3323 20.9183 25.4057C21.0092 25.4849 21.1038 25.566 21.1946 25.6491C21.2332 25.6839 21.268 25.7283 21.3028 25.7689C21.3878 25.8732 21.4689 25.9698 21.6003 25.9736C21.6042 25.9755 21.608 25.9755 21.6138 25.9755C21.7374 25.9755 21.8592 25.9137 21.9653 25.8615L28.5953 22.5369C28.6533 22.5079 28.7113 22.4712 28.7151 22.4171C28.717 22.3785 28.69 22.3418 28.6629 22.3089C28.3615 21.9496 27.9558 21.6888 27.5637 21.4357C27.2237 21.2155 26.8721 20.9875 26.5862 20.6959C26.5765 20.7094 26.5688 20.7229 26.5592 20.7364C26.4683 20.8736 26.3757 21.0165 26.2771 21.1517C26.0008 21.5265 25.7652 21.8704 25.5565 22.2007C25.4696 22.3398 25.3865 22.4905 25.3054 22.6335C25.1779 22.8634 25.0465 23.099 24.8901 23.3096C24.7801 23.4545 24.5908 23.5414 24.413 23.5414ZM23.5534 22.137C23.8567 22.4519 24.1697 22.7764 24.5135 23.0469C24.5251 23.0584 24.5387 23.0681 24.5522 23.07C24.5734 23.07 24.5947 23.0546 24.6178 23.014C24.6738 22.9252 24.7299 22.8363 24.7859 22.7475C24.9482 22.4944 25.1008 22.2529 25.2418 21.9922C25.3809 21.7352 25.5316 21.4783 25.69 21.231C25.746 21.1441 25.7982 21.0533 25.8503 20.9664C25.947 20.808 26.0474 20.6437 26.1633 20.4873C25.547 20.75 24.9288 20.9934 24.3107 21.2098C23.8992 21.3547 23.4645 21.4976 23.0183 21.5962C23.2018 21.7719 23.3815 21.9554 23.5534 22.137Z" fill="#B35905"/>
<path d="M18.1 18.7815C18.044 18.5805 17.9725 18.3816 17.8914 18.1884C17.7986 18.0995 17.706 18.0107 17.6132 17.9199C17.5224 17.9624 17.4335 18.0069 17.3428 18.0474C17.5881 18.341 17.8528 18.6173 18.1271 18.882C18.1193 18.8491 18.1097 18.8144 18.1 18.7815ZM28.6632 22.309C28.3618 21.9497 27.9561 21.6889 27.564 21.4358C27.224 21.2155 26.8724 20.9876 26.5865 20.6959C26.5768 20.7094 26.5691 20.723 26.5595 20.7365C26.4686 20.8737 26.376 21.0166 26.2774 21.1518C26.0011 21.5265 25.7655 21.8704 25.5568 22.2008C25.4699 22.3399 25.3868 22.4905 25.3057 22.6335C25.1782 22.8634 25.0468 23.0991 24.8904 23.3097C24.7803 23.4545 24.591 23.5415 24.4132 23.5415C24.361 23.5415 24.3128 23.5357 24.2664 23.5202C24.1041 23.468 23.9476 23.2942 23.8085 23.1397C23.7563 23.0837 23.7081 23.0295 23.6636 22.987L22.3558 21.7275C22.3481 21.7217 22.3481 21.712 22.352 21.7043C22.3036 21.7082 22.2554 21.7101 22.2071 21.7101C22.0738 21.7101 21.9386 21.6947 21.8111 21.6483C21.6044 21.573 21.4325 21.4242 21.2798 21.2909C21.2431 21.26 21.2064 21.2252 21.1678 21.1924L21.0576 21.3199C21.1426 21.3895 21.2276 21.4609 21.3126 21.5324C21.1136 21.5904 20.9147 21.6502 20.7157 21.7102L20.0357 22.4868C19.9604 22.5718 19.8696 22.6761 19.7421 22.7109C19.7228 22.7167 19.7035 22.7205 19.6841 22.7224C20.2231 22.9813 21.1562 23.0006 21.6372 23.0895C22.0989 23.1745 22.5625 23.2537 23.0262 23.3271C23.4647 23.7946 23.9361 24.2215 24.4306 24.6253L28.5956 22.537C28.6536 22.508 28.7116 22.4713 28.7154 22.4172C28.7173 22.3785 28.6903 22.3419 28.6632 22.309ZM22.0564 22.7881C21.3957 22.7553 20.7061 22.7495 20.1188 22.4442C20.6558 22.2742 21.189 22.0907 21.7164 21.8975C21.7724 21.9497 21.8304 22.0019 21.8845 22.056C22.124 22.3013 22.3461 22.5621 22.5703 22.8229C22.3983 22.8094 22.2283 22.7958 22.0564 22.7881Z" fill="#DB181F"/>
<path d="M10.4289 11.5601C10.3323 11.6219 10.2474 11.6972 10.1662 11.7764C10.2222 11.8189 10.2782 11.8614 10.3342 11.9039C10.199 11.9464 10.0638 11.9889 9.93049 12.0353C9.92855 12.0372 9.92856 12.0372 9.92662 12.0392C9.81074 12.1744 9.6658 12.2942 9.52868 12.4101C9.48037 12.4507 9.43205 12.4912 9.38574 12.5318C9.78562 12.6381 10.1817 12.7617 10.5719 12.9027C10.6646 12.8737 10.7573 12.8506 10.8501 12.8312C10.8385 12.8293 10.8327 12.8177 10.8346 12.8061C10.8385 12.7946 10.8501 12.7887 10.8617 12.7926C10.8849 12.7984 10.9081 12.8081 10.9312 12.8139C11.0066 12.8004 11.0819 12.7887 11.1592 12.7791C11.2017 12.7733 11.2442 12.7694 11.2867 12.7656C10.8443 12.6555 10.4039 12.5454 9.96143 12.4353C10.0387 12.2962 10.2164 12.2556 10.3729 12.2267C10.4734 12.2074 10.5739 12.1861 10.6762 12.1649C10.9332 12.3619 11.1862 12.5551 11.4451 12.756H11.4471C11.5804 12.7463 11.7156 12.7444 11.8508 12.7463C11.3929 12.3328 10.9099 11.9406 10.4289 11.5601Z" fill="#DB181F"/>
<path d="M10.0246 11.2416C9.98014 11.315 9.93377 11.3884 9.88358 11.4599L8.33039 10.1578C8.28014 10.013 8.22995 9.86808 8.18164 9.72314C8.38639 9.90858 8.58927 10.0825 8.77858 10.2428C9.1862 10.5809 9.60733 10.9131 10.0169 11.2358C10.0188 11.2377 10.0226 11.2396 10.0246 11.2416Z" fill="#DB181F"/>
<path d="M18.3821 11.8848C18.3609 11.8693 18.3416 11.852 18.3203 11.8365C18.3976 11.823 18.4768 11.8113 18.5541 11.7959C18.6197 11.8442 18.6854 11.8906 18.7511 11.935C19.5837 12.5029 20.4608 12.8043 21.3475 13.2641C22.325 13.7721 23.2194 14.1682 24.3129 13.6273C24.0598 13.4766 23.8067 13.3259 23.5537 13.1752C23.7198 13.2312 23.8898 13.2756 24.0559 13.3201C24.5138 13.4418 24.9794 13.5654 25.4488 13.6794C24.6452 14.0947 23.8222 14.4985 23.0051 14.8791C22.8486 14.7863 22.6921 14.6917 22.5356 14.599C21.1388 13.7625 19.6938 12.897 18.3821 11.8848Z" fill="#ED343A"/>
<path d="M28.7443 19.1947C27.2839 19.981 25.7886 20.6455 24.2973 21.171C23.88 21.3178 23.4376 21.4627 22.9836 21.5612C22.9817 21.5593 22.9798 21.5573 22.9778 21.5554C22.9681 21.5477 22.9546 21.5477 22.947 21.5573C22.945 21.5612 22.9431 21.5651 22.9431 21.5689C22.8098 21.5979 22.6746 21.623 22.5393 21.6423C22.3171 21.6732 22.0583 21.6926 21.8265 21.6095C21.6255 21.536 21.4575 21.3892 21.3087 21.2598C21.2701 21.2269 21.2334 21.1941 21.1966 21.1613L21.2121 21.142C21.2198 21.1342 21.2198 21.1207 21.2101 21.113C21.2024 21.1052 21.1889 21.1052 21.1811 21.1149L21.1638 21.1342C21.0478 21.0318 20.932 20.9295 20.816 20.8251C21.4323 20.9313 22.0756 20.914 22.6918 20.8077C23.8316 20.6126 24.9038 20.1412 25.9643 19.6757C26.4183 19.4747 26.9322 19.2023 27.0249 18.7136C27.0945 18.333 26.8703 17.9563 26.598 17.6782C26.1498 17.2203 25.5645 16.9247 25.0042 16.6137C23.9011 16.0013 22.856 15.2943 21.8109 14.5892C21.2062 14.1815 20.5919 13.7894 19.9911 13.3798C19.4676 13.0244 18.805 12.6786 18.3549 12.2517C17.872 11.7938 17.3832 11.3302 16.9756 10.8086C17.3832 11.1447 17.8024 11.4847 18.2255 11.8132C18.2196 11.819 18.2158 11.8247 18.2177 11.8325C18.2177 11.844 18.2293 11.8518 18.2409 11.8498C18.2486 11.8479 18.2563 11.846 18.2641 11.846C18.295 11.8692 18.3259 11.8943 18.3568 11.9194C19.6705 12.9317 21.1155 13.7972 22.5141 14.6336C22.6648 14.7244 22.8155 14.8152 22.9681 14.906C22.9661 14.9098 22.9661 14.9157 22.9681 14.9195C22.972 14.9272 22.9796 14.933 22.9874 14.933C22.9893 14.933 22.9932 14.931 22.9951 14.931C22.9971 14.9291 23.001 14.9272 23.0029 14.9272C23.0358 14.9465 23.0686 14.9658 23.1014 14.987C23.4936 15.2227 23.7911 15.4043 24.0673 15.5743C24.7725 16.0128 25.4756 16.4687 26.1556 16.9304C26.43 17.1158 26.7468 17.3342 27.0423 17.5698C27.6586 18.0568 28.2111 18.6345 28.7443 19.1947Z" fill="#ED343A"/>
<path d="M27.0425 11.9408C26.8803 11.7534 26.7643 11.5448 26.774 11.2782C26.8165 9.96067 26.8609 8.64123 26.9034 7.32373C26.9208 7.32373 26.9382 7.32567 26.9556 7.32954C27.0928 7.35854 27.172 7.50729 27.2126 7.62704C27.3768 8.09454 27.3111 8.60842 27.2473 9.10298L27.2319 9.22467C27.1179 10.1345 27.0793 11.0599 27.1198 11.9756C27.0946 11.964 27.0676 11.9524 27.0425 11.9408Z" fill="#ED343A"/>
<path d="M23.3503 13.0555C23.2827 13.0149 23.215 12.9744 23.1475 12.9338C24.3935 13.3028 25.6743 13.5559 26.9667 13.693C27.156 13.7142 27.3511 13.7316 27.5326 13.6776C27.7162 13.6235 27.8861 13.4844 27.919 13.297C28.0195 12.7232 27.4901 12.4122 27.1173 12.0239C27.1193 12.0239 27.1212 12.0259 27.1231 12.0259C27.127 12.0317 27.1328 12.0374 27.1405 12.0374C27.1425 12.0374 27.1425 12.0355 27.1425 12.0355C27.4013 12.1669 27.6331 12.3562 27.8437 12.5301C28.0601 12.7097 28.2822 12.8932 28.429 13.1386C28.514 13.2815 28.5507 13.4167 28.5372 13.5384C28.5121 13.7896 28.2861 13.9634 28.0736 14.0252C27.8418 14.0909 27.5887 14.0619 27.3491 14.0252C26.7445 13.9344 26.1418 13.805 25.5468 13.6621V13.6543C25.541 13.6427 25.5275 13.6389 25.5178 13.6446C25.5139 13.6466 25.51 13.6485 25.5061 13.6504C25.0213 13.5326 24.5402 13.4051 24.067 13.2795C23.8275 13.2177 23.5821 13.1501 23.3503 13.0555Z" fill="#ED343A"/>
<path d="M17.5801 17.8887C16.7552 18.2886 15.9148 18.6537 15.0629 18.9879C15.0551 18.9802 15.0475 18.9705 15.0378 18.9608C15.03 18.9531 15.0165 18.9512 15.0088 18.9608C15.001 18.9686 14.9991 18.9802 15.0068 18.9898C15.0126 18.9937 15.0165 18.9995 15.0223 19.0053C12.8973 19.8398 10.7008 20.4793 8.45602 20.9043C8.16627 20.9603 7.88227 21.0105 7.60215 21.0047C7.16171 20.997 6.73865 20.8618 6.32715 20.7188C6.3484 20.7207 6.36771 20.7246 6.3909 20.7265C6.41796 20.7265 6.4469 20.7285 6.47784 20.7285C6.60727 20.7285 6.76759 20.7111 6.9009 20.6318C7.07284 20.5275 7.17715 20.3382 7.25827 20.1856C7.34134 20.033 7.42827 19.8746 7.49202 19.7084C7.91702 19.778 8.34396 19.8224 8.76121 19.8012C9.53971 19.7606 10.3434 19.5945 11.1065 19.436C12.0608 19.239 13.0035 18.9685 13.898 18.5841C14.7499 18.217 15.6598 18.0181 16.4267 17.4637C15.7738 16.6156 15.1208 15.7675 14.4678 14.9195C13.782 15.7096 12.677 15.9568 11.6493 16.1442C11.0988 16.2447 10.5424 16.3413 9.98409 16.3027C9.50115 16.2698 9.01046 16.1249 8.63184 15.8293C8.66465 15.8448 8.69946 15.8603 8.73615 15.8757C9.17084 16.0553 9.65184 16.1442 10.1773 16.1442C10.8959 16.1442 11.6957 15.9762 12.5727 15.6439C13.019 15.4758 13.527 15.2537 13.9308 14.8886C14.0834 14.7533 14.1877 14.6182 14.2495 14.4829C15.3256 15.644 16.4383 16.7798 17.5801 17.8887Z" fill="#ED343A"/>
<path d="M11.1912 15.5921C11.1989 15.7293 11.197 15.8645 11.1834 16.0017C10.258 16.1775 9.4448 16.1233 8.75123 15.8375C8.56773 15.7622 8.43055 15.6752 8.33398 15.5767C8.94055 15.9225 9.69011 15.965 10.3779 15.8239C10.6502 15.7679 10.9246 15.6907 11.1912 15.5921Z" fill="#68C7F2"/>
<path d="M12.9633 15.4161C12.9633 15.4239 12.9671 15.4316 12.971 15.4355C12.8319 15.4973 12.6928 15.5552 12.5576 15.6055C12.092 15.7832 11.6477 15.9126 11.2266 15.9938C11.2381 15.8547 11.2401 15.7156 11.2304 15.5765C11.7868 15.366 12.3103 15.0588 12.7276 14.6415C12.7875 14.5816 12.8416 14.5218 12.8918 14.46C12.9922 14.769 13.0193 15.0993 12.9633 15.4161Z" fill="#68C7F2"/>
<path d="M14.2558 14.3439C14.2114 14.5159 14.0974 14.6839 13.9042 14.8578C13.6357 15.0993 13.3189 15.2789 13.0059 15.42C13.0619 15.0877 13.033 14.7419 12.9248 14.4212C13.2726 13.9924 13.4464 13.5056 13.4908 12.9897C13.8791 13.1656 14.1689 13.5307 14.2539 13.946C14.2848 14.0928 14.2848 14.228 14.2558 14.3439Z" fill="#68C7F2"/>
<path d="M8.92315 14.294C8.87096 14.3404 8.82271 14.3887 8.77246 14.4389C8.99077 14.0757 9.23802 13.7184 9.5819 13.473C9.63402 13.4363 9.68815 13.4015 9.74221 13.3706C9.84071 13.3822 9.95277 13.4324 10.0764 13.5213C9.64177 13.73 9.2554 13.9889 8.92315 14.294Z" fill="#ADE6FF"/>
<path d="M10.9654 14.6572C10.5636 14.8678 10.1232 15.0224 9.69428 15.173C9.13985 15.3662 8.28597 15.3547 8.67235 14.607C8.76122 14.5085 8.85585 14.4139 8.95247 14.325C9.28666 14.0178 9.67691 13.759 10.1154 13.5503C10.4882 13.8362 10.7799 14.2245 10.9654 14.6572Z" fill="#ADE6FF"/>
<path d="M10.1234 13.5003C10.0075 13.4133 9.89934 13.3593 9.80078 13.338C10.2103 13.1178 10.6894 13.0328 11.153 12.9536L11.1936 12.9478C11.2921 12.9806 11.3848 13.0173 11.4718 13.054C10.987 13.1583 10.5349 13.3071 10.1234 13.5003Z" fill="#ADE6FF"/>
<path d="M11.5411 13.0402C11.458 13.0035 11.3711 12.9668 11.2783 12.934C11.4097 12.9127 11.543 12.9012 11.6743 12.9205C11.7419 12.9302 11.8115 12.9495 11.8733 12.9804C11.7613 12.9977 11.6492 13.019 11.5411 13.0402Z" fill="#ADE6FF"/>
<path d="M11.5375 13.0825C11.7713 13.1888 11.9741 13.3047 12.1499 13.438C12.1364 13.6331 12.0147 13.8301 11.8775 13.9808C11.6283 14.2551 11.3289 14.4656 11.0024 14.6376C10.817 14.2068 10.5291 13.8204 10.1602 13.5306C10.5793 13.3356 11.041 13.1849 11.5375 13.0825Z" fill="#ADE6FF"/>
<path d="M11.6084 13.0711C11.7166 13.0499 11.8248 13.0306 11.9349 13.0151C12.0064 13.0596 12.0643 13.1175 12.103 13.1909C12.1358 13.2547 12.1513 13.3204 12.1532 13.3899C11.9948 13.272 11.8132 13.1658 11.6084 13.0711Z" fill="#ADE6FF"/>
<path d="M4.0844 18.7987C4.02452 18.7697 3.93371 18.7176 3.8584 18.6441C4.08059 18.7001 4.30852 18.7369 4.53646 18.7523C5.02909 18.7851 5.58159 18.6905 5.8849 18.3002C6.0684 18.0626 6.1264 17.7574 6.16696 17.4561C6.19209 17.5488 6.20752 17.6434 6.22102 17.7323C6.25002 17.9274 6.27321 18.1283 6.29059 18.3254C6.29834 18.4162 6.30409 18.4973 6.27127 18.5688C6.24615 18.6248 6.19784 18.677 6.12252 18.7253C5.88877 18.8741 5.59321 18.8934 5.3324 18.9088C5.28796 18.9107 5.24352 18.9146 5.19909 18.9185C4.82427 18.9417 4.43602 18.9687 4.0844 18.7987Z" fill="#F59C12"/>
<path d="M7.02847 19.3222C6.93572 19.5309 6.65372 19.5965 6.43734 19.5212C6.22291 19.4459 6.06066 19.2682 5.91384 19.0943C6.16109 19.5908 6.31953 20.1317 6.38522 20.6842C6.13216 20.6707 5.96216 20.5972 5.87522 20.4678C5.86941 20.4581 5.85784 20.4562 5.85009 20.46C5.73416 19.9442 5.57384 19.4362 5.36522 18.9513L5.36328 18.9494C5.62216 18.932 5.90997 18.9107 6.14566 18.76C6.22872 18.706 6.28091 18.6499 6.30984 18.5862C6.34459 18.505 6.34078 18.4142 6.33303 18.3215C6.31566 18.1225 6.29247 17.9235 6.26347 17.7265C6.24609 17.6087 6.22484 17.483 6.18428 17.3652C6.57834 17.8617 6.98403 18.393 7.05553 19.0227C7.06709 19.1232 7.06903 19.2295 7.02847 19.3222Z" fill="#9795C9"/>
<path d="M5.98202 17.091C5.99552 17.1045 6.00908 17.12 6.0187 17.1355C5.74439 17.3519 5.45652 17.5373 5.11845 17.6069C5.10495 17.6107 5.08752 17.6146 5.07402 17.6146C5.0682 17.4465 5.06245 17.2804 5.05664 17.1124H5.05858C5.08177 17.0989 5.10689 17.0834 5.13583 17.0699C5.2807 17.0409 5.42945 17.0061 5.55308 16.9404C5.56464 16.9385 5.57627 16.9385 5.58595 16.9385H5.59177C5.75408 16.9384 5.88927 16.9905 5.98202 17.091Z" fill="#F59C12"/>
<path d="M6.78305 15.5321C7.00137 15.7871 7.13462 16.1039 7.22349 16.3879C7.17518 16.3667 7.12693 16.3493 7.07668 16.3532C7.02643 16.357 6.98005 16.384 6.93762 16.4111C6.62274 16.6101 6.34262 16.8767 6.05093 17.1085C6.03937 17.0911 6.0258 17.0776 6.0123 17.0621C5.91568 16.9597 5.78049 16.9037 5.62012 16.8979C5.71668 16.8342 5.79012 16.7414 5.82105 16.612C5.85005 16.4961 5.8423 16.3724 5.8848 16.2585C5.92343 16.1522 6.00262 16.0633 6.07993 15.9803C6.23449 15.8122 6.4508 15.4742 6.68649 15.4336H6.68843C6.72124 15.4645 6.75218 15.4973 6.78305 15.5321Z" fill="#9795C9"/>
<path d="M8.49916 16.5116C8.49529 16.67 8.37941 16.8323 8.22098 16.8458C8.12441 16.8535 8.0336 16.8072 7.9486 16.7627C7.72454 16.6468 7.50235 16.5309 7.27829 16.415C7.18554 16.1175 7.05035 15.7775 6.81466 15.5032C6.79148 15.4761 6.76829 15.451 6.74316 15.4279C6.86873 15.4201 6.99623 15.4549 7.11985 15.4897C7.5526 15.6133 8.00848 15.7524 8.30985 16.0866C8.4161 16.2045 8.5011 16.3513 8.49916 16.5116Z" fill="#ED343A"/>
<path d="M4.5132 12.7041C4.88989 14.2476 4.96527 15.8549 5.02514 17.4177C4.86095 16.1891 4.69864 14.9604 4.53639 13.7298C4.46683 13.2063 4.39733 12.6827 4.29102 12.167C4.38377 12.2964 4.4572 12.4761 4.5132 12.7041Z" fill="#ED3F00"/>
<path d="M6.0126 22.655C6.00873 22.769 6.00104 22.8926 5.98554 23.022C5.9701 23.1708 5.94304 23.3253 5.8986 23.476C5.87154 23.5649 5.83485 23.6634 5.75373 23.7156C5.65135 23.7813 5.51223 23.7503 5.3886 23.7117C5.29585 23.6827 5.20123 23.648 5.11816 23.6016C5.17223 23.617 5.22829 23.6248 5.28235 23.6132C5.51223 23.5648 5.55085 23.2597 5.53929 23.0259C5.46585 21.6562 5.38473 20.3137 5.22635 18.9575C5.2611 18.9555 5.29398 18.9536 5.32873 18.9517C5.32485 18.9575 5.32485 18.9632 5.32679 18.969C5.82323 20.1243 6.06085 21.3993 6.0126 22.655Z" fill="#ED3F00"/>
<path d="M5.24723 23.1825C5.14173 22.5559 5.0601 21.902 5.04779 21.2656C5.03541 20.6258 5.10604 20.0026 4.96823 19.3764C4.95491 19.3159 4.85929 19.3159 4.84598 19.3764C4.67416 20.1571 4.67654 20.9777 4.73948 21.7731C4.7716 22.1789 4.65591 23.1357 5.1136 23.3162C5.19879 23.3498 5.25935 23.2544 5.24723 23.1825Z" fill="#FF6B36"/>
<path d="M4.15915 14.5964C4.01027 14.0029 3.67215 13.1519 3.82565 12.5488C3.86008 12.4134 3.6624 12.3203 3.5939 12.4511C3.29152 13.0291 3.54877 13.8112 3.69327 14.3994C3.8724 15.1286 3.88508 16.0745 4.39133 16.6653C4.46352 16.7495 4.5709 16.6553 4.55783 16.5683C4.4579 15.9016 4.32427 15.2548 4.15915 14.5964Z" fill="#FF6B36"/>
</svg>
