<svg width="35" height="17" viewBox="0 0 35 17" fill="none" xmlns="http://www.w3.org/2000/svg">
<path d="M34.5426 3.38994C33.9427 2.07735 33.5027 0.955636 33.3416 0.686673C32.883 -0.0892323 32.2 -0.0470905 31.6138 0.0545456C30.0508 0.323509 29.441 0.598671 26.6856 1.33119C26.2803 1.44275 25.5156 1.66709 25.0942 1.52083C23.9787 1.13908 23.6403 0.832929 23.1048 0.893663C22.2793 0.991581 20.5751 1.7898 18.7246 3.14205C18.1457 3.55851 18.2127 4.05678 18.1048 4.38152C18.0974 4.41108 18.1012 4.44234 18.1153 4.46932C18.1295 4.4963 18.1531 4.51711 18.1817 4.52777H18.204C18.473 4.55504 21.4092 4.81037 21.5431 4.82896C21.5231 4.81859 21.5063 4.80295 21.4945 4.78373C21.4827 4.76451 21.4764 4.74244 21.4762 4.71989C21.4756 4.69926 21.4811 4.6789 21.4918 4.6613C21.5026 4.6437 21.5183 4.62961 21.5369 4.62073C22.3748 4.16957 25.4189 2.55702 27.257 1.83194C29.7719 0.840366 30.3792 0.727575 31.1428 0.655686C31.3464 0.644532 31.5505 0.647016 31.7538 0.663123C31.8252 0.667531 31.8938 0.692445 31.9514 0.734875C32.009 0.777306 32.0532 0.835452 32.0786 0.902339C32.4256 1.92118 33.442 4.22286 33.9799 4.98514C33.9521 5.03549 33.913 5.07871 33.8657 5.1114C33.8184 5.14409 33.7641 5.16536 33.7072 5.17353C33.5659 5.17353 33.2784 4.90953 33.0999 4.75212C33.08 4.73642 33.0558 4.72717 33.0306 4.72562C33.0053 4.72407 32.9802 4.73029 32.9586 4.74344C29.943 6.60264 27.7689 7.41325 27.4554 7.5248C27.4429 7.53033 27.4293 7.53319 27.4157 7.53319C27.402 7.53319 27.3885 7.53033 27.376 7.5248L25.8354 6.95093C25.9197 6.8501 25.9879 6.73678 26.0374 6.61503C26.0649 6.55465 26.0797 6.48925 26.0808 6.42291C26.0696 6.17502 25.8329 6.12172 25.7263 6.10809C25.316 6.05727 14.3084 4.43357 11.5481 4.16213C10.3768 4.03818 9.26249 4.64428 8.78034 5.27765V5.29376L10.3433 6.92614C10.3597 6.94405 10.3815 6.95623 10.4053 6.96092C10.4292 6.9656 10.4539 6.96253 10.4759 6.95217L11.7055 6.38573C11.7055 6.38573 11.874 6.90631 11.7166 6.99431C10.6953 7.56074 9.70622 8.05653 8.74935 8.55231C8.36512 8.75559 8.37751 9.13982 8.25357 9.68023C8.20151 9.91572 8.18044 10.1178 8.18044 10.1178C8.18044 10.1178 10.3185 9.0481 11.6323 8.41597C11.6548 8.40675 11.6794 8.4043 11.7032 8.40892C11.727 8.41355 11.7489 8.42505 11.7662 8.442C11.9534 8.64403 12.0141 8.68989 12.138 8.81384C12.1489 8.82466 12.1575 8.83751 12.1633 8.85165C12.1692 8.8658 12.1722 8.88096 12.1722 8.89627C12.1722 8.91158 12.1692 8.92673 12.1633 8.94088C12.1575 8.95502 12.1489 8.96787 12.138 8.97869C12.1301 8.98677 12.1209 8.99347 12.1108 8.99852C11.8009 9.16337 11.4811 9.33194 11.2357 9.47819C11.0411 9.59346 11.2357 9.98142 11.2357 9.98142L14.8041 8.29079C14.8041 8.29079 15.026 8.51017 14.6331 8.75435C14.0245 9.1361 8.3961 12.0055 7.91271 12.0228C6.63607 12.055 4.22779 9.65296 3.35768 9.28732C2.62392 8.97869 1.83314 9.48191 0.761003 10.1116C0.469729 10.2851 0.646973 10.704 0.646973 10.704L2.20126 9.91572C2.20126 9.91572 2.39338 10.1376 2.17771 10.2727C1.42536 10.7499 0.337107 11.2271 0.169779 11.3473C-0.078114 11.5233 0.0185643 12.3476 0.0185643 12.3476L1.48733 11.6621C1.50682 11.6524 1.52854 11.6479 1.5503 11.6492C1.57206 11.6505 1.5931 11.6575 1.61128 11.6696L4.76199 14.6691C4.96204 14.6208 5.1574 14.5548 5.34578 14.472L2.71812 11.677C2.69757 11.6516 2.68787 11.6192 2.69112 11.5867C2.69436 11.5542 2.7103 11.5243 2.73547 11.5035L2.75034 11.4923C3.01931 11.356 3.34033 11.2556 3.79521 11.6039C4.17697 11.8989 5.51311 12.9747 6.80587 12.8595C7.23721 12.8223 7.2434 12.9549 7.2434 12.9549C7.2434 12.9549 6.69432 13.2189 6.0436 13.5746C5.72134 13.7531 5.98287 14.2229 5.98287 14.2229C9.31331 12.8595 13.4197 11.1564 13.9898 10.9085C14.01 10.9 14.0322 10.897 14.054 10.8998C14.0757 10.9027 14.0964 10.9112 14.1138 10.9246L15.0768 11.6894C15.2132 11.8989 22.0624 9.26872 24.1757 8.20155C24.2997 8.14329 25.3681 8.19287 25.8874 8.18791C26.1254 8.18791 26.1167 8.29203 26.1167 8.29203C26.1167 8.29203 8.97618 15.1215 4.77067 14.969H4.76323L3.8671 15.3533C4.39263 15.7003 4.26745 16.3002 5.16234 15.8366C5.21564 15.9606 5.27761 16.0845 5.3433 16.2283C5.51683 16.6002 5.51683 16.6076 6.65466 16.2209C9.87726 15.1326 24.3393 10.8081 27.5793 9.46704C29.4087 8.7122 31.9385 7.66982 33.5151 6.69312C35.0768 5.73625 35.3879 5.24047 34.5426 3.38994ZM20.699 3.45688C20.5044 3.5957 19.2228 3.35648 19.2228 3.35648C19.2228 3.35648 20.6408 2.09594 21.9906 1.93481C22.3921 1.88647 23.204 2.2013 23.204 2.2013C23.204 2.2013 21.3956 2.95737 20.699 3.45688ZM25 2.20254L23.178 3.14205C23.178 3.14205 22.7541 2.88548 23.2313 2.66982C23.3552 2.61404 23.6341 2.45415 23.8609 2.3364C23.889 2.32159 23.9122 2.29905 23.9278 2.27144C23.9435 2.24384 23.9509 2.21233 23.9492 2.18065C23.9475 2.14896 23.9368 2.11843 23.9183 2.09265C23.8998 2.06688 23.8743 2.04694 23.8448 2.03521L22.4814 1.49108C22.61 1.38895 22.7608 1.31855 22.9217 1.2856C23.0825 1.25265 23.2489 1.25808 23.4073 1.30145C23.6043 1.36218 24.4286 1.70923 24.9702 1.93605C25.0071 1.94463 25.0391 1.9674 25.0593 1.99942C25.0795 2.03144 25.0862 2.07013 25.0781 2.1071C25.0735 2.12767 25.0643 2.14694 25.0512 2.16346C25.0381 2.17999 25.0214 2.19335 25.0025 2.20254H25ZM25.4586 6.63114C25.2801 6.89515 24.8636 7.38598 24.2513 7.28682C23.9526 7.236 11.796 4.76947 11.7662 4.76699C11.6807 4.74344 11.6918 4.56124 11.8468 4.57983L25.378 6.44522C25.3941 6.44847 25.4094 6.45487 25.423 6.46407C25.4365 6.47326 25.4482 6.48506 25.4572 6.49878C25.4662 6.5125 25.4723 6.52786 25.4753 6.54399C25.4783 6.56012 25.4781 6.57668 25.4747 6.59272C25.4714 6.6063 25.4659 6.61927 25.4586 6.63114ZM34.2439 1.08702L34.2067 1.0957C34.1947 1.10049 34.1837 1.10765 34.1745 1.11677L34.2984 1.08454L34.2439 1.08702Z" fill="#E30539"/>
</svg>
