<svg width="32" height="32" viewBox="0 0 32 32" fill="none" xmlns="http://www.w3.org/2000/svg">
<path d="M23.933 19.3435L31.6663 14.2535L22.4197 14.6835L25.683 6.0202L18.453 11.7969L15.9997 2.87354L13.5463 11.7969L6.31634 6.0202L9.57967 14.6835L0.333008 14.2535L8.06634 19.3435L1.72301 25.0502L7.64967 29.1235H24.3497L30.2763 25.0502L23.933 19.3435Z" fill="#FD7851"/>
<path d="M9.25634 18.7935H23.2563C24.2564 18.7938 25.2346 18.5006 26.0697 17.9502L31.6663 14.2535L22.4197 14.6835L25.683 6.01687L18.453 11.7969L15.9997 2.87354L13.5463 11.7969L6.33301 6.0202L9.59634 14.6869L0.333008 14.2535L5.52967 17.6669C6.63479 18.3992 7.9306 18.791 9.25634 18.7935Z" fill="#FDB465"/>
<path d="M13.0431 21.8037C9.73307 22.427 9.84974 22.387 9.6364 22.4903C9.42388 22.593 9.24457 22.7534 9.11901 22.9533C8.99344 23.1531 8.92669 23.3843 8.9264 23.6203V27.867C8.9264 28.0323 8.89379 28.196 8.83043 28.3487C8.76706 28.5014 8.6742 28.64 8.55716 28.7568C8.44011 28.8735 8.30118 28.966 8.14833 29.029C7.99548 29.0919 7.83171 29.1241 7.6664 29.1237H5.41307C5.20354 29.1254 4.99657 29.0777 4.80892 28.9844C4.62128 28.8912 4.45826 28.755 4.33307 28.587L2.96307 26.737C2.82245 26.5493 2.6229 26.4144 2.3964 26.3537L0.646401 25.8803C-0.690265 21.687 2.6664 16.667 7.71307 16.667C8.94909 16.6682 10.1622 17.0006 11.2262 17.6296C12.2902 18.2587 13.1662 19.1613 13.7631 20.2437C13.8453 20.3898 13.8917 20.5534 13.8984 20.721C13.9051 20.8886 13.872 21.0554 13.8017 21.2076C13.7314 21.3599 13.626 21.4933 13.4941 21.597C13.3622 21.7006 13.2077 21.7714 13.0431 21.8037Z" fill="#D92858"/>
<path d="M8.92681 24.7168V25.3835H6.39681C6.3084 25.3835 6.22362 25.3483 6.16111 25.2858C6.0986 25.2233 6.06348 25.1385 6.06348 25.0501C6.06348 24.9617 6.0986 24.8769 6.16111 24.8144C6.22362 24.7519 6.3084 24.7168 6.39681 24.7168H8.92681Z" fill="#D92858"/>
<path d="M12.9301 21.2066L9.83677 21.79C9.41261 21.8728 9.03054 22.1008 8.75621 22.4348C8.48187 22.7687 8.33239 23.1878 8.33344 23.62V27.8666C8.33349 28.0406 8.26555 28.2077 8.1441 28.3322C8.02266 28.4568 7.85734 28.529 7.68344 28.5333H5.41344C5.2987 28.5337 5.18548 28.507 5.08297 28.4555C4.98046 28.404 4.89155 28.329 4.82344 28.2366L3.4501 26.39C3.23055 26.088 2.91596 25.8685 2.55677 25.7666L1.13344 25.3866C0.803505 24.0286 0.946969 22.5987 1.5401 21.3333C3.84677 16.2666 10.6668 15.91 13.2334 20.5366C13.27 20.5988 13.291 20.6688 13.2949 20.7408C13.2987 20.8127 13.2852 20.8846 13.2554 20.9503C13.2257 21.0159 13.1806 21.0735 13.124 21.1181C13.0674 21.1627 13.0009 21.1931 12.9301 21.2066Z" fill="#FC4658"/>
<path d="M2.16622 23.8236C2.16234 23.9903 2.21487 24.1534 2.31531 24.2865C2.41574 24.4196 2.55818 24.5149 2.71955 24.5569C3.19288 24.6869 3.18288 24.7336 3.38622 24.7336H6.36622C6.56164 24.7336 6.74921 24.6567 6.88833 24.5194C7.02745 24.3822 7.10692 24.1957 7.10955 24.0003C7.06415 23.4181 7.16858 22.834 7.41288 22.3036C7.62031 21.8683 7.92776 21.4883 8.31012 21.1946C8.69247 20.9009 9.13888 20.7018 9.61288 20.6136L9.99955 20.5303C10.1479 20.5021 10.2842 20.4294 10.3903 20.3218C10.4963 20.2143 10.5671 20.077 10.5931 19.9282C10.6192 19.7794 10.5993 19.6263 10.5362 19.4891C10.473 19.3519 10.3695 19.2372 10.2395 19.1603C6.73622 17.1803 2.28288 19.8936 2.16622 23.8236Z" fill="#FC7371"/>
<path d="M9.66637 19.4835C9.73312 19.483 9.7977 19.4598 9.84945 19.4176C9.9012 19.3755 9.93703 19.3169 9.95101 19.2517C9.965 19.1864 9.95631 19.1183 9.92637 19.0587C9.89644 18.999 9.84706 18.9513 9.78637 18.9235C9.13102 18.6455 8.42693 18.5006 7.71505 18.4971C7.00317 18.4937 6.29771 18.6318 5.63971 18.9035C5.57383 18.9288 5.51898 18.9766 5.4848 19.0383C5.45062 19.1 5.4393 19.1719 5.45283 19.2411C5.46637 19.3104 5.50389 19.3727 5.55879 19.417C5.6137 19.4613 5.68248 19.4849 5.75304 19.4835H9.66637Z" fill="white"/>
<path d="M8.92669 25.0503V27.867C8.92669 28.0323 8.89408 28.196 8.83072 28.3486C8.76736 28.5013 8.67449 28.64 8.55745 28.7567C8.4404 28.8735 8.30147 28.966 8.14862 29.0289C7.99577 29.0919 7.832 29.1241 7.66669 29.1236H5.41336C5.20383 29.1253 4.99686 29.0776 4.80922 28.9844C4.62157 28.8911 4.45855 28.755 4.33336 28.587L2.96336 26.737C2.82274 26.5493 2.62319 26.4143 2.39669 26.3536L0.646693 25.8803C0.558182 25.6091 0.490212 25.3317 0.443359 25.0503H8.92669Z" fill="#FDB93A"/>
<path d="M13.823 27.5671H5.66634C5.57794 27.5671 5.49315 27.5319 5.43064 27.4694C5.36813 27.4069 5.33301 27.3221 5.33301 27.2337C5.33301 27.1453 5.36813 27.0605 5.43064 26.998C5.49315 26.9355 5.57794 26.9004 5.66634 26.9004H13.823C13.9114 26.9004 13.9962 26.9355 14.0587 26.998C14.1212 27.0605 14.1563 27.1453 14.1563 27.2337C14.1563 27.3221 14.1212 27.4069 14.0587 27.4694C13.9962 27.5319 13.9114 27.5671 13.823 27.5671Z" fill="#B3C4E9"/>
<path d="M13.1668 24.7171H10.2101C9.61681 22.4071 9.66681 22.5737 9.62348 22.4971C9.39557 22.6047 9.20683 22.7806 9.08348 23.0004L9.52014 24.7037H6.39681C6.3084 24.7037 6.22362 24.7389 6.16111 24.8014C6.0986 24.8639 6.06348 24.9487 6.06348 25.0371C6.06348 25.1255 6.0986 25.2103 6.16111 25.2728C6.22362 25.3353 6.3084 25.3704 6.39681 25.3704H9.69348L10.5268 28.6071C10.5888 28.8473 10.7289 29.0601 10.925 29.2122C11.121 29.3642 11.362 29.4468 11.6101 29.4471H12.8568C13.0954 29.446 13.3266 29.364 13.5125 29.2144C13.6984 29.0649 13.828 28.8566 13.8801 28.6237L14.4035 26.2404C14.4422 26.0564 14.4393 25.8661 14.3951 25.6834C14.3509 25.5007 14.2665 25.3301 14.148 25.1842C14.0295 25.0382 13.8799 24.9205 13.7102 24.8397C13.5405 24.7589 13.3548 24.717 13.1668 24.7171ZM13.7535 26.1104L13.2301 28.4937C13.2107 28.5784 13.1632 28.6541 13.0955 28.7085C13.0278 28.7629 12.9437 28.793 12.8568 28.7937H11.6101C11.511 28.7931 11.4149 28.7602 11.3361 28.7001C11.2573 28.6399 11.2002 28.5558 11.1735 28.4604L10.3801 25.3904H13.1668C13.2557 25.3906 13.3434 25.4105 13.4236 25.4487C13.5039 25.4869 13.5746 25.5425 13.6307 25.6114C13.6869 25.6803 13.727 25.7608 13.7482 25.8471C13.7695 25.9334 13.7713 26.0233 13.7535 26.1104Z" fill="#B3C4E9"/>
<path d="M9.97005 26.9004H12.8467C12.9351 26.9004 13.0199 26.9355 13.0824 26.998C13.1449 27.0605 13.1801 27.1453 13.1801 27.2337C13.1801 27.3221 13.1449 27.4069 13.0824 27.4694C13.0199 27.5319 12.9351 27.5671 12.8467 27.5671H9.97005C9.88165 27.5671 9.79686 27.5319 9.73435 27.4694C9.67184 27.4069 9.63672 27.3221 9.63672 27.2337C9.63672 27.1453 9.67184 27.0605 9.73435 26.998C9.79686 26.9355 9.88165 26.9004 9.97005 26.9004Z" fill="#DBF6FF"/>
<path d="M9.40267 24.7168H11.736C11.8244 24.7168 11.9092 24.7519 11.9717 24.8144C12.0342 24.8769 12.0693 24.9617 12.0693 25.0501C12.0693 25.1385 12.0342 25.2233 11.9717 25.2858C11.9092 25.3483 11.8244 25.3835 11.736 25.3835H9.40267C9.31426 25.3835 9.22948 25.3483 9.16697 25.2858C9.10446 25.2233 9.06934 25.1385 9.06934 25.0501C9.06934 24.9617 9.10446 24.8769 9.16697 24.8144C9.22948 24.7519 9.31426 24.7168 9.40267 24.7168Z" fill="#DBF6FF"/>
<path d="M9.37935 22.6668C8.24557 21.5862 6.77819 20.9231 5.21796 20.7862C3.65772 20.6493 2.09729 21.0468 0.792682 21.9135C0.77298 21.9232 0.751311 21.9282 0.729349 21.9282C0.707387 21.9282 0.685718 21.9232 0.666016 21.9135C0.702682 21.7901 0.746016 21.6635 0.792682 21.5401C2.15236 20.686 3.75843 20.3107 5.3558 20.4738C6.95318 20.6368 8.45029 21.3289 9.60935 22.4401C9.66602 22.5201 9.60935 22.4601 9.37935 22.6668Z" fill="#FDC821"/>
<path d="M5.67311 27.5669C6.53836 27.5669 7.23978 26.8655 7.23978 26.0003C7.23978 25.135 6.53836 24.4336 5.67311 24.4336C4.80787 24.4336 4.10645 25.135 4.10645 26.0003C4.10645 26.8655 4.80787 27.5669 5.67311 27.5669Z" fill="#B3C4E9"/>
<path d="M5.66634 27.0835C5.45142 27.0828 5.24152 27.0184 5.06318 26.8985C4.88485 26.7785 4.74609 26.6084 4.66445 26.4096C4.58282 26.2108 4.56197 25.9922 4.60454 25.7816C4.64712 25.5709 4.75121 25.3776 4.90365 25.2261C5.05608 25.0746 5.25003 24.9717 5.46095 24.9304C5.67187 24.8891 5.89029 24.9113 6.0886 24.9942C6.28691 25.077 6.45619 25.2168 6.57505 25.3959C6.69391 25.5749 6.757 25.7852 6.75634 26.0002C6.7559 26.1429 6.72736 26.2841 6.67234 26.4157C6.61733 26.5474 6.53692 26.667 6.4357 26.7676C6.33449 26.8682 6.21445 26.9478 6.08244 27.002C5.95043 27.0562 5.80904 27.0839 5.66634 27.0835Z" fill="#DBF6FF"/>
<path d="M5.67328 26.5604C5.98256 26.5604 6.23328 26.3097 6.23328 26.0004C6.23328 25.6912 5.98256 25.4404 5.67328 25.4404C5.364 25.4404 5.11328 25.6912 5.11328 26.0004C5.11328 26.3097 5.364 26.5604 5.67328 26.5604Z" fill="#5465A3"/>
<path d="M18.9596 21.8037C22.2696 22.427 22.1529 22.387 22.3629 22.4903C22.5763 22.5922 22.7565 22.7524 22.8828 22.9523C23.009 23.1523 23.0761 23.3839 23.0763 23.6203V27.867C23.0758 28.0321 23.108 28.1958 23.171 28.3484C23.234 28.5011 23.3266 28.6398 23.4434 28.7566C23.5601 28.8734 23.6988 28.9659 23.8515 29.0289C24.0042 29.0919 24.1678 29.1241 24.3329 29.1237H26.5896C26.7986 29.1248 27.0049 29.0769 27.1919 28.9837C27.3789 28.8904 27.5414 28.7546 27.6663 28.587L29.0396 26.737C29.1802 26.5493 29.3798 26.4144 29.6063 26.3537L31.3596 25.8803C32.6896 21.687 29.3329 16.667 24.2896 16.667C23.0536 16.6682 21.8405 17.0006 20.7765 17.6296C19.7125 18.2587 18.8365 19.1613 18.2396 20.2437C18.1566 20.3897 18.1096 20.5534 18.1025 20.7212C18.0954 20.889 18.1284 21.0561 18.1988 21.2086C18.2692 21.3611 18.3749 21.4947 18.5072 21.5982C18.6396 21.7016 18.7946 21.7721 18.9596 21.8037Z" fill="#D92858"/>
<path d="M23.0732 24.7168V25.3835H25.6032C25.6916 25.3835 25.7764 25.3483 25.8389 25.2858C25.9015 25.2233 25.9366 25.1385 25.9366 25.0501C25.9366 24.9617 25.9015 24.8769 25.8389 24.8144C25.7764 24.7519 25.6916 24.7168 25.6032 24.7168H23.0732Z" fill="#D92858"/>
<path d="M19.0694 21.2066L22.1628 21.79C22.5869 21.8728 22.969 22.1008 23.2433 22.4348C23.5177 22.7687 23.6671 23.1878 23.6661 23.62V27.8666C23.6661 28.0434 23.7363 28.213 23.8614 28.338C23.9864 28.4631 24.1559 28.5333 24.3328 28.5333H26.5894C26.7036 28.5332 26.8162 28.5063 26.918 28.4547C27.0199 28.4032 27.1083 28.3285 27.1761 28.2366L28.5494 26.39C28.772 26.0924 29.0876 25.8777 29.4461 25.78L30.8694 25.4C31.2009 24.0376 31.0574 22.603 30.4628 21.3333C28.1561 16.2666 21.3328 15.91 18.7694 20.5366C18.7329 20.5985 18.7118 20.6683 18.7077 20.7401C18.7037 20.8118 18.7169 20.8835 18.7463 20.9491C18.7757 21.0147 18.8204 21.0724 18.8766 21.1172C18.9328 21.162 18.9989 21.1926 19.0694 21.2066Z" fill="#FC4658"/>
<path d="M29.8326 23.8236C29.8373 23.99 29.7854 24.1531 29.6856 24.2862C29.5857 24.4194 29.4437 24.5148 29.2826 24.5569C28.8093 24.6869 28.8159 24.7336 28.6159 24.7336H25.6326C25.4372 24.7336 25.2496 24.6567 25.1105 24.5194C24.9714 24.3822 24.8919 24.1957 24.8893 24.0003C24.936 23.4184 24.8327 22.8342 24.5893 22.3036C24.3814 21.8687 24.0738 21.4889 23.6916 21.1953C23.3093 20.9016 22.8631 20.7023 22.3893 20.6136L21.9993 20.5303C21.8509 20.5021 21.7146 20.4294 21.6086 20.3218C21.5025 20.2143 21.4317 20.077 21.4057 19.9282C21.3796 19.7794 21.3995 19.6263 21.4627 19.4891C21.5258 19.3519 21.6293 19.2372 21.7593 19.1603C25.2626 17.1803 29.7159 19.8936 29.8326 23.8236Z" fill="#FC7371"/>
<path d="M22.3328 19.4835C22.2664 19.4823 22.2023 19.4585 22.1511 19.4161C22.0999 19.3737 22.0646 19.3152 22.0511 19.2501C22.0375 19.185 22.0465 19.1172 22.0765 19.0579C22.1065 18.9986 22.1557 18.9512 22.2162 18.9235C22.8715 18.6455 23.5756 18.5006 24.2875 18.4971C24.9994 18.4937 25.7048 18.6318 26.3628 18.9035C26.4256 18.9317 26.4769 18.9803 26.5084 19.0415C26.5399 19.1026 26.5496 19.1727 26.536 19.2401C26.5225 19.3075 26.4864 19.3684 26.4337 19.4126C26.3811 19.4568 26.3149 19.4818 26.2462 19.4835H22.3328Z" fill="white"/>
<path d="M23.0762 25.0503V27.867C23.0757 28.0321 23.1079 28.1957 23.1709 28.3484C23.2339 28.501 23.3265 28.6398 23.4433 28.7565C23.56 28.8733 23.6988 28.9659 23.8514 29.0289C24.0041 29.0919 24.1677 29.1241 24.3328 29.1236H26.5895C26.7985 29.1248 27.0048 29.0768 27.1918 28.9836C27.3788 28.8904 27.5413 28.7545 27.6662 28.587L29.0395 26.737C29.1801 26.5493 29.3797 26.4143 29.6062 26.3536L31.3595 25.8803C31.4454 25.6086 31.5122 25.3313 31.5595 25.0503H23.0762Z" fill="#FDB93A"/>
<path d="M18.1761 27.5671H26.3328C26.4212 27.5671 26.506 27.5319 26.5685 27.4694C26.631 27.4069 26.6661 27.3221 26.6661 27.2337C26.6661 27.1453 26.631 27.0605 26.5685 26.998C26.506 26.9355 26.4212 26.9004 26.3328 26.9004H18.1761C18.0877 26.9004 18.0029 26.9355 17.9404 26.998C17.8779 27.0605 17.8428 27.1453 17.8428 27.2337C17.8428 27.3221 17.8779 27.4069 17.9404 27.4694C18.0029 27.5319 18.0877 27.5671 18.1761 27.5671Z" fill="#B3C4E9"/>
<path d="M17.5965 26.2534L18.1199 28.6367C18.172 28.8696 18.3016 29.0779 18.4875 29.2274C18.6734 29.377 18.9046 29.459 19.1432 29.4601H20.3899C20.638 29.4598 20.879 29.3772 21.0751 29.2252C21.2711 29.0731 21.4112 28.8603 21.4732 28.6201L22.3065 25.3834H25.6032C25.6916 25.3834 25.7764 25.3483 25.8389 25.2858C25.9014 25.2233 25.9365 25.1385 25.9365 25.0501C25.9365 24.9617 25.9014 24.8769 25.8389 24.8144C25.7764 24.7519 25.6916 24.7167 25.6032 24.7167H22.4799L22.9165 23.0001C22.7954 22.7753 22.6064 22.5945 22.3765 22.4834C22.3365 22.5601 22.3765 22.3867 21.7899 24.7034H18.8332C18.6426 24.7031 18.4544 24.7458 18.2826 24.8283C18.1108 24.9109 17.9599 25.0311 17.841 25.1801C17.7221 25.3291 17.6384 25.503 17.5961 25.6888C17.5538 25.8746 17.5539 26.0676 17.5965 26.2534ZM18.8332 25.3834H21.6199L20.8265 28.4534C20.7998 28.5488 20.7427 28.6329 20.6639 28.6931C20.5852 28.7532 20.489 28.7861 20.3899 28.7867H19.1432C19.0563 28.7859 18.9722 28.7559 18.9045 28.7015C18.8368 28.6471 18.7894 28.5714 18.7699 28.4867L18.2465 26.1034C18.2288 26.0163 18.2306 25.9264 18.2518 25.8401C18.273 25.7538 18.3131 25.6733 18.3693 25.6044C18.4254 25.5355 18.4962 25.4799 18.5764 25.4417C18.6566 25.4035 18.7443 25.3836 18.8332 25.3834Z" fill="#B3C4E9"/>
<path d="M22.0293 26.9004H19.1527C19.0643 26.9004 18.9795 26.9355 18.917 26.998C18.8545 27.0605 18.8193 27.1453 18.8193 27.2337C18.8193 27.3221 18.8545 27.4069 18.917 27.4694C18.9795 27.5319 19.0643 27.5671 19.1527 27.5671H22.0293C22.1177 27.5671 22.2025 27.5319 22.265 27.4694C22.3275 27.4069 22.3627 27.3221 22.3627 27.2337C22.3627 27.1453 22.3275 27.0605 22.265 26.998C22.2025 26.9355 22.1177 26.9004 22.0293 26.9004Z" fill="#DBF6FF"/>
<path d="M22.5993 24.7168H20.266C20.1775 24.7168 20.0928 24.7519 20.0302 24.8144C19.9677 24.8769 19.9326 24.9617 19.9326 25.0501C19.9326 25.1385 19.9677 25.2233 20.0302 25.2858C20.0928 25.3483 20.1775 25.3835 20.266 25.3835H22.5993C22.6877 25.3835 22.7725 25.3483 22.835 25.2858C22.8975 25.2233 22.9326 25.1385 22.9326 25.0501C22.9326 24.9617 22.8975 24.8769 22.835 24.8144C22.7725 24.7519 22.6877 24.7168 22.5993 24.7168Z" fill="#DBF6FF"/>
<path d="M22.6201 22.667C23.7555 21.5885 25.2237 20.9279 26.7838 20.7934C28.344 20.6589 29.9036 21.0587 31.2068 21.927C31.227 21.9368 31.2493 21.9419 31.2718 21.9419C31.2943 21.9419 31.3165 21.9368 31.3368 21.927C31.2968 21.8037 31.2534 21.677 31.2101 21.5537C29.8499 20.6993 28.2433 20.3239 26.6453 20.4869C25.0474 20.65 23.5497 21.3422 22.3901 22.4537C22.3334 22.5204 22.3934 22.4604 22.6201 22.667Z" fill="#FDC821"/>
<path d="M26.3294 27.5669C27.1946 27.5669 27.896 26.8655 27.896 26.0003C27.896 25.135 27.1946 24.4336 26.3294 24.4336C25.4641 24.4336 24.7627 25.135 24.7627 26.0003C24.7627 26.8655 25.4641 27.5669 26.3294 27.5669Z" fill="#B3C4E9"/>
<path d="M26.3332 27.0835C26.5481 27.0828 26.758 27.0184 26.9363 26.8985C27.1147 26.7785 27.2534 26.6084 27.3351 26.4096C27.4167 26.2108 27.4375 25.9922 27.395 25.7816C27.3524 25.5709 27.2483 25.3776 27.0959 25.2261C26.9434 25.0746 26.7495 24.9717 26.5386 24.9304C26.3276 24.8891 26.1092 24.9113 25.9109 24.9942C25.7126 25.077 25.5433 25.2168 25.4245 25.3959C25.3056 25.5749 25.2425 25.7852 25.2432 26.0002C25.2436 26.1429 25.2721 26.2841 25.3272 26.4157C25.3822 26.5474 25.4626 26.667 25.5638 26.7676C25.665 26.8682 25.7851 26.9478 25.9171 27.002C26.0491 27.0562 26.1905 27.0839 26.3332 27.0835Z" fill="#DBF6FF"/>
<path d="M26.3295 26.5604C26.6388 26.5604 26.8895 26.3097 26.8895 26.0004C26.8895 25.6912 26.6388 25.4404 26.3295 25.4404C26.0203 25.4404 25.7695 25.6912 25.7695 26.0004C25.7695 26.3097 26.0203 26.5604 26.3295 26.5604Z" fill="#5465A3"/>
</svg>
