<svg width="32" height="32" viewBox="0 0 32 32" fill="none" xmlns="http://www.w3.org/2000/svg">
<g clip-path="url(#clip0_522_340)">
<path d="M31.9998 16.0002C32.0057 18.7704 31.2867 21.4943 29.9144 23.9008C29.7269 24.2318 29.5281 24.5573 29.3131 24.8773C29.0809 25.2323 28.8304 25.5748 28.5626 25.9035C28.3199 26.2179 28.055 26.527 27.7847 26.8248C27.4593 27.1781 27.1173 27.5145 26.764 27.84C26.4386 28.1381 26.0965 28.4249 25.7435 28.6898C25.4896 28.8939 25.2247 29.0814 24.9601 29.2635C24.5462 29.5394 24.1268 29.7987 23.691 30.0414H23.68C22.9447 30.4425 22.1791 30.7857 21.3903 31.0677C20.8085 31.2796 20.213 31.453 19.6083 31.5863C18.9708 31.7374 18.3239 31.8443 17.6718 31.9063C17.6317 31.9144 17.5912 31.92 17.5504 31.9227C17.0373 31.9725 16.5241 32.0001 15.9999 32.0001C7.16353 32.0001 0 24.8366 0 16.0002C0.000244139 14.3862 0.241942 12.7812 0.717281 11.2387C0.93017 10.5664 1.18652 9.90843 1.48412 9.26903C1.74144 8.71508 2.0288 8.17529 2.34496 7.65259L2.35594 7.63598C2.81883 6.88111 3.34471 6.16675 3.92844 5.50099C4.249 5.12428 4.59177 4.76686 4.95456 4.43044L4.96555 4.41945C5.47116 3.92678 6.01339 3.47317 6.58761 3.06228C6.94063 2.803 7.30489 2.56033 7.67452 2.3284C8.06074 2.09671 8.45796 1.88162 8.86079 1.68289C9.21772 1.49662 9.58417 1.32914 9.95868 1.18094H9.96405C10.3339 1.0264 10.7089 0.888466 11.0951 0.767128C11.4538 0.651162 11.8234 0.546426 12.193 0.458048C16.9657 -0.708693 22.0096 0.3809 25.8748 3.41384C29.7401 6.44678 31.9983 11.0871 31.9998 16.0002Z" fill="#C03A2B"/>
<path d="M26.7641 27.8397C26.4387 28.1378 26.0966 28.4246 25.7436 28.6895C14.6109 27.2354 6.29181 17.7375 6.31744 6.51023C6.315 5.35545 6.40533 4.20238 6.5877 3.06201C6.94073 2.80273 7.30498 2.56006 7.67461 2.32812C7.75469 2.44409 7.78447 2.5874 7.75737 2.72534C6.71197 8.53536 8.12578 14.5182 11.6616 19.2455C15.1973 23.9725 20.5371 27.0191 26.4055 27.6578C26.5429 27.6734 26.6703 27.7381 26.7641 27.8397Z" fill="#E6E7E8"/>
<path d="M28.5627 25.9032C28.32 26.2177 28.0551 26.5268 27.7849 26.8246C27.5312 26.786 27.2829 26.7475 27.0346 26.7033C26.8904 26.6776 26.7622 26.5958 26.6784 26.476C26.5947 26.3559 26.562 26.2074 26.5876 26.0634C26.5935 26.0312 26.6028 25.9997 26.6152 25.9694C26.7043 25.7167 26.9643 25.5668 27.2278 25.6164C27.5752 25.6825 27.9228 25.7323 28.2758 25.7819C28.3818 25.7921 28.4819 25.8344 28.5627 25.9032Z" fill="#E6E7E8"/>
<path d="M13.4214 16.6243C13.2503 16.3721 12.9073 16.3065 12.6551 16.4776C12.4029 16.6485 12.3372 16.9918 12.5084 17.244C12.9222 17.8536 13.3729 18.451 13.8467 19.0186C13.9712 19.1761 14.1712 19.2535 14.3692 19.221C14.5669 19.1885 14.7317 19.0511 14.7991 18.8621C14.8668 18.6731 14.8262 18.4625 14.6937 18.3121C14.243 17.7718 13.8148 17.2042 13.4214 16.6243Z" fill="#E6E7E8"/>
<path d="M10.3906 13.3419C10.6758 14.0216 10.9976 14.6956 11.3523 15.3458C11.4463 15.5189 11.6257 15.629 11.8227 15.6341C12.0198 15.6392 12.2046 15.5389 12.3076 15.3709C12.4106 15.203 12.4162 14.9925 12.3223 14.8194C11.9861 14.2003 11.6811 13.5648 11.4087 12.9154C11.2908 12.6344 10.9675 12.5018 10.6863 12.6197C10.4053 12.7374 10.2729 13.0606 10.3906 13.3419Z" fill="#E6E7E8"/>
<path d="M9.31225 7.39311H9.36743C9.51318 7.37919 9.64746 7.3079 9.74072 7.19487C9.83374 7.08183 9.87817 6.93632 9.86401 6.79057C9.79663 6.0999 9.76293 5.39556 9.76245 4.67804C9.7622 4.53277 9.70361 4.39362 9.59985 4.29181C9.49633 4.18976 9.3562 4.13361 9.21094 4.1358C8.9043 4.1402 8.65845 4.39044 8.65918 4.69684C8.65918 5.43072 8.69507 6.17168 8.76611 6.89775C8.79492 7.17802 9.03052 7.39164 9.31225 7.39311Z" fill="#E6E7E8"/>
<path d="M9.08986 9.09546C9.23463 9.82299 9.41603 10.5427 9.63331 11.2519C9.70436 11.4839 9.91822 11.6421 10.1607 11.6421C10.2153 11.6418 10.2698 11.6338 10.3223 11.6179C10.4624 11.5749 10.5796 11.4785 10.6482 11.3491C10.717 11.22 10.7314 11.0686 10.6887 10.9287C10.4822 10.2549 10.3098 9.5708 10.1721 8.87964C10.1126 8.58081 9.82203 8.38672 9.5232 8.44629C9.22413 8.50586 9.03029 8.79639 9.08986 9.09546Z" fill="#E6E7E8"/>
<path d="M18.6542 22.6721C18.5741 22.7947 18.5461 22.9441 18.5763 23.0872C18.6064 23.2305 18.6921 23.3557 18.8146 23.4358C19.4343 23.8396 20.0802 24.2175 20.7353 24.5569C21.0048 24.6909 21.3322 24.5842 21.4709 24.3171C21.6095 24.0498 21.5082 23.7207 21.2433 23.5777C20.621 23.2549 20.007 22.8967 19.4206 22.5105C19.2975 22.4297 19.1476 22.4014 19.0036 22.4319C18.8598 22.4622 18.7338 22.5486 18.6542 22.6721Z" fill="#E6E7E8"/>
<path d="M15.3474 19.8726C15.1341 20.0899 15.1372 20.4392 15.3545 20.6526C15.8804 21.1697 16.4392 21.6668 17.0159 22.1301C17.2534 22.322 17.6013 22.2849 17.7932 22.0474C17.9851 21.8098 17.948 21.4619 17.7105 21.27C17.1621 20.8286 16.6306 20.3565 16.1304 19.8653C16.0259 19.762 15.8843 19.7046 15.7373 19.7061C15.5904 19.7073 15.45 19.7674 15.3474 19.8726Z" fill="#E6E7E8"/>
<path d="M22.4504 24.7651C22.3962 24.9011 22.3981 25.0532 22.456 25.1878C22.5139 25.3223 22.6228 25.4282 22.759 25.4824C23.4484 25.7566 24.1513 25.9959 24.8649 26.1997C24.914 26.2141 24.9653 26.2212 25.0165 26.2212C25.2922 26.2217 25.5258 26.0188 25.5639 25.7461C25.6022 25.4732 25.4333 25.2139 25.1684 25.1387C24.4941 24.9461 23.8205 24.7166 23.1672 24.4568C22.8842 24.344 22.5632 24.4822 22.4504 24.7651Z" fill="#E6E7E8"/>
<path d="M10.0028 1.48413C9.94767 1.83715 9.90348 2.19579 9.86491 2.54882C9.83903 2.83104 9.60197 3.04662 9.31852 3.0454H9.26335C8.96013 3.01244 8.73918 2.74242 8.76701 2.43847C8.7946 2.18481 8.82219 1.9309 8.86076 1.68261C9.21769 1.49634 9.58415 1.32886 9.95866 1.18066H9.96403C10.0046 1.27637 10.018 1.38135 10.0028 1.48413Z" fill="#E6E7E8"/>
<path d="M2.3562 7.63574C2.54101 7.74072 2.64843 7.94263 2.63207 8.15454C2.60449 8.50756 2.58788 8.8662 2.58251 9.22484C2.5747 9.5244 2.33032 9.76366 2.03076 9.76537H2.01953C1.7417 9.75853 1.51221 9.54564 1.48438 9.26879L2.3562 7.63574Z" fill="#E6E7E8"/>
<path d="M4.35521 18.1563C4.04833 17.4556 3.77953 16.7386 3.55028 16.0086C3.4912 15.8204 3.33617 15.6781 3.14379 15.6353C2.95117 15.5924 2.75048 15.6554 2.61718 15.8009C2.48364 15.9461 2.43799 16.1515 2.49707 16.3397C2.73877 17.1082 3.02172 17.8634 3.34447 18.6016C3.41943 18.7884 3.58983 18.9195 3.78954 18.9442C3.98925 18.9686 4.18627 18.8824 4.30419 18.7193C4.42186 18.5562 4.44139 18.3421 4.35521 18.1602V18.1563Z" fill="#E6E7E8"/>
<path d="M2.98305 13.7861C2.83461 13.0359 2.7267 12.278 2.65981 11.5163C2.64589 11.3174 2.52577 11.1413 2.34535 11.0559C2.16518 10.9707 1.95278 10.9892 1.79018 11.1047C1.62734 11.2202 1.5397 11.4145 1.56069 11.6128C1.631 12.4143 1.74428 13.2111 1.90053 14.0002C1.93862 14.1938 2.07705 14.3525 2.26381 14.4162C2.45058 14.4799 2.65712 14.4392 2.80556 14.309C2.95399 14.1789 3.02162 13.9797 2.98305 13.7861Z" fill="#E6E7E8"/>
<path d="M13.4381 28.1806C12.7716 27.8053 12.1259 27.3949 11.5031 26.9513C11.3427 26.8368 11.1334 26.8166 10.954 26.8981C10.7746 26.9799 10.6522 27.151 10.6334 27.3473C10.6144 27.5436 10.7016 27.735 10.862 27.8495C11.5167 28.3163 12.1959 28.7477 12.8969 29.1422C13.1622 29.2917 13.4987 29.1974 13.6483 28.932C13.7977 28.6664 13.7035 28.33 13.4381 28.1806Z" fill="#E6E7E8"/>
<path d="M8.08201 23.9074C7.87522 23.6916 7.53441 23.6796 7.31297 23.8803C7.09154 24.0812 7.0703 24.4215 7.26488 24.6483C7.80442 25.244 8.37522 25.8107 8.97531 26.3454C9.20285 26.548 9.55173 26.5277 9.75412 26.3002C9.95675 26.0727 9.93649 25.7238 9.70895 25.5211C9.1384 25.0126 8.59519 24.4738 8.08201 23.9074Z" fill="#E6E7E8"/>
<path d="M17.6447 29.9771C16.9137 29.7547 16.1955 29.4929 15.4928 29.1931C15.2133 29.0764 14.892 29.2068 14.7731 29.4854C14.654 29.7639 14.7817 30.0862 15.0592 30.2075C15.7987 30.5242 16.5548 30.8005 17.3241 31.0352C17.3761 31.0508 17.4303 31.0588 17.4845 31.0588C17.758 31.0588 17.9901 30.8587 18.0304 30.5881C18.0705 30.3176 17.9064 30.0586 17.6447 29.9793V29.9771Z" fill="#E6E7E8"/>
<path d="M5.38809 20.2038C5.23575 19.9396 4.8981 19.8488 4.63395 20.0011C4.36979 20.1535 4.27897 20.4911 4.43131 20.7555C4.83219 21.453 5.27017 22.1286 5.74331 22.7792C5.84732 22.922 6.01358 23.0067 6.19033 23.0065C6.39785 23.0062 6.58755 22.8895 6.68154 22.7045C6.77553 22.5194 6.75771 22.2975 6.6354 22.1298C6.18545 21.5104 5.76919 20.8676 5.38809 20.2038Z" fill="#E6E7E8"/>
<path d="M21.3906 31.0675C20.8088 31.2794 20.2134 31.4528 19.6086 31.5861C19.3337 31.4955 19.1763 31.2069 19.2493 30.9269C19.3223 30.6469 19.6003 30.4716 19.8845 30.5267C20.2375 30.5929 20.5906 30.6481 20.9438 30.6976C21.1521 30.7233 21.3264 30.8676 21.3906 31.0675Z" fill="#E6E7E8"/>
<path d="M4.96628 4.41943C5.08615 4.54175 5.14157 4.71362 5.1152 4.88305C5.06564 5.23608 5.02707 5.5891 4.99387 5.95336C4.96823 6.23851 4.72849 6.45653 4.44211 6.45531C4.42551 6.45629 4.40867 6.45433 4.39255 6.44994C4.24753 6.43724 4.11326 6.36718 4.02024 6.25536C3.92698 6.14354 3.8823 5.99901 3.89597 5.854C3.90696 5.73266 3.91795 5.61669 3.92918 5.50097L4.96628 4.41943Z" fill="#E6E7E8"/>
<path d="M16.76 28.1059C16.9392 28.1913 17.1506 28.174 17.3132 28.0602C17.4761 27.9467 17.5654 27.7546 17.5471 27.5568C17.5285 27.3593 17.4055 27.1867 17.2246 27.1049C16.5693 26.8005 15.9299 26.4626 15.3091 26.0925C15.0471 25.9365 14.7085 26.0224 14.5525 26.2844C14.3965 26.5461 14.4822 26.8849 14.7441 27.0409C15.3977 27.4299 16.0705 27.7851 16.76 28.1059Z" fill="#E6E7E8"/>
<path d="M11.8335 23.5108C11.688 23.3777 11.4825 23.3325 11.2947 23.3919C11.1067 23.4514 10.9646 23.6065 10.9222 23.7991C10.8797 23.9915 10.9431 24.1922 11.0887 24.3252C11.6502 24.8384 12.2373 25.3228 12.8482 25.7761C12.9426 25.8477 13.0579 25.8865 13.1763 25.8865C13.4138 25.8865 13.6245 25.7346 13.6997 25.5093C13.7749 25.2839 13.6973 25.0359 13.5073 24.8933C12.9265 24.461 12.3677 23.9995 11.8335 23.5108Z" fill="#E6E7E8"/>
<path d="M21.3166 28.5162C20.613 28.3519 19.9184 28.152 19.2351 27.9171C19.0476 27.8483 18.8376 27.8861 18.686 28.016C18.5344 28.1456 18.4648 28.3473 18.5039 28.5431C18.5429 28.7389 18.6848 28.8983 18.8747 28.9598C19.5937 29.2077 20.3251 29.4186 21.0656 29.5914C21.3591 29.653 21.6476 29.4689 21.716 29.1771C21.7841 28.8851 21.6069 28.5924 21.3166 28.5175V28.5162Z" fill="#E6E7E8"/>
<path d="M7.56445 19.215C7.69116 19.1415 7.78344 19.0209 7.82079 18.8793C7.85839 18.7379 7.83837 18.5873 7.76489 18.4608C7.40185 17.8346 7.07129 17.1901 6.77441 16.5297C6.64478 16.2602 6.32373 16.1432 6.05078 16.266C5.77808 16.3888 5.65284 16.707 5.7688 16.9828C6.08106 17.6767 6.42871 18.3544 6.81079 19.0126C6.96387 19.2758 7.30102 19.3654 7.56445 19.2128V19.215Z" fill="#E6E7E8"/>
<path d="M8.94733 20.2794C8.7635 20.0477 8.43 20.0018 8.1905 20.1757C7.95124 20.3492 7.89143 20.6808 8.055 20.9271C8.50153 21.5431 8.97907 22.1358 9.48566 22.7032C9.68854 22.9305 10.0374 22.9503 10.2647 22.7474C10.492 22.5443 10.5118 22.1957 10.3089 21.9684C9.82697 21.4286 9.37238 20.8649 8.94733 20.2794Z" fill="#E6E7E8"/>
<path d="M4.50297 10.8972C4.52446 10.8974 4.54594 10.896 4.56718 10.8933C4.71245 10.8767 4.84526 10.803 4.93608 10.6882C5.02714 10.5735 5.06889 10.4275 5.05204 10.2822C4.9683 9.56371 4.92094 8.84155 4.9102 8.11816C4.90239 7.81519 4.6541 7.57349 4.35088 7.57422C4.20439 7.57617 4.06499 7.63648 3.96294 7.74121C3.86089 7.84619 3.80474 7.9873 3.80669 8.13379C3.81743 8.89404 3.8665 9.65355 3.95366 10.4089C3.98589 10.688 4.22246 10.8979 4.50297 10.8972Z" fill="#E6E7E8"/>
<path d="M4.75332 12.0009C4.45571 12.0665 4.26772 12.361 4.3334 12.6586C4.49819 13.402 4.70083 14.1366 4.94033 14.8593C5.01528 15.0851 5.22621 15.2372 5.464 15.2372C5.52309 15.2374 5.58168 15.2279 5.63783 15.2091C5.77675 15.1632 5.89174 15.0638 5.95741 14.933C6.02308 14.8021 6.03407 14.6508 5.98817 14.5118C5.76015 13.8251 5.56776 13.1271 5.41151 12.4208C5.38002 12.2777 5.29286 12.1532 5.16957 12.0744C5.04604 11.9957 4.89638 11.9691 4.75332 12.0009Z" fill="#E6E7E8"/>
<path d="M24.9603 29.2636C24.5465 29.5394 24.127 29.7987 23.6913 30.0414H23.6803C23.5643 30.0248 23.443 30.0138 23.327 29.9972C23.0392 29.9433 22.8436 29.6737 22.8817 29.3832C22.9198 29.0927 23.1783 28.8827 23.4706 28.9049C23.8236 28.9491 24.1768 28.9821 24.5409 29.0097C24.714 29.0199 24.8709 29.1149 24.9603 29.2636Z" fill="#E6E7E8"/>
<path d="M12.2097 0.651122C12.1768 1.00976 12.1492 1.36303 12.127 1.72704C12.1126 2.01806 11.8721 2.24633 11.5808 2.2456H11.5476C11.2449 2.22802 11.0134 1.96923 11.0291 1.6665C11.0401 1.3684 11.0676 1.06494 11.0952 0.767088C11.4539 0.651122 11.8235 0.546386 12.1931 0.458008C12.21 0.520996 12.2156 0.586425 12.2097 0.651122Z" fill="#E6E7E8"/>
<path d="M17.9248 19.0616C18.0676 19.1976 18.2722 19.2471 18.4614 19.1915C18.6506 19.1361 18.7959 18.9837 18.8423 18.7918C18.8889 18.6002 18.8296 18.3983 18.6867 18.262C18.1333 17.734 17.6086 17.1766 17.1147 16.5926C16.989 16.4376 16.7891 16.3626 16.5923 16.3968C16.3955 16.4308 16.2324 16.5687 16.166 16.7569C16.0999 16.9454 16.1404 17.1549 16.2722 17.3048C16.7913 17.9195 17.343 18.5059 17.9248 19.0616Z" fill="#E6E7E8"/>
<path d="M23.8675 23.1342C24.5955 23.4757 25.3413 23.7777 26.1018 24.0385C26.1595 24.0585 26.2198 24.0688 26.2808 24.0688C26.5503 24.0688 26.7805 23.8737 26.8247 23.6078C26.8692 23.3417 26.7146 23.0827 26.4595 22.9953C25.7366 22.7472 25.0276 22.4601 24.336 22.1357C24.1565 22.0453 23.9424 22.0595 23.7767 22.1728C23.6109 22.2861 23.5196 22.4804 23.5386 22.6803C23.5574 22.8803 23.6834 23.0541 23.8675 23.1342Z" fill="#E6E7E8"/>
<path d="M21.7442 21.9935C22.004 22.1456 22.3377 22.0616 22.4945 21.8043C22.6509 21.5472 22.5723 21.212 22.3179 21.0511C21.6649 20.6534 21.0338 20.221 20.4273 19.7557C20.1851 19.5812 19.8485 19.6305 19.6668 19.8673C19.4852 20.1039 19.5245 20.442 19.7557 20.6307C20.3936 21.1202 21.0574 21.575 21.7442 21.9935Z" fill="#E6E7E8"/>
<path d="M13.5758 13.3141C13.952 14.0253 14.3661 14.7159 14.8165 15.3829C14.9269 15.5463 15.1161 15.6383 15.3126 15.6244C15.5092 15.6105 15.6835 15.4926 15.7697 15.3153C15.8561 15.1381 15.8412 14.9283 15.7308 14.765C15.3026 14.132 14.9088 13.476 14.5516 12.8004C14.4596 12.6259 14.2814 12.5141 14.0844 12.5067C13.8873 12.4994 13.7013 12.5976 13.5963 12.7645C13.4913 12.9315 13.4835 13.1417 13.5758 13.3163V13.3141Z" fill="#E6E7E8"/>
<path d="M11.5494 3.49785C11.2452 3.51421 11.0118 3.77398 11.0282 4.07842C11.0706 4.88164 11.1563 5.68192 11.2845 6.47611C11.3162 6.67069 11.4493 6.83377 11.6336 6.9036C11.8182 6.97366 12.0257 6.93973 12.1785 6.81522C12.3314 6.69046 12.4058 6.49369 12.3743 6.29911C12.2523 5.54423 12.1705 4.78349 12.1297 4.01982C12.1221 3.87359 12.0567 3.73662 11.9478 3.63872C11.8389 3.54082 11.6956 3.49004 11.5494 3.49785Z" fill="#E6E7E8"/>
<path d="M11.7991 8.83392C12.013 9.61028 12.2689 10.3742 12.566 11.1225C12.6492 11.3329 12.8526 11.4714 13.0789 11.4714C13.2618 11.4711 13.4327 11.3805 13.5352 11.2294C13.638 11.078 13.659 10.8859 13.5916 10.716C13.3096 10.0046 13.0662 9.27874 12.8629 8.54095C12.7784 8.2514 12.4774 8.08343 12.1866 8.16351C11.8958 8.24359 11.7232 8.54217 11.7991 8.83392Z" fill="#E6E7E8"/>
<path d="M29.9151 23.9009C29.7276 24.2319 29.5288 24.5573 29.3138 24.8774C29.0159 24.8278 28.7234 24.7671 28.4366 24.7009C28.2388 24.6628 28.0777 24.52 28.0159 24.3286C27.9541 24.1369 28.0015 23.927 28.1397 23.7807C28.2776 23.6343 28.4844 23.5747 28.6792 23.625C29.0269 23.7021 29.3799 23.7685 29.7329 23.8291C29.7984 23.8388 29.8606 23.8635 29.9151 23.9009Z" fill="#E6E7E8"/>
<path d="M27.1943 9.02424C25.9524 7.48128 24.176 6.84994 23.2266 7.6141C22.2771 8.3785 22.5142 10.2486 23.7559 11.7916C24.9978 13.3345 26.7742 13.9656 27.7236 13.2015C28.6731 12.4373 28.436 10.567 27.1943 9.02424Z" fill="#E64C3C"/>
<path d="M19.9486 3.77204C19.0536 3.58674 18.2077 4.01692 18.0595 4.73298C17.9111 5.44904 18.5165 6.17999 19.4118 6.36529C20.3068 6.55059 21.1527 6.12042 21.3009 5.40436C21.4494 4.6883 20.8439 3.95735 19.9486 3.77204Z" fill="#E64C3C"/>
</g>
<defs>
<clipPath id="clip0_522_340">
<rect width="32" height="32" fill="white"/>
</clipPath>
</defs>
</svg>
