<svg width="32" height="32" viewBox="0 0 32 32" fill="none" xmlns="http://www.w3.org/2000/svg">
<g clip-path="url(#clip0_522_885)">
<path d="M29.5648 31.0919C29.3896 28.7829 28.892 26.9811 28.0438 25.5836C27.0317 23.9163 25.5128 22.8632 23.5294 22.4538C23.5256 22.453 23.522 22.4523 23.5182 22.4516L19.0395 21.6476V20.4319C19.4453 20.2023 19.8226 19.9279 20.165 19.6159H22.5831C24.1209 19.6159 25.3719 18.3641 25.3719 16.8254V16.4959C26.9342 16.0479 28.0767 14.6555 28.0767 13.0107C28.0767 11.366 26.9318 9.96925 25.3671 9.52256C25.2149 4.48712 21.0715 0.4375 15.9998 0.4375C10.928 0.4375 6.78476 4.48712 6.63251 9.52262C5.06776 9.96931 3.92289 11.3636 3.92289 13.0108C3.92289 15.0162 5.62095 16.6477 7.70814 16.6477H10.0196C10.4551 18.2663 11.532 19.6246 12.9601 20.4325V21.6477L8.48139 22.4516C8.47758 22.4523 8.47395 22.453 8.4702 22.4538C6.48658 22.8633 4.96745 23.9163 3.9552 25.5836C3.10626 26.9819 2.60895 28.7838 2.43483 31.0921C2.4257 31.2135 2.46751 31.3333 2.55033 31.4225C2.63314 31.5118 2.74939 31.5625 2.87114 31.5625H29.1286C29.2503 31.5625 29.3666 31.5118 29.4495 31.4224C29.5322 31.3331 29.574 31.2133 29.5648 31.0919H29.5648ZM22.5831 17.741H21.5687C21.738 17.3933 21.876 17.0278 21.9782 16.6477H23.497V16.8255C23.497 17.3303 23.087 17.741 22.5832 17.741H22.5831Z" fill="#FEDBAB"/>
<path d="M29.5648 31.0918C29.3896 28.7828 28.892 26.981 28.0438 25.5835C27.0317 23.9161 25.5128 22.8631 23.5294 22.4536C23.5256 22.4529 23.522 22.4521 23.5182 22.4515L19.0395 21.6475V22.0135C19.0395 22.084 19.0225 22.1536 18.9898 22.2161C18.537 23.0825 18.165 23.8362 17.8661 24.4418C16.962 26.2735 16.6226 26.9609 15.9796 26.9609H15.9763C15.3305 26.9585 14.9957 26.2671 14.1008 24.4192C13.8098 23.8184 13.4476 23.0706 13.0082 22.2129C12.9766 22.1511 12.9601 22.0828 12.9601 22.0134V21.6475L8.48139 22.4514C8.47758 22.4521 8.47395 22.4528 8.4702 22.4536C6.48658 22.8631 4.96745 23.9161 3.9552 25.5834C3.10626 26.9816 2.60895 28.7835 2.43483 31.0919C2.4257 31.2133 2.46751 31.333 2.55033 31.4223C2.63314 31.5116 2.74939 31.5623 2.87114 31.5623H29.1286C29.2503 31.5623 29.3666 31.5115 29.4495 31.4222C29.5322 31.3329 29.574 31.2131 29.5648 31.0916L29.5648 31.0918Z" fill="#3B97D3"/>
<path d="M10.2449 9.37207H7.7081C5.62085 9.37207 3.92285 11.0044 3.92285 13.0108C3.92285 15.0171 5.62091 16.6476 7.7081 16.6476H10.2449C10.4865 16.6476 10.6824 16.4518 10.6824 16.2101V9.80957C10.6824 9.56795 10.4865 9.37207 10.2449 9.37207Z" fill="#E64C3C"/>
<path d="M24.2919 9.37207H21.7529C21.5113 9.37207 21.3154 9.56795 21.3154 9.80957V16.2101C21.3154 16.4518 21.5113 16.6476 21.7529 16.6476H24.2919C26.3791 16.6476 28.0771 15.0161 28.0771 13.0108C28.0771 11.0054 26.3791 9.37207 24.2919 9.37207Z" fill="#E64C3C"/>
<path d="M23.4841 9.37212H24.2917C24.6654 9.37212 25.0262 9.42525 25.3674 9.52262C25.2152 4.48712 21.0718 0.4375 16.0001 0.4375C10.9283 0.4375 6.78506 4.48712 6.63281 9.52262C6.974 9.42525 7.33481 9.37212 7.70844 9.37212H8.51606C8.74344 5.44106 12.013 2.3125 16.0001 2.3125C19.9871 2.3125 23.2567 5.44106 23.4841 9.37212Z" fill="#4C839B"/>
<path d="M24.2917 16.6478H23.4971V16.8257C23.4971 17.3305 23.0872 17.7412 22.5834 17.7412H16C15.4822 17.7412 15.0625 18.1609 15.0625 18.6787C15.0625 19.1964 15.4822 19.6162 16 19.6162H22.5834C24.1211 19.6162 25.3721 18.3643 25.3721 16.8257V16.4961C25.0296 16.5943 24.6671 16.6478 24.2917 16.6478Z" fill="#4C839B"/>
<path d="M18.6014 19.6162C17.6826 20.4531 16.5128 21.0189 15.2188 21.1825C15.4748 21.2149 15.7355 21.2316 16.0001 21.2316C17.603 21.2316 19.0654 20.6192 20.1659 19.6162H18.6014Z" fill="#F2C897"/>
<path d="M10.2448 9.37206C10.3594 9.37206 10.4634 9.4165 10.5414 9.48863C10.6833 9.30606 10.8458 9.15312 11.0296 9.02956C12.2754 8.19219 14.0809 8.928 15.8271 9.63969C17.1233 10.1679 18.4636 10.7141 19.0889 10.3535C19.778 9.95563 20.4979 9.913 21.116 10.2337C21.1859 10.2699 21.2521 10.3136 21.3149 10.3634V9.80963C21.3149 9.568 21.5108 9.37213 21.7524 9.37213H23.4837C23.2563 5.44106 19.9867 2.3125 15.9996 2.3125C12.0126 2.3125 8.743 5.44106 8.51562 9.37213H10.2448L10.2448 9.37206Z" fill="#54461E"/>
<path d="M10.2448 16.6476C10.4864 16.6476 10.6823 16.4518 10.6823 16.2101V9.80957C10.6823 9.56795 10.4864 9.37207 10.2448 9.37207H8.51562V16.6476H10.2448Z" fill="#C03A2B"/>
<path d="M21.3154 9.80957V16.2101C21.3154 16.4518 21.5113 16.6476 21.7529 16.6476H23.4842V9.37207H21.7529C21.5113 9.37207 21.3154 9.56795 21.3154 9.80957Z" fill="#C03A2B"/>
<path d="M21.7525 16.6475C21.5109 16.6475 21.315 16.4516 21.315 16.21V10.3633C21.2523 10.3134 21.186 10.2697 21.1161 10.2336C20.6037 9.96764 20.0212 9.95233 19.4443 10.1814C19.4811 10.1976 19.5176 10.2149 19.5536 10.2336C20.2861 10.6123 20.6275 11.8112 20.6275 12.5021V15.041C20.6275 16.0084 20.4036 16.9243 20.0063 17.7408H21.5695C21.7387 17.3932 21.876 17.0274 21.9782 16.6475H21.7526L21.7525 16.6475Z" fill="#F2C897"/>
<path d="M16.6794 26.5803C16.6583 26.6143 16.6362 26.6439 16.6133 26.6677L20.3553 28.2331C20.4095 28.2558 20.4669 28.267 20.5241 28.267C20.6076 28.267 20.6906 28.2431 20.7627 28.1962C20.884 28.1173 20.9584 27.9835 20.9615 27.8387L21.0846 22.0145L19.0399 21.6475V22.0134C19.0399 22.084 19.0228 22.1535 18.9902 22.216C18.5373 23.0825 18.1653 23.8361 17.8665 24.4417C17.334 25.5205 16.9975 26.202 16.6794 26.5803Z" fill="#2984B7"/>
<path d="M10.8936 22.0184L11.0166 27.8387C11.0197 27.9834 11.0941 28.1173 11.2154 28.1962C11.2875 28.2431 11.3705 28.267 11.454 28.267C11.5112 28.267 11.5686 28.2558 11.6228 28.2331L15.3607 26.6695C15.018 26.3121 14.6745 25.6035 14.1009 24.4192C13.8099 23.8184 13.4478 23.0706 13.0084 22.2129C12.9767 22.1511 12.9602 22.0828 12.9602 22.0134V21.6475L10.8936 22.0184Z" fill="#2984B7"/>
<path d="M16.613 26.668C16.4186 26.8701 16.2255 26.9612 15.9926 26.9612H15.9859C15.7531 26.9612 15.5601 26.8701 15.3656 26.668L15.0518 26.7992V31.5627H16.9268V26.7992L16.6129 26.668H16.613Z" fill="#3492C6"/>
<path d="M16.0002 2.31256C15.6253 2.31256 15.2567 2.34025 14.8965 2.39363C18.5252 2.91075 21.3154 6.03019 21.3154 9.80181V9.80963C21.3154 9.568 21.5113 9.37213 21.7529 9.37213H23.4842C23.2569 5.44106 19.9872 2.31256 16.0002 2.31256Z" fill="#4C3E1B"/>
<path d="M29.5645 31.0919C29.3893 28.7829 28.8918 26.9811 28.0435 25.5836C27.0315 23.9162 25.5126 22.8632 23.5292 22.4537C23.5254 22.453 23.5217 22.4522 23.518 22.4516L21.832 22.1489C23.607 22.6366 24.9805 23.6996 25.9185 25.3144C26.7668 26.7749 27.2643 28.6577 27.4395 31.0707C27.4487 31.1976 27.407 31.3227 27.3242 31.4161C27.2413 31.5095 27.125 31.5625 27.0033 31.5625H29.1283C29.25 31.5625 29.3663 31.5117 29.4492 31.4224C29.5319 31.3331 29.5737 31.2133 29.5645 31.0919Z" fill="#3492C6"/>
</g>
<defs>
<clipPath id="clip0_522_885">
<rect width="32" height="32" fill="white"/>
</clipPath>
</defs>
</svg>
