<svg width="24" height="24" viewBox="0 0 24 24" fill="none" xmlns="http://www.w3.org/2000/svg">
<g clip-path="url(#clip0_1657_5276)">
<g clip-path="url(#clip1_1657_5276)">
<mask id="mask0_1657_5276" style="mask-type:luminance" maskUnits="userSpaceOnUse" x="1" y="0" width="22" height="24">
<path d="M12.0356 23.7005H9.08031C8.61948 23.7005 8.24598 23.327 8.24598 22.8661C8.24598 22.6568 8.32281 22.4553 8.46598 22.3026C9.45881 21.2436 10.9478 18.1841 10.9478 18.1841C9.31048 19.6726 6.79515 19.4285 6.79515 19.4285C3.94748 19.3343 1.66314 17.1001 1.67731 14.2596C1.69348 11.0081 4.17414 8.7138 7.26998 5.88414C11.1301 2.35614 11.9998 0.299469 11.9998 0.299469C11.9998 0.299469 12.8695 2.35614 16.7298 5.88414C19.8256 8.7138 22.3065 11.008 22.3225 14.2596C22.3366 17.1001 20.0521 19.3343 17.2046 19.4285C17.2046 19.4285 14.6893 19.6726 13.052 18.1841C13.052 18.1841 14.541 21.2436 15.5338 22.3026C15.677 22.4553 15.7538 22.6568 15.7538 22.8661C15.7538 23.327 15.3803 23.7005 14.9195 23.7005C14.9193 23.7005 12.0356 23.7005 12.0356 23.7005Z" fill="white"/>
</mask>
<g mask="url(#mask0_1657_5276)">
<path d="M34.6745 0.0361328H-10.6743V7.86213H34.6745V0.0361328Z" fill="#FF9922"/>
<path d="M34.6745 7.86214H-10.6743V16.138H34.6745V7.86214Z" fill="white"/>
<path d="M34.6745 16.1378H-10.6743V23.9638H34.6745V16.1378Z" fill="#008800"/>
<path d="M12 8.79163C10.2406 8.79163 8.81445 10.2281 8.81445 12C8.81445 13.772 10.2406 15.2083 12 15.2083C13.7593 15.2083 15.1855 13.7718 15.1855 12C15.1855 10.2281 13.7593 8.79163 12 8.79163ZM13.8178 14.142C13.8 14.0851 13.7476 14.0435 13.6853 14.0435C13.6081 14.0435 13.5456 14.1065 13.5456 14.1841C13.5456 14.2346 13.5721 14.2785 13.6118 14.3033C13.4821 14.3955 13.345 14.4771 13.2003 14.5463C13.1921 14.4765 13.1338 14.422 13.0621 14.422C12.985 14.422 12.9225 14.485 12.9225 14.5626C12.9225 14.596 12.9345 14.6261 12.9538 14.6503C12.8093 14.7031 12.659 14.7435 12.5045 14.7718C12.5061 14.763 12.5073 14.7538 12.5073 14.7445C12.5073 14.6668 12.4446 14.6038 12.3676 14.6038C12.2905 14.6038 12.228 14.6668 12.228 14.7445C12.228 14.7671 12.2338 14.7881 12.2431 14.8071C12.163 14.8141 12.0821 14.8183 12.0003 14.8183C11.925 14.8183 11.8503 14.8145 11.7763 14.8085C11.788 14.788 11.7951 14.7646 11.7951 14.7393C11.7951 14.6616 11.7325 14.5986 11.6555 14.5986C11.5783 14.5986 11.5158 14.6616 11.5158 14.7393C11.5158 14.7521 11.518 14.7643 11.5213 14.7761C11.3571 14.7476 11.1976 14.7053 11.0446 14.6493C11.0783 14.6236 11.1003 14.5833 11.1003 14.5375C11.1003 14.4598 11.0378 14.3968 10.9606 14.3968C10.8835 14.3968 10.821 14.4598 10.821 14.5375C10.821 14.544 10.822 14.5501 10.823 14.5565C10.6793 14.4891 10.5421 14.4103 10.413 14.3205C10.4663 14.3006 10.5046 14.2495 10.5046 14.1888C10.5046 14.1111 10.442 14.0481 10.365 14.0481C10.2911 14.0481 10.2313 14.106 10.2263 14.1791C10.093 14.069 9.97012 13.9461 9.85912 13.8133C9.93229 13.8088 9.99045 13.7483 9.99045 13.6735C9.99045 13.5958 9.92779 13.5328 9.85079 13.5328C9.78879 13.5328 9.73679 13.5738 9.71862 13.63C9.62445 13.4965 9.54129 13.3548 9.47095 13.2056C9.47395 13.2058 9.47679 13.2065 9.47995 13.2065C9.55712 13.2065 9.61962 13.1435 9.61962 13.0658C9.61962 12.9881 9.55712 12.9251 9.47995 12.9251C9.43745 12.9251 9.39995 12.9446 9.37429 12.9746C9.31695 12.818 9.27362 12.6546 9.24462 12.4863C9.26079 12.493 9.27829 12.4968 9.29679 12.4968C9.37395 12.4968 9.43645 12.4338 9.43645 12.3561C9.43645 12.2785 9.37395 12.2155 9.29679 12.2155C9.26529 12.2155 9.23662 12.2263 9.21329 12.244C9.20645 12.1635 9.20212 12.0821 9.20212 11.9998C9.20212 11.9196 9.20579 11.8403 9.21229 11.7616C9.23495 11.7775 9.26229 11.787 9.29195 11.787C9.36912 11.787 9.43162 11.724 9.43162 11.6463C9.43162 11.5686 9.36895 11.5056 9.29195 11.5056C9.27512 11.5056 9.25912 11.5091 9.24429 11.5146C9.27312 11.3478 9.31612 11.1858 9.37279 11.0303C9.39829 11.0631 9.43762 11.0848 9.48245 11.0848C9.55962 11.0848 9.62212 11.0218 9.62212 10.9441C9.62212 10.8665 9.55945 10.8035 9.48245 10.8035C9.47695 10.8035 9.47195 10.8045 9.46662 10.8051C9.53679 10.6546 9.61945 10.511 9.71379 10.3765C9.73445 10.4281 9.78462 10.4648 9.84329 10.4648C9.92045 10.4648 9.98295 10.4018 9.98295 10.3241C9.98295 10.2523 9.92929 10.1936 9.86012 10.1851C9.96212 10.0631 10.0741 9.95029 10.195 9.84729C10.2076 9.91179 10.2641 9.96046 10.332 9.96046C10.4091 9.96046 10.4716 9.89746 10.4716 9.81979C10.4716 9.76413 10.4393 9.71663 10.393 9.69379C10.5283 9.59796 10.6721 9.51379 10.8236 9.44313C10.8221 9.45113 10.8211 9.45929 10.8211 9.46763C10.8211 9.54529 10.8838 9.60829 10.9608 9.60829C11.038 9.60829 11.1005 9.54529 11.1005 9.46763C11.1005 9.41979 11.0766 9.37746 11.0403 9.35213C11.192 9.29629 11.35 9.25413 11.5125 9.22529C11.512 9.23046 11.511 9.23563 11.511 9.24096C11.511 9.31863 11.5735 9.38163 11.6506 9.38163C11.7278 9.38163 11.7903 9.31863 11.7903 9.24096C11.7903 9.22346 11.7868 9.20679 11.781 9.19129C11.8535 9.18563 11.9265 9.18179 12.0005 9.18179C12.0826 9.18179 12.1638 9.18613 12.2443 9.19313C12.2371 9.21013 12.233 9.22879 12.233 9.24846C12.233 9.32613 12.2955 9.38913 12.3726 9.38913C12.4498 9.38913 12.5123 9.32613 12.5123 9.24846C12.5123 9.24196 12.5113 9.23563 12.5103 9.22929C12.6698 9.25879 12.8245 9.30146 12.9731 9.35696C12.9513 9.38179 12.9375 9.41413 12.9375 9.45013C12.9375 9.52779 13 9.59079 13.0771 9.59079C13.1506 9.59079 13.2103 9.53346 13.2158 9.46079C13.357 9.52946 13.4911 9.61046 13.618 9.70113C13.5751 9.72513 13.5458 9.77079 13.5458 9.82363C13.5458 9.90129 13.6083 9.96429 13.6855 9.96429C13.7501 9.96429 13.804 9.91979 13.82 9.85979C13.9383 9.96196 14.0481 10.0735 14.1481 10.1938C14.0928 10.2126 14.0526 10.2646 14.0526 10.3266C14.0526 10.4043 14.1153 10.4673 14.1923 10.4673C14.2403 10.4673 14.2826 10.443 14.3076 10.4058C14.3945 10.533 14.471 10.6676 14.5365 10.8088C14.5355 10.8088 14.5346 10.8085 14.5336 10.8085C14.4565 10.8085 14.394 10.8715 14.394 10.9491C14.394 11.0268 14.4566 11.0898 14.5336 11.0898C14.5733 11.0898 14.6086 11.0731 14.6341 11.0465C14.69 11.203 14.7321 11.3658 14.76 11.5338C14.7436 11.527 14.7256 11.5231 14.7068 11.5231C14.6296 11.5231 14.5671 11.5861 14.5671 11.6638C14.5671 11.7415 14.6296 11.8045 14.7068 11.8045C14.7378 11.8045 14.7661 11.794 14.7893 11.7768C14.795 11.8505 14.7988 11.9246 14.7988 11.9998C14.7988 12.0813 14.7946 12.1618 14.7878 12.2416C14.7676 12.23 14.7443 12.2228 14.7191 12.2228C14.642 12.2228 14.5795 12.2858 14.5795 12.3635C14.5795 12.4411 14.642 12.5041 14.7191 12.5041C14.7313 12.5041 14.7428 12.5021 14.7541 12.4991C14.7256 12.6593 14.6845 12.815 14.6303 12.9646C14.6048 12.9373 14.569 12.92 14.5288 12.92C14.4516 12.92 14.3891 12.983 14.3891 13.0606C14.3891 13.1383 14.4518 13.2013 14.5288 13.2013C14.5298 13.2013 14.5308 13.201 14.532 13.201C14.4648 13.3441 14.3861 13.4803 14.297 13.609C14.2721 13.5705 14.2291 13.545 14.18 13.545C14.1028 13.545 14.0403 13.608 14.0403 13.6856C14.0403 13.7481 14.0808 13.8003 14.1368 13.8188C14.0391 13.9353 13.9325 14.0431 13.8178 14.142Z" fill="#00008B"/>
<path d="M11.9998 11.4468C11.6965 11.4468 11.4507 11.6945 11.4507 12C11.4507 12.3055 11.6967 12.5531 11.9998 12.5531C12.3032 12.5531 12.549 12.3055 12.549 12C12.549 11.6945 12.3032 11.4468 11.9998 11.4468Z" fill="#00008B"/>
<path d="M12.1354 10.8825L12.0076 9.25629H12.0071L11.8794 10.8825L12.0066 11.4401V11.4468L12.0074 11.4435L12.0081 11.4468V11.4401L12.1354 10.8825Z" fill="#00008B"/>
<path d="M10.8892 11.8815L9.2749 12.0103V12.0106L10.8892 12.1395L11.4429 12.0111H11.4497L11.4464 12.0105L11.4497 12.0096H11.4429L10.8892 11.8815Z" fill="#00008B"/>
<path d="M11.3144 11.115L10.0822 10.0563L10.082 10.0565L11.1332 11.2973L11.6149 11.6011L11.6195 11.6058L11.6177 11.603L11.6207 11.6048L11.6159 11.6L11.3144 11.115Z" fill="#00008B"/>
<path d="M11.1234 11.3356L9.65756 10.642L9.65723 10.6423L10.9966 11.5596L11.5406 11.7246L11.5464 11.728L11.5439 11.7256L11.5472 11.7266L11.5414 11.7233L11.1234 11.3356Z" fill="#00008B"/>
<path d="M10.9582 11.5858L9.36735 11.2806L9.36719 11.281L10.8907 11.8345L11.4584 11.8581L11.4649 11.86L11.4617 11.8583H11.4652L11.4589 11.8566L10.9582 11.5858Z" fill="#00008B"/>
<path d="M11.5614 10.9763L10.6213 9.64813L10.6211 9.64847L11.3419 11.1091L11.7359 11.5215L11.7393 11.5271L11.7383 11.5238L11.7406 11.5265L11.7371 11.5206L11.5614 10.9763Z" fill="#00008B"/>
<path d="M11.8446 10.8856L11.3275 9.33997L11.3271 9.34013L11.5965 10.9485L11.8546 11.4583L11.8563 11.4648V11.4613L11.8578 11.4643L11.8561 11.4578L11.8446 10.8856Z" fill="#00008B"/>
<path d="M13.1258 11.882L14.7403 12.0106V12.0111L13.1258 12.1398L12.5719 12.0116H12.5654L12.5688 12.0108L12.5654 12.0101H12.5719L13.1258 11.882Z" fill="#00008B"/>
<path d="M12.7009 11.1155L13.9329 10.0566L13.933 10.057L12.8819 11.2978L12.4004 11.6015L12.3957 11.6063L12.3974 11.6035L12.3945 11.6051L12.3992 11.6005L12.7009 11.1155Z" fill="#00008B"/>
<path d="M12.8916 11.336L14.3574 10.6425L14.3576 10.6428L13.0184 11.5601L12.4744 11.725L12.4684 11.7283L12.4711 11.726L12.4678 11.727L12.4736 11.7236L12.8916 11.336Z" fill="#00008B"/>
<path d="M13.0573 11.5861L14.6483 11.2811V11.2815L13.125 11.835L12.5571 11.8586L12.5508 11.8603L12.5538 11.8588H12.5503L12.5568 11.8571L13.0573 11.5861Z" fill="#00008B"/>
<path d="M12.4536 10.9768L13.3937 9.64862L13.3941 9.64895L12.6732 11.1095L12.2792 11.5218L12.2757 11.5276L12.2769 11.5243L12.2744 11.5268L12.2779 11.5211L12.4536 10.9768Z" fill="#00008B"/>
<path d="M12.1707 10.8861L12.688 9.34045L12.6884 9.34062L12.419 10.949L12.1607 11.4586L12.1592 11.4653V11.4618L12.1577 11.4648L12.1592 11.4583L12.1707 10.8861Z" fill="#00008B"/>
<path d="M12.1354 13.1225L12.0076 14.7485H12.0071L11.8794 13.1225L12.0066 12.5646V12.558L12.0074 12.5613L12.0081 12.558V12.5646L12.1354 13.1225Z" fill="#00008B"/>
<path d="M11.3144 12.89L10.0822 13.9486L10.082 13.9483L11.1332 12.7075L11.6149 12.4038L11.6195 12.399L11.6177 12.402L11.6207 12.4001L11.6159 12.4048L11.3144 12.89Z" fill="#00008B"/>
<path d="M11.1234 12.6693L9.65756 13.3628L9.65723 13.3625L10.9966 12.4451L11.5406 12.2803L11.5464 12.277L11.5439 12.2793L11.5472 12.2783L11.5414 12.2816L11.1234 12.6693Z" fill="#00008B"/>
<path d="M10.9582 12.4191L9.36735 12.7243L9.36719 12.7238L10.8907 12.1703L11.4584 12.1468L11.4649 12.145L11.4617 12.1466L11.4652 12.1465L11.4589 12.1483L10.9582 12.4191Z" fill="#00008B"/>
<path d="M11.5614 13.0285L10.6213 14.3566L10.6211 14.3565L11.3419 12.8958L11.7359 12.4835L11.7393 12.4776L11.7383 12.481L11.7406 12.4785L11.7371 12.4843L11.5614 13.0285Z" fill="#00008B"/>
<path d="M11.8446 13.1191L11.3275 14.6648H11.3271L11.5965 13.0563L11.8546 12.5466L11.8563 12.5401V12.5435L11.8578 12.5405L11.8561 12.547L11.8446 13.1191Z" fill="#00008B"/>
<path d="M12.7009 12.8895L13.9329 13.9481L13.933 13.948L12.8819 12.7071L12.4004 12.4033L12.3957 12.3986L12.3974 12.4015L12.3945 12.3996L12.3992 12.4045L12.7009 12.8895Z" fill="#00008B"/>
<path d="M12.8916 12.6688L14.3574 13.3625L14.3576 13.362L13.0184 12.4448L12.4744 12.2798L12.4684 12.2765L12.4711 12.2788L12.4678 12.2778L12.4736 12.2811L12.8916 12.6688Z" fill="#00008B"/>
<path d="M13.0573 12.4186L14.6483 12.7238V12.7235L13.125 12.17L12.5571 12.1463L12.5508 12.1445L12.5538 12.1461L12.5503 12.146L12.5568 12.1478L13.0573 12.4186Z" fill="#00008B"/>
<path d="M12.4536 13.028L13.3937 14.3561L13.3941 14.356L12.6732 12.8953L12.2792 12.483L12.2757 12.4773L12.2769 12.4805L12.2744 12.478L12.2779 12.4838L12.4536 13.028Z" fill="#00008B"/>
<path d="M12.1707 13.1186L12.688 14.6645L12.6884 14.6643L12.419 13.0558L12.1607 12.5461L12.1592 12.5396V12.5431L12.1577 12.54L12.1592 12.5466L12.1707 13.1186Z" fill="#00008B"/>
</g>
</g>
</g>
<defs>
<clipPath id="clip0_1657_5276">
<rect width="24" height="24" fill="white"/>
</clipPath>
<clipPath id="clip1_1657_5276">
<rect width="24" height="24" fill="white"/>
</clipPath>
</defs>
</svg>
