<svg width="32" height="32" viewBox="0 0 32 32" fill="none" xmlns="http://www.w3.org/2000/svg">
<mask id="mask0_522_452" style="mask-type:alpha" maskUnits="userSpaceOnUse" x="2" y="2" width="28" height="28">
<path d="M16 2.00003C15.0032 2.00625 14.52 3.10289 12.7211 4.87933C11.4065 6.17822 9.2937 7.8069 6.66667 9.77778C3.88394 11.8653 2 14.1256 2 17.5556C2 20.9918 4.78585 23.7778 8.22223 23.7778C9.9405 23.7778 11.5199 23.1058 12.6459 21.9796C12.5863 22.2378 12.5957 22.4214 12.5 22.7091C12.2583 23.434 11.886 24.2274 11.4793 25.0425C11.158 25.6833 10.8522 26.3133 10.507 26.8889C10.3017 27.2311 10.1051 27.4427 10.0208 27.5702C9.33165 28.6031 10.0911 30 11.3333 30H20.6667C21.9091 30 22.6683 28.6031 21.9792 27.5702C21.8949 27.4427 21.6985 27.2311 21.493 26.8889C21.1478 26.3133 20.842 25.6833 20.5207 25.0425C20.114 24.2274 19.7417 23.434 19.5 22.7091C19.4043 22.4214 19.4137 22.2378 19.3541 21.9796C20.4801 23.1058 22.0595 23.7778 23.7778 23.7778C27.2142 23.7778 30 20.9918 30 17.5556C30 14.2174 28.0689 11.8296 25.3333 9.77778C22.6144 7.73845 20.543 6.1549 19.2167 4.84046C17.5081 3.14491 16.9301 1.9938 16 2.00003Z" fill="black"/>
</mask>
<g mask="url(#mask0_522_452)">
<path fill-rule="evenodd" clip-rule="evenodd" d="M0.42687 21.2497H31.6643V21.5973H31.6455V23.856C31.6455 28.171 28.1467 31.6743 23.8362 31.6747H8.21751C7.68838 31.6747 7.17157 31.6219 6.67195 31.5212L6.63012 31.5127C3.858 30.9387 1.62137 28.8917 0.774216 26.2267L0.763172 26.1916C0.532521 25.4539 0.408203 24.6694 0.408203 23.856V21.5973H0.42687V21.2497Z" fill="#00971B"/>
<path fill-rule="evenodd" clip-rule="evenodd" d="M0.426869 10.8249H31.6642L31.6643 21.2497H0.42687L0.426869 10.8249Z" fill="white"/>
<path fill-rule="evenodd" clip-rule="evenodd" d="M0.426869 10.8249V10.4773H0.445634V8.21859C0.445634 4.44627 3.11963 1.29436 6.67195 0.560968L6.71994 0.551194C7.21633 0.451994 7.72962 0.399902 8.25494 0.399902H23.8737C27.3584 0.399902 30.3131 2.69009 31.3169 5.84787L31.328 5.88295C31.5586 6.62065 31.683 7.40516 31.683 8.21859V10.4773H31.6643L31.6642 10.8249H0.426869Z" fill="#FFAB49"/>
<path fill-rule="evenodd" clip-rule="evenodd" d="M15.9767 11.838C18.2796 11.838 20.1487 13.7071 20.1487 16.01C20.1487 18.3123 18.2796 20.182 15.9767 20.182C13.6739 20.182 11.8047 18.3123 11.8047 16.01C11.8047 13.7071 13.6739 11.838 15.9767 11.838ZM15.9767 12.3536C17.9948 12.3536 19.6331 13.9919 19.6331 16.01C19.6331 18.028 17.9948 19.6663 15.9767 19.6663C13.9587 19.6663 12.3204 18.028 12.3204 16.01C12.3204 13.9919 13.9587 12.3536 15.9767 12.3536Z" fill="#0B1098"/>
<path d="M13.1193 13.9935C13.2194 13.9935 13.3005 13.9124 13.3005 13.8123C13.3005 13.7122 13.2194 13.631 13.1193 13.631C13.0191 13.631 12.938 13.7122 12.938 13.8123C12.938 13.9124 13.0191 13.9935 13.1193 13.9935Z" fill="#0B1098"/>
<path d="M13.7854 13.3273C13.8856 13.3273 13.9667 13.2462 13.9667 13.1461C13.9667 13.046 13.8856 12.9648 13.7854 12.9648C13.6853 12.9648 13.6042 13.046 13.6042 13.1461C13.6042 13.2462 13.6853 13.3273 13.7854 13.3273Z" fill="#0B1098"/>
<path d="M14.6182 12.8571C14.7183 12.8571 14.7994 12.7759 14.7994 12.6758C14.7994 12.5757 14.7183 12.4946 14.6182 12.4946C14.5181 12.4946 14.4369 12.5757 14.4369 12.6758C14.4369 12.7759 14.5181 12.8571 14.6182 12.8571Z" fill="#0B1098"/>
<path d="M15.5391 12.6122C15.6392 12.6122 15.7203 12.531 15.7203 12.4309C15.7203 12.3308 15.6392 12.2496 15.5391 12.2496C15.439 12.2496 15.3578 12.3308 15.3578 12.4309C15.3578 12.531 15.439 12.6122 15.5391 12.6122Z" fill="#0B1098"/>
<path d="M16.4894 12.6024C16.5895 12.6024 16.6706 12.5212 16.6706 12.4211C16.6706 12.321 16.5895 12.2398 16.4894 12.2398C16.3893 12.2398 16.3081 12.321 16.3081 12.4211C16.3081 12.5212 16.3893 12.6024 16.4894 12.6024Z" fill="#0B1098"/>
<path d="M17.4201 12.8571C17.5202 12.8571 17.6013 12.7759 17.6013 12.6758C17.6013 12.5757 17.5202 12.4946 17.4201 12.4946C17.32 12.4946 17.2388 12.5757 17.2388 12.6758C17.2388 12.7759 17.32 12.8571 17.4201 12.8571Z" fill="#0B1098"/>
<path d="M18.243 13.3273C18.3431 13.3273 18.4243 13.2462 18.4243 13.1461C18.4243 13.046 18.3431 12.9648 18.243 12.9648C18.1429 12.9648 18.0618 13.046 18.0618 13.1461C18.0618 13.2462 18.1429 13.3273 18.243 13.3273Z" fill="#0B1098"/>
<path d="M18.919 13.9935C19.0191 13.9935 19.1003 13.9124 19.1003 13.8123C19.1003 13.7122 19.0191 13.631 18.919 13.631C18.8189 13.631 18.7377 13.7122 18.7377 13.8123C18.7377 13.9124 18.8189 13.9935 18.919 13.9935Z" fill="#0B1098"/>
<path d="M19.3795 14.8165C19.4796 14.8165 19.5607 14.7353 19.5607 14.6352C19.5607 14.5351 19.4796 14.4539 19.3795 14.4539C19.2794 14.4539 19.1982 14.5351 19.1982 14.6352C19.1982 14.7353 19.2794 14.8165 19.3795 14.8165Z" fill="#0B1098"/>
<path d="M19.6244 15.7374C19.7245 15.7374 19.8056 15.6562 19.8056 15.5561C19.8056 15.456 19.7245 15.3749 19.6244 15.3749C19.5243 15.3749 19.4431 15.456 19.4431 15.5561C19.4431 15.6562 19.5243 15.7374 19.6244 15.7374Z" fill="#0B1098"/>
<path d="M19.6244 16.6975C19.7245 16.6975 19.8056 16.6163 19.8056 16.5162C19.8056 16.4161 19.7245 16.3349 19.6244 16.3349C19.5243 16.3349 19.4431 16.4161 19.4431 16.5162C19.4431 16.6163 19.5243 16.6975 19.6244 16.6975Z" fill="#0B1098"/>
<path d="M19.3795 17.6184C19.4796 17.6184 19.5607 17.5372 19.5607 17.4371C19.5607 17.337 19.4796 17.2558 19.3795 17.2558C19.2794 17.2558 19.1982 17.337 19.1982 17.4371C19.1982 17.5372 19.2794 17.6184 19.3795 17.6184Z" fill="#0B1098"/>
<path d="M18.9092 18.4413C19.0093 18.4413 19.0905 18.3602 19.0905 18.26C19.0905 18.1599 19.0093 18.0788 18.9092 18.0788C18.8091 18.0788 18.7279 18.1599 18.7279 18.26C18.7279 18.3602 18.8091 18.4413 18.9092 18.4413Z" fill="#0B1098"/>
<path d="M18.2332 19.1173C18.3333 19.1173 18.4145 19.0361 18.4145 18.936C18.4145 18.8359 18.3333 18.7548 18.2332 18.7548C18.1331 18.7548 18.052 18.8359 18.052 18.936C18.052 19.0361 18.1331 19.1173 18.2332 19.1173Z" fill="#0B1098"/>
<path d="M17.4103 19.5777C17.5104 19.5777 17.5916 19.4966 17.5916 19.3965C17.5916 19.2964 17.5104 19.2152 17.4103 19.2152C17.3102 19.2152 17.229 19.2964 17.229 19.3965C17.229 19.4966 17.3102 19.5777 17.4103 19.5777Z" fill="#0B1098"/>
<path d="M16.4796 19.8227C16.5797 19.8227 16.6608 19.7415 16.6608 19.6414C16.6608 19.5413 16.5797 19.4601 16.4796 19.4601C16.3795 19.4601 16.2983 19.5413 16.2983 19.6414C16.2983 19.7415 16.3795 19.8227 16.4796 19.8227Z" fill="#0B1098"/>
<path d="M15.5293 19.8423C15.6294 19.8423 15.7106 19.7611 15.7106 19.661C15.7106 19.5609 15.6294 19.4797 15.5293 19.4797C15.4292 19.4797 15.348 19.5609 15.348 19.661C15.348 19.7611 15.4292 19.8423 15.5293 19.8423Z" fill="#0B1098"/>
<path d="M14.6084 19.5973C14.7085 19.5973 14.7896 19.5162 14.7896 19.4161C14.7896 19.316 14.7085 19.2348 14.6084 19.2348C14.5083 19.2348 14.4271 19.316 14.4271 19.4161C14.4271 19.5162 14.5083 19.5973 14.6084 19.5973Z" fill="#0B1098"/>
<path d="M13.7854 19.1075C13.8856 19.1075 13.9667 19.0263 13.9667 18.9262C13.9667 18.8261 13.8856 18.745 13.7854 18.745C13.6853 18.745 13.6042 18.8261 13.6042 18.9262C13.6042 19.0263 13.6853 19.1075 13.7854 19.1075Z" fill="#0B1098"/>
<path d="M13.1193 18.4413C13.2194 18.4413 13.3005 18.3602 13.3005 18.26C13.3005 18.1599 13.2194 18.0788 13.1193 18.0788C13.0191 18.0788 12.938 18.1599 12.938 18.26C12.938 18.3602 13.0191 18.4413 13.1193 18.4413Z" fill="#0B1098"/>
<path d="M12.649 17.6086C12.7491 17.6086 12.8303 17.5274 12.8303 17.4273C12.8303 17.3272 12.7491 17.2461 12.649 17.2461C12.5489 17.2461 12.4677 17.3272 12.4677 17.4273C12.4677 17.5274 12.5489 17.6086 12.649 17.6086Z" fill="#0B1098"/>
<path d="M12.3943 16.7073C12.4944 16.7073 12.5756 16.6261 12.5756 16.526C12.5756 16.4259 12.4944 16.3447 12.3943 16.3447C12.2942 16.3447 12.213 16.4259 12.213 16.526C12.213 16.6261 12.2942 16.7073 12.3943 16.7073Z" fill="#0B1098"/>
<path d="M12.4041 15.7374C12.5042 15.7374 12.5853 15.6562 12.5853 15.5561C12.5853 15.456 12.5042 15.3749 12.4041 15.3749C12.304 15.3749 12.2228 15.456 12.2228 15.5561C12.2228 15.6562 12.304 15.7374 12.4041 15.7374Z" fill="#0B1098"/>
<path d="M12.6392 14.8165C12.7393 14.8165 12.8205 14.7353 12.8205 14.6352C12.8205 14.5351 12.7393 14.4539 12.6392 14.4539C12.5391 14.4539 12.4579 14.5351 12.4579 14.6352C12.4579 14.7353 12.5391 14.8165 12.6392 14.8165Z" fill="#0B1098"/>
<path fill-rule="evenodd" clip-rule="evenodd" d="M15.1013 12.5374L15.7589 14.4861L16.038 16.0325L15.5064 14.5538L15.1013 12.5374Z" fill="#0B1098"/>
<path fill-rule="evenodd" clip-rule="evenodd" d="M14.2202 12.8922L15.3597 14.6043L16.0295 16.0255L15.1333 14.7348L14.2202 12.8922Z" fill="#0B1098"/>
<path fill-rule="evenodd" clip-rule="evenodd" d="M13.4428 13.458L14.9864 14.8168L16.0012 16.0164L14.8015 15.0016L13.4428 13.458Z" fill="#0B1098"/>
<path fill-rule="evenodd" clip-rule="evenodd" d="M12.8392 14.2175L14.6817 15.1305L15.9725 16.0268L14.5513 15.357L12.8392 14.2175Z" fill="#0B1098"/>
<path fill-rule="evenodd" clip-rule="evenodd" d="M12.5262 15.0985L14.5426 15.5035L16.0214 16.0352L14.4749 15.7561L12.5262 15.0985Z" fill="#0B1098"/>
<path fill-rule="evenodd" clip-rule="evenodd" d="M12.4045 16.0569L14.4571 15.9264L16.0231 16.0569L14.4571 16.1874L12.4045 16.0569Z" fill="#0B1098"/>
<path fill-rule="evenodd" clip-rule="evenodd" d="M12.5081 16.9357L14.4567 16.2781L16.0032 15.999L14.5245 16.5306L12.5081 16.9357Z" fill="#0B1098"/>
<path fill-rule="evenodd" clip-rule="evenodd" d="M12.8629 17.8169L14.5749 16.6774L15.9962 16.0076L14.7054 16.9038L12.8629 17.8169Z" fill="#0B1098"/>
<path fill-rule="evenodd" clip-rule="evenodd" d="M13.4287 18.5943L14.7875 17.0507L15.9871 16.0359L14.9723 17.2356L13.4287 18.5943Z" fill="#0B1098"/>
<path fill-rule="evenodd" clip-rule="evenodd" d="M14.1882 19.1979L15.1012 17.3553L15.9974 16.0646L15.3276 17.4858L14.1882 19.1979Z" fill="#0B1098"/>
<path fill-rule="evenodd" clip-rule="evenodd" d="M15.0692 19.5109L15.4743 17.4945L16.006 16.0157L15.7268 17.5622L15.0692 19.5109Z" fill="#0B1098"/>
<path fill-rule="evenodd" clip-rule="evenodd" d="M16.0276 19.6326L15.8971 17.58L16.0276 16.014L16.1581 17.58L16.0276 19.6326Z" fill="#0B1098"/>
<path fill-rule="evenodd" clip-rule="evenodd" d="M16.9064 19.529L16.2488 17.5804L15.9696 16.0339L16.5013 17.5126L16.9064 19.529Z" fill="#0B1098"/>
<path fill-rule="evenodd" clip-rule="evenodd" d="M17.7875 19.1742L16.648 17.4621L15.9782 16.0409L16.8745 17.3316L17.7875 19.1742Z" fill="#0B1098"/>
<path fill-rule="evenodd" clip-rule="evenodd" d="M18.565 18.6084L17.0214 17.2496L16.0066 16.05L17.2062 17.0648L18.565 18.6084Z" fill="#0B1098"/>
<path fill-rule="evenodd" clip-rule="evenodd" d="M19.1686 17.8489L17.3261 16.9359L16.0353 16.0397L17.4566 16.7095L19.1686 17.8489Z" fill="#0B1098"/>
<path fill-rule="evenodd" clip-rule="evenodd" d="M19.4815 16.9679L17.4652 16.5628L15.9864 16.0312L17.5329 16.3103L19.4815 16.9679Z" fill="#0B1098"/>
<path fill-rule="evenodd" clip-rule="evenodd" d="M19.6033 16.0093L17.5507 16.1398L15.9847 16.0093L17.5507 15.8788L19.6033 16.0093Z" fill="#0B1098"/>
<path fill-rule="evenodd" clip-rule="evenodd" d="M19.4997 15.1307L17.551 15.7883L16.0046 16.0674L17.4833 15.5358L19.4997 15.1307Z" fill="#0B1098"/>
<path fill-rule="evenodd" clip-rule="evenodd" d="M19.1449 14.2496L17.4328 15.389L16.0116 16.0588L17.3023 15.1626L19.1449 14.2496Z" fill="#0B1098"/>
<path fill-rule="evenodd" clip-rule="evenodd" d="M18.579 13.4721L17.2203 15.0157L16.0206 16.0305L17.0354 14.8309L18.579 13.4721Z" fill="#0B1098"/>
<path fill-rule="evenodd" clip-rule="evenodd" d="M17.8196 12.8685L16.9066 14.711L16.0104 16.0018L16.6802 14.5805L17.8196 12.8685Z" fill="#0B1098"/>
<path fill-rule="evenodd" clip-rule="evenodd" d="M16.9386 12.5556L16.5335 14.572L16.0019 16.0507L16.281 14.5042L16.9386 12.5556Z" fill="#0B1098"/>
<path fill-rule="evenodd" clip-rule="evenodd" d="M15.9801 12.4338L16.1106 14.4864L15.9801 16.0524L15.8496 14.4864L15.9801 12.4338Z" fill="#0B1098"/>
<path d="M16.0326 16.7995C16.444 16.7995 16.7774 16.466 16.7774 16.0547C16.7774 15.6433 16.444 15.3099 16.0326 15.3099C15.6213 15.3099 15.2878 15.6433 15.2878 16.0547C15.2878 16.466 15.6213 16.7995 16.0326 16.7995Z" fill="#0B1098"/>
</g>
</svg>
