<svg width="32" height="32" viewBox="0 0 32 32" fill="none" xmlns="http://www.w3.org/2000/svg">
<g clip-path="url(#clip0_522_487)">
<path d="M29.0291 25.289V25.287H26.4896C23.0649 25.287 20.2669 28.0218 20.1881 31.4457L20.1887 31.4464C18.8537 31.8073 17.4495 31.9999 16 31.9999C14.551 31.9999 13.1468 31.8073 11.8124 31.4464L11.8118 31.4451C11.8118 28.0454 9.05537 25.2889 5.65566 25.2889H2.97027C1.10019 22.6701 0 19.4637 0 16C0 13.1488 0.745629 10.4717 2.05314 8.15355C4.79678 3.28702 10.0147 0 16 0C21.9744 0 27.1834 3.27421 29.9316 8.12605C29.9328 8.12861 29.9347 8.13186 29.9367 8.13436C31.2499 10.4569 32.0001 13.1411 32.0001 15.9999C32 19.4637 30.8999 22.6701 29.0291 25.289Z" fill="#2EC4E5"/>
<path d="M32 15.9999C32 19.463 30.8998 22.6681 29.0291 25.287H26.4896C23.0649 25.287 20.2669 28.0218 20.1881 31.4457C18.8537 31.8073 17.4496 32 16 32C14.551 32 13.1468 31.8067 11.8118 31.4451C11.8118 28.0454 9.05537 25.2889 5.65566 25.2889H2.97027C1.10019 22.6701 0 19.4637 0 15.9999C0 13.1487 0.745629 10.4717 2.05314 8.15353C2.0672 8.12922 2.08195 8.1049 2.09601 8.07997C2.0992 8.07353 2.10245 8.06715 2.10564 8.06396C3.69283 10.8384 6.08641 13.0912 8.96961 14.5024C9.29599 14.6624 9.63199 14.8128 9.97118 14.9504C11.7856 15.6896 13.7664 16.1056 15.84 16.1248H16.16C18.2335 16.1056 20.2144 15.6896 22.0288 14.9504C22.3679 14.8128 22.7039 14.6624 23.0304 14.5024C25.9104 13.0912 28.3072 10.8384 29.8944 8.06396C29.8976 8.06715 29.9007 8.07359 29.904 8.07997C29.9129 8.09534 29.9219 8.11065 29.9316 8.12603C29.9328 8.12859 29.9347 8.13184 29.9367 8.13434C31.2499 10.4569 32 13.1411 32 15.9999Z" fill="#1391AD"/>
<path d="M11.0479 28.8041C10.5922 29.6054 9.74748 30.0495 8.8886 30.0303C8.76635 29.814 8.53341 29.6675 8.26654 29.6675H7.67835C6.69791 29.0697 5.78716 28.3689 4.96091 27.581C4.95516 27.5759 4.95004 27.5708 4.94423 27.5656C3.97404 26.6376 3.42554 25.3531 3.40185 24.0111L3.3916 23.4242C4.00154 21.8773 5.20854 20.6306 6.72854 19.9695L9.4991 19.9209L11.0479 22.646C12.1334 24.5551 12.1334 26.8943 11.0479 28.8041Z" fill="#FF3500"/>
<path d="M15.0705 28.0242V28.0254C14.4708 29.5461 13.2958 30.7755 11.8122 31.4449C11.7764 31.436 11.7405 31.4264 11.7047 31.4161C11.1236 31.2548 10.5553 31.0616 10.003 30.8376C9.97291 30.8254 9.94285 30.8133 9.91272 30.8011C9.68228 30.7064 9.4551 30.6065 9.23047 30.5016V19.9262L11.5306 19.8859L11.5319 19.8853C13.0781 20.4952 14.3242 21.7022 14.9859 23.2222V23.2228L15.0705 28.0242Z" fill="#F20038"/>
<path d="M9.23079 23.8525C8.77391 24.7223 8.05823 25.438 7.18848 25.8949C8.0591 26.3509 8.77479 27.0674 9.23079 27.9363C9.68679 27.0674 10.4034 26.3509 11.2722 25.8949C10.4034 25.4389 9.68679 24.7223 9.23079 23.8525Z" fill="#FFE706"/>
<path d="M11.2719 25.8949C10.403 26.3509 9.68647 27.0675 9.23047 27.9364V23.8525C9.68647 24.7224 10.403 25.4389 11.2719 25.8949Z" fill="#FFBF03"/>
<path d="M9.22991 22.3831C8.75629 22.3831 8.30579 22.4817 7.89741 22.6602L7.3701 21.4481L6.72754 19.9697C7.49423 19.6357 8.34029 19.4507 9.22991 19.4507L9.43791 19.7144C10.0741 20.5227 9.98316 21.6836 9.22991 22.3831Z" fill="#F20038"/>
<path d="M10.4558 22.6151C10.0764 22.4654 9.66291 22.3833 9.23047 22.3833V19.4507C10.0427 19.4507 10.8187 19.6047 11.5307 19.8859L10.9402 21.3852L10.4558 22.6151Z" fill="#C8002B"/>
<path d="M6.16558 27.0576L4.96045 27.5811C4.22764 26.8822 3.56139 26.1142 2.9707 25.2886C3.01552 24.6346 3.16014 24.0086 3.39114 23.4243L4.89064 24.015L6.12008 24.4995V24.5001C5.97095 24.879 5.88839 25.2924 5.88839 25.7244C5.88839 26.1987 5.98702 26.6493 6.16558 27.0576Z" fill="#F20038"/>
<path d="M10.0029 30.8378C9.9728 30.8256 9.94273 30.8135 9.91261 30.8013C9.59642 30.6714 9.28605 30.5319 8.9808 30.3821C8.98017 29.9872 8.6608 29.6679 8.26592 29.6679H7.67773L8.00542 28.8359C8.38492 28.9857 8.79773 29.0676 9.23042 29.0676L9.58048 29.4177C9.96448 29.8029 10.1065 30.3406 10.0029 30.8378Z" fill="#F20038"/>
<path d="M11.7047 31.416C11.1236 31.2547 10.5553 31.0614 10.003 30.8374C9.97291 30.8252 9.94284 30.8131 9.91272 30.8009C9.68228 30.7062 9.45509 30.6064 9.23047 30.5014V29.0672C9.70403 29.0672 10.1546 28.9686 10.5629 28.79L11.0903 30.0029L11.7047 31.416Z" fill="#C8002B"/>
<path d="M15.5052 25.7247C15.5052 26.5369 15.3511 27.3125 15.0703 28.025L13.5706 27.4344L12.3409 26.95C12.4905 26.5707 12.5726 26.1572 12.5726 25.7247C12.5726 25.2509 12.4741 24.8003 12.2959 24.392L13.508 23.865V23.8646L14.986 23.2222C15.3202 23.9889 15.5052 24.8349 15.5052 25.7247Z" fill="#C8002B"/>
<path d="M10.5625 28.7901C10.1542 28.9687 9.70366 29.0673 9.23009 29.0673C8.79741 29.0673 8.38466 28.9853 8.00509 28.8356L7.67741 29.6676C8.09916 29.9249 8.53372 30.1642 8.98047 30.3825C9.06303 30.387 9.14622 30.3889 9.23009 30.3889C9.89116 30.3889 10.5203 30.2513 11.0899 30.003L10.5625 28.7901ZM13.5072 23.8653L12.295 24.392C12.4736 24.8003 12.5722 25.2509 12.5722 25.7251C12.5722 26.1571 12.4902 26.5712 12.3405 26.9501L13.5699 27.4346C13.7792 26.9053 13.8938 26.3287 13.8938 25.7251C13.8937 25.0634 13.7561 24.435 13.5072 23.8653ZM9.23009 21.0615C8.56897 21.0615 7.93984 21.1991 7.37028 21.4481L7.89697 22.6602C8.30528 22.4816 8.75584 22.3831 9.23009 22.3831C9.66209 22.3831 10.0762 22.465 10.455 22.6148L10.9395 21.3853C10.4102 21.1761 9.83359 21.0615 9.23009 21.0615ZM5.88797 25.7251C5.88797 25.2925 5.97053 24.8791 6.11966 24.5002V24.4996L4.89022 24.0151C4.68159 24.5443 4.56641 25.1216 4.56641 25.7251C4.56641 26.3786 4.70141 27.002 4.94466 27.5664C4.94722 27.5721 4.94978 27.5785 4.95234 27.5843L4.96003 27.5811L6.16516 27.0576C5.98659 26.6493 5.88797 26.1988 5.88797 25.7251Z" fill="white"/>
<path d="M13.5081 23.8649V23.8653L12.2961 24.3923C11.9441 23.5829 11.2799 22.9401 10.4561 22.615L10.9404 21.3853C12.0901 21.8382 13.0166 22.7353 13.5081 23.8649Z" fill="#1391AD"/>
<path d="M13.5709 27.4345C13.1175 28.5846 12.2205 29.5111 11.0905 30.0026L10.5635 28.7902C11.3733 28.4382 12.0161 27.774 12.3412 26.9502L13.5709 27.4345Z" fill="#1391AD"/>
<path d="M8.00509 28.8356L7.6774 29.6676C6.69696 29.0698 5.78621 28.369 4.95996 27.5811L6.16509 27.0576C6.51709 27.8673 7.18077 28.5105 8.00509 28.8356Z" fill="#2EC4E5"/>
<path d="M7.89763 22.6598C7.08825 23.0118 6.44544 23.6756 6.12038 24.4994L4.89062 24.0151C5.344 22.8653 6.24106 21.9389 7.37069 21.4478L7.89763 22.6598Z" fill="#2EC4E5"/>
<path d="M10.4558 22.6153C10.0764 22.4656 9.66291 22.3835 9.23047 22.3835V21.062C9.83391 21.062 10.4108 21.1766 10.9402 21.3854L10.4558 22.6153Z" fill="#E0F0F7"/>
<path d="M10.5632 28.7905L11.0902 30.003C10.5206 30.2512 9.89141 30.3888 9.23047 30.3888V29.0673C9.70434 29.0673 10.1549 28.9688 10.5632 28.7905Z" fill="#E0F0F7"/>
<path d="M13.8941 25.7254C13.8941 26.3292 13.7795 26.9057 13.5706 27.4351L12.3409 26.9508C12.4906 26.5715 12.5726 26.1579 12.5726 25.7255C12.5726 25.2516 12.4741 24.801 12.2959 24.3927L13.508 23.8657C13.7565 24.4353 13.8941 25.064 13.8941 25.7254Z" fill="#E0F0F7"/>
<path d="M24.5879 28.8046L22.1905 30.5012C21.5429 30.5012 20.9355 30.8141 20.5598 31.3415C20.4369 31.378 20.3134 31.4132 20.1892 31.4458C18.7729 30.8058 17.6363 29.6551 17.0155 28.2279L16.9316 23.4247C17.5416 21.8778 18.7486 20.6311 20.2686 19.97L23.0392 19.9214L24.5879 22.6465C25.6734 24.5556 25.6734 26.8948 24.5879 28.8046Z" fill="#FF3500"/>
<path d="M28.5727 25.8961C28.1074 26.4868 27.6012 27.0443 27.0584 27.5633V27.5627L25.6453 28.2027C24.9919 28.4984 24.4031 28.9189 23.9103 29.4398L23.0194 30.3818L23.0188 30.3824C22.9369 30.4228 22.8537 30.4618 22.7705 30.5008V19.9262L25.0706 19.8859L25.0719 19.8853C26.6181 20.4952 27.8642 21.7022 28.5259 23.2222V23.2228L28.5727 25.8961Z" fill="#F20038"/>
<path d="M22.7708 23.5317C22.314 24.4015 21.5983 25.1172 20.7285 25.5741C21.5991 26.0301 22.3148 26.7467 22.7708 27.6156C23.2268 26.7467 23.9434 26.0301 24.8123 25.5741C23.9434 25.1181 23.2268 24.4016 22.7708 23.5317Z" fill="#FFE706"/>
<path d="M24.8119 25.5741C23.9431 26.0301 23.2265 26.7467 22.7705 27.6156V23.5317C23.2265 24.4016 23.9431 25.1181 24.8119 25.5741Z" fill="#FFBF03"/>
<path d="M22.771 22.3831C22.2974 22.3831 21.8468 22.4817 21.4385 22.6602L20.9111 21.4481L20.2686 19.9697C21.0353 19.6357 21.8814 19.4507 22.7709 19.4507L22.9789 19.7144C23.6151 20.5227 23.5242 21.6836 22.771 22.3831Z" fill="#F20038"/>
<path d="M23.9958 22.6151C23.6164 22.4654 23.2029 22.3833 22.7705 22.3833V19.4507C23.5827 19.4507 24.3587 19.6047 25.0707 19.8859L24.4801 21.3852L23.9958 22.6151Z" fill="#C8002B"/>
<path d="M19.7059 27.0578L18.4934 27.5848L17.015 28.2276C16.6812 27.4609 16.4961 26.6149 16.4961 25.7251C16.4961 24.9129 16.6502 24.1372 16.9313 23.4248L18.431 24.0154L19.6608 24.4997V24.5001C19.5112 24.8795 19.4291 25.2926 19.4291 25.7251C19.4291 26.199 19.5277 26.6495 19.7059 27.0578Z" fill="#F20038"/>
<path d="M23.3634 29.7328L23.0191 30.3823C22.2331 30.7663 21.4114 31.0883 20.5596 31.341L21.0613 30.0649L21.5458 28.8354C21.9253 28.9852 22.3381 29.0671 22.7708 29.0671L23.1208 29.4173C23.2174 29.5145 23.2987 29.6201 23.3634 29.7328Z" fill="#F20038"/>
<path d="M24.2444 29.1152C24.1286 29.2182 24.0172 29.3264 23.9103 29.4397L23.0194 30.3818L23.0188 30.3824C22.9369 30.4227 22.8537 30.4618 22.7705 30.5008V29.0672C23.2441 29.0672 23.6946 28.9686 24.1029 28.79L24.2444 29.1152Z" fill="#C8002B"/>
<path d="M29.0295 25.2867C28.8823 25.4934 28.73 25.697 28.5726 25.896C28.1386 26.447 27.6696 26.9687 27.1677 27.457L27.1108 27.4345L25.8808 26.9501C26.0305 26.5706 26.1124 26.1571 26.1124 25.7245C26.1124 25.2509 26.0139 24.8004 25.8359 24.392L27.0481 23.8653V23.8647L28.5258 23.2222C28.8049 23.8621 28.9796 24.5572 29.0295 25.2867Z" fill="#C8002B"/>
<path d="M19.4289 25.7253C19.4289 25.2928 19.5109 24.8796 19.6606 24.5003V24.4999L18.4309 24.0156C18.222 24.5449 18.1074 25.1218 18.1074 25.7253C18.1074 26.3862 18.245 27.0153 18.4932 27.585L19.7057 27.058C19.5274 26.6497 19.4289 26.1991 19.4289 25.7253ZM22.7706 21.062C22.1097 21.062 21.4805 21.1996 20.9109 21.4482L21.4379 22.6603C21.8462 22.4821 22.2967 22.3835 22.7706 22.3835C23.203 22.3835 23.6165 22.4656 23.9959 22.6153L24.4802 21.3855C23.9509 21.1767 23.374 21.062 22.7706 21.062ZM27.048 23.8655L25.836 24.3925C26.0142 24.8008 26.1128 25.2514 26.1128 25.7253C26.1128 26.1577 26.0307 26.5713 25.8811 26.9506L27.1109 27.4349C27.3196 26.9055 27.4343 26.329 27.4343 25.7252C27.4342 25.0639 27.2966 24.4351 27.048 23.8655ZM24.103 28.7904C23.6947 28.969 23.2442 29.0676 22.7706 29.0676C22.338 29.0676 21.9252 28.9856 21.5457 28.8359L21.0612 30.0653C21.5905 30.2739 22.1671 30.3891 22.7706 30.3891C22.8532 30.3891 22.935 30.3872 23.017 30.3827H23.0189C23.1898 30.2995 23.3581 30.2138 23.5252 30.1241C23.6787 30.0422 23.8311 29.9578 23.9815 29.8707C24.1395 29.7798 24.2957 29.6858 24.4506 29.5891L24.103 28.7904Z" fill="white"/>
<path d="M27.0482 23.8649V23.8653L25.8361 24.3923C25.4841 23.5829 24.82 22.9401 23.9961 22.615L24.4805 21.3853C25.6301 21.8382 26.5565 22.7353 27.0482 23.8649Z" fill="#1391AD"/>
<path d="M27.1109 27.4347C27.0943 27.4776 27.0763 27.5204 27.0584 27.5627C26.2635 28.3243 25.3893 29.004 24.4504 29.5889L24.1035 28.7902C24.9131 28.4382 25.5557 27.7739 25.8808 26.9502L27.1109 27.4347Z" fill="#1391AD"/>
<path d="M21.5457 28.8353L21.0614 30.0651C19.9112 29.6117 18.9848 28.7146 18.4932 27.5846L19.7057 27.0576C20.0577 27.8674 20.7215 28.5102 21.5457 28.8353Z" fill="#2EC4E5"/>
<path d="M21.4377 22.6598C20.6283 23.0118 19.9854 23.6756 19.6604 24.4994L18.4307 24.0151C18.884 22.8653 19.7811 21.9389 20.9107 21.4478L21.4377 22.6598Z" fill="#2EC4E5"/>
<path d="M23.9958 22.6153C23.6164 22.4656 23.2029 22.3835 22.7705 22.3835V21.062C23.3739 21.062 23.9508 21.1766 24.4802 21.3854L23.9958 22.6153Z" fill="#E0F0F7"/>
<path d="M24.4505 29.5893C24.2956 29.6859 24.1394 29.78 23.9814 29.8708C23.8309 29.9579 23.6786 30.0423 23.5251 30.1243C23.3581 30.2139 23.1897 30.2997 23.0188 30.3828H23.0169C22.9349 30.3873 22.8531 30.3893 22.7705 30.3893V29.0677C23.2441 29.0677 23.6946 28.9691 24.1029 28.7905L24.4505 29.5893Z" fill="#E0F0F7"/>
<path d="M27.4342 25.7254C27.4342 26.3292 27.3196 26.9057 27.1108 27.4351L25.8811 26.9508C26.0307 26.5715 26.1127 26.1579 26.1127 25.7255C26.1127 25.2516 26.0142 24.801 25.8359 24.3927L27.048 23.8657C27.2966 24.4353 27.4342 25.064 27.4342 25.7254Z" fill="#E0F0F7"/>
<path d="M17.8174 24.1966L16.2737 26.9122L13.7016 26.9576H13.701C12.1535 26.3477 10.9068 25.1407 10.2449 23.62L10.1611 18.8168C10.7711 17.2699 11.9781 16.0232 13.4981 15.3621L16.2687 15.3135L17.8174 18.0386C18.9028 19.9476 18.9028 22.2868 17.8174 24.1966Z" fill="#FF3500"/>
<path d="M21.84 23.4162V23.4175C21.2294 24.965 20.023 26.211 18.5024 26.8728L16 26.917V15.3183L18.3001 15.278L18.3014 15.2773C19.8476 15.8873 21.0937 17.0943 21.7555 18.6143V18.6149L21.84 23.4162Z" fill="#F20038"/>
<path d="M16.0003 19.1191C15.5434 19.9889 14.8278 20.7046 13.958 21.1615C14.8286 21.6175 15.5443 22.334 16.0003 23.2029C16.4563 22.334 17.1729 21.6175 18.0418 21.1615C17.1729 20.7055 16.4563 19.9889 16.0003 19.1191Z" fill="#FFE706"/>
<path d="M18.0414 21.1615C17.1726 21.6175 16.456 22.3341 16 23.203V19.1191C16.456 19.989 17.1726 20.7055 18.0414 21.1615Z" fill="#FFBF03"/>
<path d="M16.0005 17.7753C15.5269 17.7753 15.0764 17.8738 14.668 18.0524L14.1406 16.8402L13.498 15.3618C14.2648 15.0278 15.1109 14.8428 16.0004 14.8428L16.2084 15.1065C16.8447 15.9148 16.7538 17.0758 16.0005 17.7753Z" fill="#F20038"/>
<path d="M17.2253 18.0071C16.846 17.8575 16.4324 17.7754 16 17.7754V14.8428C16.8122 14.8428 17.5882 14.9968 18.3002 15.2781L17.7097 16.7773L17.2253 18.0071Z" fill="#C8002B"/>
<path d="M12.9353 22.4499L11.7229 22.9768L10.2445 23.6197C9.91065 22.853 9.72559 22.007 9.72559 21.1171C9.72559 20.305 9.87965 19.5293 10.1608 18.8169L11.6605 19.4075L12.8903 19.8918V19.8922C12.7406 20.2716 12.6586 20.6847 12.6586 21.1171C12.6586 21.591 12.7571 22.0416 12.9353 22.4499Z" fill="#F20038"/>
<path d="M16.3924 26.9691L16.0007 27.3922C15.1892 27.3922 14.4129 27.2379 13.7012 26.9576L14.2912 25.4575L14.7757 24.228C15.1552 24.3778 15.568 24.4597 16.0007 24.4597L16.3507 24.8098C16.9415 25.4017 16.96 26.3547 16.3924 26.9691Z" fill="#F20038"/>
<path d="M18.5026 26.8731C17.7358 27.2069 16.8894 27.392 16 27.392V24.4594C16.4739 24.4594 16.9244 24.3608 17.3327 24.1826L17.8597 25.3951L18.5026 26.8731Z" fill="#C8002B"/>
<path d="M22.2748 21.1169C22.2748 21.9291 22.1207 22.7048 21.8399 23.4171L20.3402 22.8266L19.1105 22.3422C19.2601 21.9629 19.3422 21.5493 19.3422 21.1169C19.3422 20.643 19.2436 20.1924 19.0654 19.7841L20.2775 19.2571V19.2567L21.7554 18.6143C22.0897 19.3811 22.2748 20.2271 22.2748 21.1169Z" fill="#C8002B"/>
<path d="M12.6584 21.1173C12.6584 20.6849 12.7404 20.2717 12.8901 19.8924V19.8919L11.6604 19.4075C11.4515 19.937 11.3369 20.5139 11.3369 21.1172C11.3369 21.7782 11.4745 22.4074 11.7227 22.977L12.9352 22.45C12.7569 22.0417 12.6584 21.5912 12.6584 21.1173ZM16.0001 16.4541C15.3392 16.4541 14.71 16.5917 14.1404 16.8403L14.6674 18.0524C15.0757 17.8741 15.5262 17.7756 16.0001 17.7756C16.4325 17.7756 16.8461 17.8577 17.2254 18.0073L17.7098 16.7775C17.1804 16.5687 16.6035 16.4541 16.0001 16.4541ZM20.2775 19.2575L19.0654 19.7845C19.2436 20.1929 19.3422 20.6434 19.3422 21.1173C19.3422 21.5497 19.2601 21.9633 19.1104 22.3426L20.3402 22.827C20.5489 22.2976 20.6636 21.7211 20.6636 21.1173C20.6637 20.456 20.5261 19.8272 20.2775 19.2575ZM17.3329 24.1827C16.9245 24.3609 16.474 24.4594 16.0001 24.4594C15.5677 24.4594 15.1545 24.3774 14.7752 24.2277L14.2908 25.4574C14.8198 25.6662 15.3967 25.7809 16.0001 25.7809C16.661 25.7809 17.2902 25.6433 17.8599 25.3951L17.3329 24.1827Z" fill="white"/>
<path d="M20.2776 19.2569V19.2573L19.0656 19.7843C18.7136 18.975 18.0495 18.3322 17.2256 18.0071L17.7099 16.7773C18.8596 17.2303 19.786 18.1273 20.2776 19.2569Z" fill="#1391AD"/>
<path d="M20.3404 22.8266C19.8871 23.9767 18.99 24.9032 17.8599 25.3948L17.333 24.1823C18.1428 23.8303 18.7856 23.1662 19.1107 22.3423L20.3404 22.8266Z" fill="#1391AD"/>
<path d="M14.7751 24.2273L14.2908 25.4571C13.1407 25.0037 12.2142 24.1066 11.7227 22.9766L12.9351 22.4497C13.287 23.2594 13.9508 23.9023 14.7751 24.2273Z" fill="#2EC4E5"/>
<path d="M14.6672 18.0519C13.8578 18.4039 13.215 19.0677 12.8899 19.8915L11.6602 19.4072C12.1135 18.2575 13.0106 17.331 14.1402 16.8398L14.6672 18.0519Z" fill="#2EC4E5"/>
<path d="M17.2253 18.0073C16.846 17.8577 16.4324 17.7756 16 17.7756V16.4541C16.6034 16.4541 17.1802 16.5687 17.7097 16.7775L17.2253 18.0073Z" fill="#E0F0F7"/>
<path d="M17.3327 24.1826L17.8597 25.3951C17.2901 25.6432 16.6609 25.7808 16 25.7808V24.4593C16.4739 24.4594 16.9244 24.3608 17.3327 24.1826Z" fill="#E0F0F7"/>
<path d="M20.6636 21.1171C20.6636 21.7209 20.549 22.2974 20.3402 22.8268L19.1104 22.3424C19.2601 21.963 19.3422 21.5495 19.3422 21.1171C19.3422 20.6432 19.2436 20.1926 19.0654 19.7843L20.2775 19.2573C20.526 19.827 20.6636 20.4558 20.6636 21.1171Z" fill="#E0F0F7"/>
<path d="M11.2402 14.872L8.61269 16.9645L2.34082 9.08078L4.96957 6.98828C8.2527 8.30266 10.6177 11.2289 11.2139 14.7158L11.2402 14.872Z" fill="white"/>
<path d="M7.59235 4.90186L13.8635 12.7858V12.7859L11.2409 14.872L4.96973 6.98798L7.59235 4.90186Z" fill="#E0F0F7"/>
<path d="M7.64865 10.3558C8.19728 10.4232 8.65778 10.8012 8.8309 11.3261L9.12165 12.2076C9.09678 12.1996 9.07046 12.1914 9.04396 12.1847C8.45278 12.0135 7.83871 11.9266 7.22378 11.9516C6.94184 11.9629 6.65909 11.8386 6.48134 11.5885C6.22578 11.2323 6.28459 10.7292 6.61146 10.4401C6.90978 10.1751 7.33396 10.1564 7.64865 10.3558Z" fill="#FF3563"/>
<path d="M9.11236 9.49503C9.31605 9.72447 9.37355 10.0279 9.29911 10.3001C9.13661 10.8923 9.08236 11.5108 9.11555 12.1245C9.11742 12.1468 9.11817 12.1727 9.12067 12.1958C9.12017 12.2002 9.1213 12.2032 9.1208 12.2076L7.6478 10.3558C7.6478 10.3558 7.63786 10.32 7.63549 10.3087C7.53511 9.96803 7.65324 9.5844 7.96417 9.36347C8.32024 9.1094 8.82199 9.16653 9.11236 9.49503Z" fill="#F20038"/>
<path d="M3.30957 9.25098L4.22084 8.52592L4.47977 8.85136L3.5685 9.57641L3.30957 9.25098Z" fill="#FF3563"/>
<path d="M11.7363 13.0171L12.6476 12.292L12.9065 12.6175L11.9953 13.3425L11.7363 13.0171Z" fill="#F20038"/>
<path d="M15.1019 12.0259L14.87 13.5546L11.6212 14.4246L9.01562 4.69777L12.2631 3.82715L12.8769 4.51715C14.6975 6.56527 15.5132 9.31652 15.1019 12.0259Z" fill="white"/>
<path d="M18.1099 12.6865L14.8705 13.5546L12.2637 3.82711L15.5036 2.95898L18.1099 12.6865Z" fill="#E0F0F7"/>
<path d="M13.8945 9.58439L14.0363 10.4455L13.5264 10.5821C13.626 10.2661 13.6505 9.94127 13.6015 9.62645C13.476 9.85833 13.244 10.032 12.9485 10.065C12.5748 10.1062 12.2101 9.88464 12.0737 9.53539C11.8853 9.05652 12.1585 8.53645 12.6404 8.40727C12.7124 8.38802 12.785 8.37927 12.8556 8.37858C12.5758 8.21027 12.3908 7.8837 12.4545 7.4777C12.5036 7.16883 12.7425 6.92477 13.0445 6.84383L13.0485 6.84277C13.0555 6.84089 13.0635 6.83877 13.0707 6.83789L13.3917 7.69595C13.621 8.30745 13.7893 8.93964 13.8945 9.58439Z" fill="#2EC4E5"/>
<path d="M15.2625 8.57946C15.3833 9.03033 15.1154 9.49427 14.6645 9.61508C14.4312 9.67758 14.1952 9.63533 14.0039 9.51814C14.1193 9.81558 14.3036 10.0844 14.5474 10.3083L14.0362 10.4453L13.0693 6.83689L13.0701 6.83664C13.521 6.71583 13.9839 6.98314 14.1047 7.43402C14.1641 7.65546 14.1295 7.87908 14.0262 8.06502C14.0882 8.02971 14.1555 8.00146 14.227 7.98233C14.6779 7.86152 15.1416 8.12858 15.2625 8.57946Z" fill="#1391AD"/>
<path d="M9.83887 5.23486L10.9631 4.93344L11.0708 5.33499L9.94653 5.63642L9.83887 5.23486Z" fill="#2EC4E5"/>
<path d="M16.0605 12.0493L17.1848 11.7479L17.2924 12.1494L16.1682 12.4508L16.0605 12.0493Z" fill="#1391AD"/>
<path d="M17.1614 13.5556L17.1558 13.5619L17.157 13.565L13.9102 12.6969L16.5233 2.97314L19.762 3.83377L19.8102 4.13252C20.3514 7.51002 19.3833 10.955 17.1614 13.5556Z" fill="white"/>
<path d="M23.0019 4.69461L20.4062 14.434L17.1594 13.5659L17.1562 13.5621L19.7626 3.83398L23.0019 4.69461Z" fill="#E0F0F7"/>
<path d="M16.9619 3.84229L18.0862 4.14371L17.9785 4.54521L16.8543 4.24378L16.9619 3.84229Z" fill="#FF3563"/>
<path d="M18.9404 12.8555L20.0647 13.1569L19.957 13.5585L18.8328 13.257L18.9404 12.8555Z" fill="#F20038"/>
<path d="M18.6017 9.67453L17.9894 10.4481L16.915 8.22709L18.9563 6.83984L19.0995 7.81691C19.1956 8.47803 19.0155 9.14997 18.6017 9.67453Z" fill="#FF3563"/>
<path d="M20.0319 9.06159L17.9902 10.4483L18.9571 6.83984L20.0319 9.06159Z" fill="#F20038"/>
<path d="M27.0368 6.99395L26.8712 7.75457C26.2187 10.7533 24.203 13.2758 21.4224 14.5746L20.7687 14.8796L18.1387 12.7789L24.4118 4.90332L27.0368 6.99395Z" fill="white"/>
<path d="M29.647 9.07289L23.3919 16.9748L20.7688 14.8798L20.7676 14.876L27.037 6.99414L29.647 9.07289Z" fill="#E0F0F7"/>
<path d="M23.3936 11.7805L22.7531 12.3794L22.34 12.0509C22.3747 12.0388 22.4086 12.0261 22.4432 12.0126C22.7447 11.8913 23.0071 11.6927 23.2226 11.4501C22.9694 11.4974 22.6984 11.4339 22.4879 11.248C22.1617 10.9581 22.1029 10.455 22.3578 10.0997C22.5356 9.84962 22.8189 9.72449 23.1002 9.73668C23.4347 9.75012 23.77 9.73106 24.1004 9.68312C24.4294 9.63537 24.7536 9.55862 25.0715 9.45831C25.0744 9.45799 25.0766 9.45699 25.0786 9.45605L24.7534 10.0412C24.3932 10.6884 23.9347 11.2746 23.3936 11.7805Z" fill="#2EC4E5"/>
<path d="M25.0647 12.2521C24.7752 12.5804 24.2722 12.6372 23.9164 12.3836C23.6879 12.2207 23.5641 11.9711 23.553 11.7144C23.3655 11.9779 23.2325 12.2784 23.1818 12.5982C23.176 12.6346 23.1715 12.6719 23.1675 12.7086L22.7539 12.3797L25.0795 9.45605C25.0264 10.1247 25.0736 10.8007 25.2513 11.4471C25.3261 11.7188 25.2683 12.0225 25.0647 12.2521Z" fill="#1391AD"/>
<path d="M24.4697 5.89355L25.381 6.61861L25.1221 6.94404L24.2108 6.21899L24.4697 5.89355Z" fill="#2EC4E5"/>
<path d="M22.6865 14.9502L23.5978 15.6753L23.3389 16.0007L22.4276 15.2756L22.6865 14.9502Z" fill="#1391AD"/>
</g>
<defs>
<clipPath id="clip0_522_487">
<rect width="32" height="32" fill="white"/>
</clipPath>
</defs>
</svg>
