<svg width="30" height="24" viewBox="0 0 30 24" fill="none" xmlns="http://www.w3.org/2000/svg">
<g clip-path="url(#clip0_9_145)">
<g clip-path="url(#clip1_9_145)">
<g clip-path="url(#clip2_9_145)">
<path d="M20.3035 10.6597C20.243 10.6597 20.1796 10.6597 20.1191 10.6597C18.1949 10.701 16.6671 12.2948 16.7083 14.219C16.7497 16.1432 18.3435 17.671 20.2678 17.6296C20.2732 17.6296 20.2787 17.6296 20.2815 17.6296C22.2056 17.6269 23.761 16.066 23.7582 14.1419C23.7582 14.1364 23.7582 14.1309 23.7582 14.1254C23.7582 12.215 22.2139 10.6624 20.3007 10.6597H20.3035ZM21.2862 14.453C21.1155 14.7089 20.788 14.8108 20.5045 14.6952C20.4136 14.6594 20.4026 14.6869 20.4082 14.7668V14.8466C20.4082 14.9548 20.4604 15.0127 20.565 15.0201C20.6586 15.0145 20.7385 15.0889 20.7439 15.1825C20.7439 15.188 20.7439 15.1907 20.7439 15.1961C20.7495 15.2897 20.6807 15.3696 20.5871 15.3752C20.5788 15.3752 20.5732 15.3752 20.565 15.3752C20.4548 15.3779 20.342 15.3752 20.2291 15.3752C20.1163 15.3752 20.0062 15.3779 19.8934 15.3752C19.8025 15.3806 19.7226 15.3091 19.7199 15.2155C19.7199 15.21 19.7199 15.2017 19.7199 15.1961C19.7199 15.1025 19.7915 15.0255 19.8851 15.0255C19.8851 15.0255 19.8878 15.0255 19.8906 15.0255C20.0007 15.0164 20.0558 14.9567 20.0558 14.8466V14.7557C20.064 14.6787 20.042 14.6677 19.9676 14.6952C19.6181 14.8301 19.2244 14.6539 19.0896 14.3043C19.062 14.2355 19.0482 14.1612 19.0455 14.0868C19.0289 13.8088 19.1335 13.5831 19.3126 13.3849C19.5493 13.1179 19.8383 12.8977 20.1108 12.6637C20.1769 12.5976 20.2815 12.5976 20.3475 12.6581C20.6531 12.9225 20.9834 13.1592 21.2311 13.484C21.468 13.7924 21.4872 14.1695 21.2862 14.4557V14.453Z" fill="white"/>
<path d="M12.1504 8.17673C11.5392 6.99854 10.2949 6.28557 8.96811 6.35439C7.09074 6.40669 5.60151 7.95374 5.62079 9.83113C5.62079 10.178 5.67031 10.5248 5.77217 10.8552C6.33097 12.694 8.27442 13.7291 10.1133 13.1702C10.339 13.1261 10.5069 12.939 10.5207 12.7105C10.7161 11.2268 11.2667 9.81462 12.131 8.59238C12.2301 8.47402 12.2384 8.30335 12.1504 8.17673ZM10.0472 9.85591C9.78569 10.1422 9.52417 10.4312 9.25991 10.7175C9.16631 10.8166 9.08098 10.8166 8.99014 10.7175C8.73689 10.434 8.48636 10.1505 8.23861 9.86417C8.15602 9.77057 8.15878 9.70175 8.23861 9.60816C8.48911 9.32188 8.73963 9.03834 8.99014 8.7548C9.07823 8.6557 9.16356 8.6557 9.2544 8.75205C9.52142 9.04109 9.78294 9.33013 10.0472 9.61917C10.0802 9.64945 10.0995 9.68798 10.1023 9.73203C10.1023 9.77882 10.083 9.82562 10.0472 9.85866V9.85591Z" fill="white"/>
<path d="M29.2615 15.1166C29.1377 15.8901 28.9395 16.6471 28.6752 17.3849C27.888 19.4246 26.3794 21.1039 24.4416 22.1113C23.2138 22.7638 21.8456 23.1106 20.4555 23.1189C18.2505 23.1767 16.1007 22.4031 14.4379 20.9552C10.6639 17.7207 10.2263 12.039 13.4608 8.26221C14.8014 6.69864 16.6401 5.63883 18.6662 5.26721C23.5578 4.37256 28.2512 7.61256 29.1459 12.5042C29.1735 12.6584 29.1982 12.8125 29.2175 12.9667C29.2285 13.0328 29.2422 13.0961 29.2615 13.1593V15.1166ZM25.0361 14.1449C25.0361 11.5214 22.911 9.39359 20.2876 9.39084C17.6642 9.39084 15.5364 11.516 15.5335 14.1394C15.5335 16.7627 17.6587 18.8906 20.282 18.8934C22.9027 18.8989 25.0305 16.7765 25.0334 14.1559C25.0334 14.1504 25.0334 14.1476 25.0334 14.1421L25.0361 14.1449ZM26.8171 12.8703L27.654 12.752C27.8329 12.7272 27.8769 12.6474 27.8439 12.4602C27.665 11.5187 27.3016 10.6241 26.7759 9.82303C26.6823 9.68264 26.6024 9.64961 26.462 9.75971C26.3216 9.86982 26.0959 10.0295 25.9087 10.1561C25.7986 10.2304 25.7573 10.2965 25.8344 10.4314C26.2528 11.1333 26.5529 11.8986 26.7208 12.6996C26.7401 12.7905 26.773 12.8758 26.8198 12.8731L26.8171 12.8703ZM19.1837 7.41987C19.1425 7.16661 19.0984 6.89684 19.0599 6.63533C19.0433 6.49494 18.9663 6.46741 18.8424 6.49219C17.8789 6.70415 16.9567 7.06751 16.1117 7.57402C16.0044 7.63734 15.9576 7.7034 16.0429 7.82728C16.2053 8.0475 16.3649 8.27047 16.5219 8.4962C16.5989 8.61181 16.6842 8.59805 16.7751 8.52923C17.4412 8.07502 18.1954 7.76671 18.9883 7.62357C19.1011 7.6098 19.2113 7.57953 19.181 7.42261L19.1837 7.41987ZM21.9558 6.57477C21.8485 6.561 21.8236 6.63258 21.8098 6.71241C21.7603 6.98218 21.708 7.25194 21.6613 7.52171C21.6337 7.68413 21.73 7.73644 21.8649 7.77497C22.52 7.93463 23.1394 8.21817 23.6928 8.60356C23.8386 8.7054 23.9212 8.67512 24.0148 8.53749C24.1497 8.33103 24.2929 8.13283 24.447 7.94014C24.5957 7.76396 24.5406 7.67587 24.3617 7.56851C23.8221 7.25194 23.2524 6.99043 22.6604 6.78673C22.421 6.71241 22.1842 6.6601 21.9475 6.58027L21.9531 6.57201L21.9558 6.57477ZM18.8617 20.7707C18.9002 20.6331 18.7764 20.6111 18.6634 20.5836C18.2533 20.4653 17.8569 20.3138 17.4742 20.1266C17.1963 20 16.943 19.6229 16.6788 19.7385C16.4144 19.8541 16.2823 20.2257 16.0924 20.4817L16.0593 20.5258C15.974 20.6276 16.0125 20.6881 16.1117 20.7488C16.8466 21.1809 17.6367 21.5141 18.4598 21.7342C18.5864 21.77 18.6855 21.7673 18.713 21.6077C18.7598 21.324 18.8121 21.0571 18.8644 20.7653L18.8617 20.7707ZM27.965 15.6176C27.965 15.5102 27.888 15.4992 27.7998 15.4827C27.5466 15.4414 27.3099 15.4112 27.0732 15.3505C26.8887 15.3066 26.82 15.3644 26.7703 15.5377C26.6409 16.0113 26.4676 16.4737 26.2528 16.9169C26.151 17.1427 25.8702 17.3628 25.9748 17.5885C26.0794 17.8143 26.3601 17.9024 26.5556 18.0648C26.707 18.1859 26.8089 18.1776 26.919 18.007C27.175 17.6216 27.4008 17.2114 27.5878 16.7875C27.7557 16.4076 27.8824 16.0113 27.9622 15.6066V15.6176H27.965ZM21.7961 20.6827C21.8346 20.9469 21.8649 21.1617 21.898 21.3764C21.9145 21.5085 21.964 21.5746 22.121 21.5443C22.9248 21.4066 23.6983 21.1286 24.4058 20.7267C24.5406 20.6523 24.5516 20.5808 24.4636 20.4597C24.3012 20.2394 24.1387 20.0193 23.99 19.788C23.9047 19.6559 23.8277 19.6751 23.7093 19.7412C23.1642 20.0661 22.5778 20.3193 21.9696 20.4982C21.8429 20.523 21.7713 20.5891 21.7961 20.6881V20.6827ZM13.6728 15.4799C13.4194 15.5185 13.169 15.5653 12.9157 15.5928C12.734 15.6121 12.6928 15.7002 12.7396 15.8626C12.9625 16.6279 13.2763 17.3628 13.6782 18.0482C13.7525 18.1776 13.8324 18.1915 13.9507 18.1006C14.1242 17.9657 14.3004 17.8473 14.482 17.7207C14.6141 17.6326 14.6169 17.5363 14.5454 17.4096C14.2453 16.8701 14.0389 16.2865 13.9314 15.6781C13.9287 15.5625 13.8296 15.4689 13.714 15.4745C13.7002 15.4745 13.6865 15.4745 13.6728 15.4799ZM13.6397 12.5234C13.8186 12.5675 13.8461 12.4381 13.8764 12.317C14.0058 11.8215 14.1957 11.3453 14.4379 10.8939C14.5425 10.6874 14.8123 10.5085 14.749 10.2855C14.6857 10.0625 14.3774 9.98819 14.1957 9.82578C14.014 9.66336 13.9424 9.72117 13.8544 9.89735C13.4827 10.5553 13.1854 11.2545 12.9708 11.9811C12.8919 12.2473 12.9855 12.4042 13.2516 12.4519L13.6424 12.5263L13.6397 12.5234Z" fill="white"/>
<path d="M0.0795898 9.82294C0.280543 5.99109 2.03129 3.14198 5.57686 1.55914C9.51056 -0.142064 14.0994 1.19302 16.508 4.73858C16.7173 5.04689 16.7145 5.04415 16.3732 5.18728C16.1997 5.26161 16.0263 5.33869 15.8529 5.41576C15.7317 5.47082 15.6189 5.55065 15.5006 5.41576C15.4482 5.3497 15.3795 5.38824 15.3244 5.42953C15.1014 5.58919 14.7821 5.6993 14.6692 5.91952C14.3665 6.4921 13.7415 6.69029 13.3699 7.16101C13.2185 7.35371 13.1167 7.30141 12.979 7.11972C12.1092 5.83694 10.6502 5.07993 9.10312 5.1047C6.47698 5.09644 4.34359 7.21882 4.33533 9.84495C4.32983 12.1105 5.92092 14.065 8.13965 14.5164C8.78105 14.6568 9.44724 14.6485 10.0859 14.4944C10.3391 14.4338 10.4355 14.4944 10.452 14.7724C10.4823 15.1606 10.5318 15.5432 10.6006 15.9258C10.6585 16.2974 10.6144 16.6828 10.708 17.049C10.7355 17.159 10.7273 17.2774 10.8869 17.3022C10.9861 17.3022 11.0108 17.4068 11.0466 17.4866C11.165 17.7537 11.2751 18.0289 11.4017 18.2904C11.4897 18.4693 11.4733 18.5547 11.2558 18.607C10.1382 18.8795 8.97924 18.9373 7.84235 18.7749C3.93894 18.2216 0.850362 15.1964 0.214473 11.3066C0.134642 10.8167 0.0906033 10.3212 0.0823452 9.82294H0.0795898ZM8.00477 3.19153C7.95247 2.86395 7.91118 2.59418 7.86987 2.32441C7.85336 2.2088 7.79005 2.173 7.66893 2.19779C6.70546 2.40148 5.78053 2.76485 4.93544 3.27136C4.81157 3.34293 4.78128 3.42552 4.87212 3.54664C5.02903 3.76136 5.18318 3.97607 5.33183 4.19354C5.39515 4.28988 5.45846 4.32292 5.56031 4.24859C6.2485 3.77236 7.03031 3.45303 7.85339 3.30989C7.94148 3.29613 8.01028 3.24108 8.00477 3.19153ZM10.8071 2.29688C10.6695 2.25835 10.6227 2.33542 10.6034 2.45654C10.5621 2.7098 10.5208 2.97957 10.4658 3.24108C10.4355 3.37596 10.4933 3.43378 10.6117 3.4613C11.2944 3.63197 11.9384 3.92101 12.5193 4.31741C12.6184 4.38348 12.7093 4.39725 12.789 4.28713C12.9652 4.03388 13.1415 3.78338 13.3231 3.5549C13.3864 3.46681 13.3781 3.409 13.2818 3.34844C12.5165 2.87496 11.6825 2.52261 10.8071 2.29964V2.29688ZM7.66067 16.5397C7.6827 16.3663 7.61112 16.3084 7.49826 16.2864C6.84585 16.1212 6.22649 15.8404 5.67593 15.4523C5.60711 15.3835 5.49699 15.3863 5.43093 15.4523C5.41441 15.4689 5.40341 15.4854 5.39515 15.5074C5.23273 15.7387 5.06484 15.9698 4.89142 16.1955C4.79507 16.3195 4.82808 16.391 4.95196 16.4653C5.68694 16.8975 6.47701 17.2279 7.30284 17.4426C7.39643 17.4673 7.49003 17.4866 7.51481 17.3408C7.56436 17.0517 7.61938 16.7736 7.66342 16.5369L7.66067 16.5397ZM1.52755 11.4663C1.54132 11.5186 1.55505 11.5737 1.57157 11.6288C1.77527 12.3086 2.0533 12.9611 2.4029 13.5777C2.59009 13.9136 2.58734 13.9136 2.88739 13.7016C3.03327 13.597 3.17917 13.4896 3.32782 13.3905C3.40765 13.3547 3.44343 13.2584 3.4049 13.1785C3.39939 13.1675 3.39389 13.1593 3.38839 13.151C3.06631 12.584 2.84337 11.9646 2.72498 11.3232C2.70572 11.213 2.65065 11.147 2.53227 11.1608L1.66519 11.2956C1.57985 11.3095 1.49726 11.3424 1.52755 11.4636V11.4663ZM2.4855 8.21532C2.64241 8.2401 2.66444 8.0942 2.69747 7.96207C2.8296 7.46932 3.01952 6.9931 3.26726 6.54715C3.37187 6.3517 3.64439 6.17002 3.56181 5.97182C3.47923 5.77363 3.20673 5.68003 3.03056 5.52588C2.85438 5.37172 2.74975 5.42953 2.64239 5.61947C2.32032 6.17553 2.05883 6.76737 1.86888 7.38399C1.61563 8.23735 1.56055 8.02538 2.39463 8.20431C2.42492 8.20982 2.45522 8.21257 2.4855 8.21532Z" fill="white"/>
</g>
</g>
</g>
<defs>
<clipPath id="clip0_9_145">
<rect width="29.45" height="24" fill="white"/>
</clipPath>
<clipPath id="clip1_9_145">
<rect width="29.45" height="24" fill="white"/>
</clipPath>
<clipPath id="clip2_9_145">
<rect width="29.4545" height="24" fill="white" transform="translate(-0.00244141)"/>
</clipPath>
</defs>
</svg>
