<svg width="32" height="32" viewBox="0 0 32 32" fill="none" xmlns="http://www.w3.org/2000/svg">
<g clip-path="url(#clip0_522_290)">
<path d="M24.4824 5.74432L24.8685 6.06148L25.1965 5.66303L23.6654 4.40598L24.3552 3.56572L23.9567 3.23772L23.2664 4.07876L22.5198 3.46585L23.3534 2.4501L22.9544 2.12235L22.1209 3.13836L21.3745 2.52571L22.0899 1.65396L21.6904 1.32699L20.9756 2.19797L20.2292 1.58506L20.4377 1.3306C20.5281 1.22041 20.5121 1.05783 20.4019 0.967505C20.2917 0.877182 20.1294 0.893182 20.0388 1.00338L19.8303 1.25731L19.3456 0.859375L19.0166 1.2568L19.5028 1.65603L19.0124 2.25345L17.7711 1.23409L17.4434 1.6328L18.685 2.65242L18.1928 3.25243L16.4421 1.81577L16.1154 2.21551L16.7193 2.711L16.2297 3.30765L15.3133 2.55565L14.9853 2.9541L15.9025 3.70662L15.4106 4.30611L14.3053 3.39875L13.9778 3.79772L15.0831 4.70508L14.5923 5.30328L13.4723 4.38379L13.1445 4.7825L14.2648 5.70199L13.7737 6.30071L13.1425 5.78277L12.5484 5.30586L12.2253 5.70845L13.4416 6.70536L12.9554 7.29788L11.9791 6.49684L11.6508 6.89504L12.6279 7.69685L12.1352 8.29711L11.4031 7.69608L11.0761 8.09556L12.9548 9.63803L12.4655 10.2344L11.2588 9.24447L10.9311 9.64345L12.1381 10.6334L11.6454 11.2339L11.1288 10.8192L10.8057 11.2218L11.3148 11.637L11.1412 11.8489L11.5427 12.173L11.7151 11.9629L13.5244 13.4381L13.8524 13.0393L13.191 12.4971L13.6816 11.8992L15.6421 13.5075L15.9701 13.1088L15.1549 12.4401L15.6434 11.845L19.0911 14.676L19.4197 14.2781L19.4068 14.2675L19.9004 13.6657L20.8806 14.4701L21.2083 14.0711L20.2279 13.2664L20.7175 12.6695L21.8003 13.557L22.1278 13.1581L21.0455 12.2698L21.5363 11.6713L22.6896 12.6179L23.0169 12.2187L21.8638 11.2724L22.3547 10.6742L23.4711 11.5906L23.7985 11.1916L22.6821 10.2752L23.1748 9.67467L24.1018 10.4355L24.4293 10.0365L23.5023 9.2757L23.9924 8.67828L24.5415 9.12886L24.869 8.72989L23.174 7.33917L23.6646 6.74149L24.869 7.73066L25.197 7.33194L23.9921 6.34252L24.4824 5.74432ZM22.1923 3.8643L22.9389 4.47721L22.4483 5.07489L21.702 4.46198L22.1923 3.8643ZM14.5014 8.56679L14.9881 7.9735L15.734 8.58486L15.2467 9.17867L14.5014 8.56679ZM14.9192 9.57738L14.4263 10.1782L13.6813 9.56654L14.1739 8.96576L14.9192 9.57738ZM17.7015 8.52344L17.2104 9.12189L16.4638 8.50924L16.9549 7.91079L17.7015 8.52344ZM17.2824 7.51182L17.7732 6.91362L18.5195 7.52627L18.0287 8.12447L17.2824 7.51182ZM18.1004 8.85092L18.8462 9.46306L18.3549 10.0615L17.6093 9.44964L18.1004 8.85092ZM18.4277 8.45195L18.9185 7.85375L19.6643 8.46589L19.1732 9.06409L18.4277 8.45195ZM19.246 7.45478L19.7384 6.85478L20.4845 7.46717L19.9918 8.06718L19.246 7.45478ZM20.0659 6.45581L20.5557 5.85864L21.302 6.47103L20.8119 7.06794L20.0659 6.45581ZM20.4842 5.13244L19.7376 4.52005L20.2295 3.92082L20.9756 4.53347L20.4842 5.13244ZM20.1567 5.53141L19.6669 6.12832L18.9206 5.51567L19.4104 4.91876L20.1567 5.53141ZM19.3394 6.52729L18.847 7.1273L18.1007 6.51465L18.5931 5.91464L19.3394 6.52729ZM17.7017 6.18716L16.9559 5.57503L17.448 4.97528L18.1941 5.58741L17.7017 6.18716ZM17.3742 6.58613L16.8834 7.18433L16.1378 6.5722L16.6287 5.974L17.3742 6.58613ZM16.5559 7.5833L16.0648 8.18176L15.3192 7.56988L15.8103 6.97117L16.5559 7.5833ZM16.1332 8.91208L16.88 9.52422L16.3923 10.1185L15.6457 9.5059L16.1332 8.91208ZM17.2793 9.85145L18.0251 10.4628L17.5366 11.0579L16.791 10.446L17.2793 9.85145ZM18.4246 10.79L19.1709 11.4019L18.6819 11.9978L17.9358 11.3854L18.4246 10.79ZM18.7539 10.389L19.245 9.79054L19.9908 10.4027L19.4999 11.0011L18.7539 10.389ZM19.5724 9.39157L20.0635 8.79337L20.8094 9.40551L20.3185 10.0037L19.5724 9.39157ZM20.391 8.39466L20.8837 7.79466L21.6295 8.40679L21.1368 9.00705L20.391 8.39466ZM21.2112 7.39569L21.7012 6.79852L22.447 7.4104L21.957 8.00756L21.2112 7.39569ZM21.6298 6.07232L20.8832 5.45993L21.3745 4.86121L22.1209 5.47412L21.6298 6.07232ZM21.0473 2.92417L21.7936 3.53682L21.3033 4.1345L20.5572 3.52185L21.0473 2.92417ZM19.9017 1.98377L20.6483 2.59668L20.158 3.1941L19.4117 2.5812L19.9017 1.98377ZM19.0844 2.98017L19.8308 3.59307L19.3389 4.19256L18.5926 3.58017L19.0844 2.98017ZM18.2648 3.97914L19.0111 4.59153L18.5213 5.18844L17.7753 4.57605L18.2648 3.97914ZM17.1185 3.03849L17.8658 3.65166L17.3763 4.24856L16.6289 3.6354L17.1185 3.03849ZM16.3012 4.03437L17.0486 4.64779L16.5564 5.24754L15.8091 4.63412L16.3012 4.03437ZM15.4818 5.03283L16.2295 5.64651L15.7386 6.24471L14.991 5.63103L15.4818 5.03283ZM14.6635 6.03L15.4111 6.64368L14.92 7.24239L14.1721 6.62871L14.6635 6.03ZM13.8408 7.03284L14.5892 7.64627L14.1027 8.23931L13.3548 7.62537L13.8408 7.03284ZM12.5345 8.62486L13.0271 8.02434L13.7752 8.63828L13.2826 9.2388L12.5345 8.62486ZM12.7917 12.1702L12.0467 11.5593L12.5375 10.9609L13.2826 11.572L12.7917 12.1702ZM13.6098 11.173L12.8648 10.5619L13.3538 9.96577L14.0986 10.5774L13.6098 11.173ZM14.7559 12.1129L14.009 11.5002L14.4978 10.9046L15.2444 11.5175L14.7559 12.1129ZM15.5719 11.1186L14.8253 10.5056L15.3185 9.90487L16.0651 10.5175L15.5719 11.1186ZM15.9706 11.446L16.4638 10.845L17.2091 11.4566L16.7156 12.0577L15.9706 11.446ZM17.1149 12.3854L17.6083 11.7841L18.3544 12.3965L17.8607 12.9978L17.1149 12.3854ZM19.0081 13.94L18.2599 13.3258L18.7536 12.7242L19.5017 13.3382L19.0081 13.94ZM19.8292 12.9392L19.0811 12.3253L19.5704 11.7291L20.3188 12.3426L19.8292 12.9392ZM20.6468 11.9426L19.8989 11.3289L20.39 10.7304L21.1376 11.3441L20.6468 11.9426ZM21.4648 10.9449L20.7172 10.3312L21.2081 9.733L21.9554 10.3464L21.4648 10.9449ZM22.2829 9.94771L21.5356 9.33428L22.0282 8.73402L22.7753 9.34719L22.2829 9.94771ZM23.5931 8.35079L23.1031 8.94821L22.356 8.33531L22.846 7.73814L23.5931 8.35079ZM22.7745 7.01168L22.0287 6.39981L22.5198 5.80161L23.2651 6.41374L22.7745 7.01168ZM23.5926 6.01477L22.8473 5.40264L23.3379 4.80496L24.0832 5.41683L23.5926 6.01477Z" fill="#D6EAE8"/>
<path d="M4.81008 11.3166C4.75589 11.6315 4.76363 11.9644 4.84621 12.2973C5.15331 13.5618 6.39719 14.3463 7.62301 14.0496C8.84883 13.7502 9.59206 12.4831 9.28238 11.216C9.20238 10.8831 9.05528 10.5863 8.86431 10.3308V10.3282L8.5314 8.9708C10.3998 6.84691 10.2656 1.10235 9.10689 0.704929C7.94817 0.310087 7.69527 2.27655 7.72624 3.55915C7.72624 3.55915 7.63333 0.808155 6.28623 0.601702C5.24622 0.444281 4.76363 2.31268 4.76363 2.31268C4.76363 2.31268 3.47588 0.875253 2.62426 1.49461C1.59199 2.24301 2.56491 4.47012 2.69394 4.75399C2.12619 3.60302 1.00618 2.00816 0.167466 2.88301C-0.681573 3.76818 1.84232 8.93209 4.47976 9.95662L4.81008 11.3166Z" fill="#F69552"/>
<path d="M31.164 14.2868C30.5653 13.0894 29.6698 12.0623 28.573 11.3062H28.5704C27.5717 10.6146 26.4053 10.15 25.1459 9.97972C26.4233 6.8055 25.9614 3.44547 23.7136 1.60288C20.7588 -0.822951 15.8323 0.291897 12.7122 4.0958C10.24 7.10744 9.64383 10.901 10.9703 13.5514C10.1703 13.8714 9.42706 14.2972 8.7535 14.8107C6.63736 16.4288 5.22831 18.9243 5.07089 21.7553C5.06057 21.9308 5.05541 22.1063 5.05541 22.2843C5.05541 22.563 5.06831 22.8392 5.09412 23.1127H5.09154L2.99088 25.6702C2.707 26.0186 2.75603 26.5321 3.10442 26.8186L3.78314 27.376C4.13153 27.6624 4.64766 27.6108 4.93154 27.2624L5.8709 26.1192C6.31477 27.1128 6.92639 28.016 7.6722 28.7902C9.15351 30.336 11.1613 31.3734 13.4064 31.6212C13.7497 31.6599 14.0981 31.6805 14.4516 31.6805C16.7045 31.6805 18.7716 30.8883 20.3897 29.567C21.631 28.5553 22.6117 27.2289 23.2052 25.7115C23.4891 25.7424 23.7807 25.7605 24.0749 25.7605C24.9265 25.7605 25.7472 25.6263 26.5162 25.376C28.0285 24.8882 29.3446 23.954 30.3046 22.7308H30.3072C31.2492 21.5334 31.853 20.0546 31.9769 18.4417C31.9924 18.2404 32.0001 18.0391 32.0001 17.8327C32.0001 16.5578 31.6982 15.3527 31.164 14.2868ZM24.7846 7.32679C24.7511 7.8068 24.6659 8.29712 24.5317 8.78745C24.4181 9.21842 24.2659 9.65197 24.0723 10.0778C23.902 10.4726 23.6956 10.8623 23.4556 11.2442C23.2336 11.603 22.9807 11.9539 22.702 12.2946C22.4233 12.6352 22.1291 12.9501 21.8194 13.2391C21.4943 13.5436 21.1536 13.8223 20.8001 14.0701C20.5084 14.2765 20.2065 14.4623 19.902 14.6275C19.6646 14.4572 19.4194 14.2998 19.1665 14.1527C18.9033 14.0004 18.6323 13.861 18.3562 13.7346L18.3536 13.732C17.6155 13.3939 16.8258 13.1488 16 13.0146C15.7781 12.9759 15.5561 12.9475 15.329 12.9268C15.04 12.8985 14.7484 12.8855 14.4516 12.8855C14.0748 12.8855 13.7032 12.9088 13.3368 12.9501C12.911 13.0017 12.4929 13.0817 12.0851 13.1875C11.8322 12.7591 11.6438 12.292 11.5174 11.7939C11.4813 11.6597 11.4503 11.523 11.4245 11.3836C11.3238 10.8288 11.2955 10.2455 11.3445 9.64939C11.378 9.16939 11.4632 8.67906 11.5974 8.18873C11.7109 7.75518 11.8658 7.32421 12.0568 6.89582C12.2297 6.50098 12.4361 6.11388 12.6735 5.73194C12.8955 5.37323 13.1484 5.02226 13.4271 4.68161C13.7058 4.34096 14.0026 4.02612 14.3097 3.73709C14.6374 3.42999 14.9781 3.15127 15.3316 2.90611C15.711 2.63514 16.1058 2.4003 16.5058 2.20159C16.9626 1.97707 17.4271 1.79643 17.8916 1.66739C18.4697 1.50481 19.0452 1.41965 19.6078 1.40933C20.3278 1.399 21.0246 1.51513 21.6646 1.76288C22.1291 1.9461 22.5652 2.19643 22.9601 2.52159C23.3549 2.84676 23.6878 3.22611 23.9536 3.64676C24.3252 4.22483 24.5756 4.88548 24.702 5.59C24.8052 6.14485 24.8336 6.72808 24.7846 7.32679Z" fill="#F69552"/>
<path d="M9.28224 11.2157C9.59192 12.4828 8.84868 13.7499 7.62287 14.0493C6.39705 14.3461 5.15317 13.5616 4.84607 12.297C4.76349 11.9641 4.75575 11.6312 4.80994 11.3164L8.86417 10.3306C9.05514 10.5861 9.20224 10.8828 9.28224 11.2157Z" fill="#D6EAE8"/>
<path d="M8.53124 8.97065L7.75962 9.15904L7.72607 3.559C7.69511 2.2764 7.94801 0.309937 9.10673 0.704779C10.2654 1.1022 10.3996 6.84676 8.53124 8.97065Z" fill="#B8D3CF"/>
<path d="M6.50562 9.46371L4.76367 2.31268C4.76367 2.31268 5.24626 0.444281 6.28626 0.601702C7.63337 0.808155 7.72628 3.55915 7.72628 3.55915L7.75983 9.15919L6.50562 9.46371Z" fill="#C3DDDA"/>
<path d="M4.76317 2.31237L6.50512 9.4634L5.25091 9.76792H5.24833L2.70638 4.78207C2.70122 4.77175 2.69605 4.764 2.69347 4.75368C2.56444 4.46981 1.59153 2.24269 2.62379 1.4943C3.47541 0.874941 4.76317 2.31237 4.76317 2.31237Z" fill="#D6EAE8"/>
<path d="M4.47976 9.95632C1.84232 8.9318 -0.681573 3.76789 0.167466 2.88272C1.00618 2.00787 2.12619 3.60272 2.69394 4.7537C2.69652 4.76402 2.70168 4.77176 2.70684 4.78209L5.2488 9.76793L4.47976 9.95632Z" fill="#E7F2F1"/>
<path d="M5.8709 26.1193L4.93154 27.2625C4.64766 27.6109 4.13153 27.6625 3.78314 27.3761L3.10442 26.8186C2.75603 26.5322 2.707 26.0186 2.99088 25.6702L5.09154 23.1128H5.09412C5.18444 24.176 5.45283 25.1876 5.8709 26.1193Z" fill="#655F68"/>
<path d="M12.057 6.89582C11.866 7.32421 11.7112 7.75518 11.5976 8.18873C11.4634 8.67906 11.3783 9.16939 11.3447 9.64939C11.2957 10.2455 11.3241 10.8288 11.4247 11.3836C11.4505 11.523 11.4815 11.6597 11.5176 11.7939C11.6441 12.292 11.8325 12.7591 12.0854 13.1875C11.7034 13.2855 11.3318 13.4068 10.9705 13.5514C9.64406 10.901 10.2402 7.10744 12.7125 4.0958C15.8325 0.291897 20.759 -0.822951 23.7139 1.60288C25.9616 3.44547 26.4236 6.8055 25.1461 9.97972C25.0248 10.2842 24.8855 10.5862 24.7306 10.8855C24.3771 11.5746 23.9384 12.2455 23.4171 12.8804C22.6119 13.861 21.688 14.661 20.7074 15.2701C20.6377 15.2081 20.5654 15.1462 20.4932 15.0843C20.4932 15.0843 20.4906 15.0843 20.4854 15.0791C20.4854 15.0791 20.4829 15.0817 20.4829 15.0791C20.2971 14.9191 20.1035 14.7694 19.9022 14.6275C20.2067 14.4623 20.5087 14.2765 20.8003 14.0701C21.1538 13.8223 21.4945 13.5436 21.8196 13.2391C22.1293 12.9501 22.4235 12.6352 22.7022 12.2946C22.9809 11.9539 23.2338 11.603 23.4558 11.2442C23.6958 10.8623 23.9022 10.4726 24.0726 10.0778C24.2661 9.65197 24.4184 9.21842 24.5319 8.78745C24.6661 8.29712 24.7513 7.8068 24.7848 7.32679C24.8339 6.72808 24.8055 6.14485 24.7022 5.59C24.5758 4.88548 24.3255 4.22483 23.9539 3.64676C23.688 3.22611 23.3551 2.84676 22.9603 2.52159C22.5655 2.19643 22.1293 1.9461 21.6648 1.76288C21.0248 1.51513 20.328 1.399 19.608 1.40933C19.0454 1.41965 18.4699 1.50481 17.8919 1.66739C17.4274 1.79643 16.9628 1.97707 16.5061 2.20159C16.106 2.4003 15.7112 2.63514 15.3318 2.90611C14.9783 3.15127 14.6376 3.42999 14.3099 3.73709C14.0028 4.02612 13.706 4.34096 13.4273 4.68161C13.1486 5.02226 12.8957 5.37323 12.6738 5.73194C12.4363 6.11388 12.2299 6.50098 12.057 6.89582Z" fill="#655F68"/>
<path d="M27.44 22.4677C27.6361 22.5271 27.8296 22.5761 28.0154 22.6174C27.8632 23.6316 27.3625 24.5503 26.5161 25.3761C25.747 25.6264 24.9264 25.7606 24.0748 25.7606C23.7806 25.7606 23.489 25.7426 23.2051 25.7116C24.6451 24.6768 25.6412 23.3838 26.1935 21.8354C26.5677 22.1271 26.9806 22.3284 27.44 22.4677Z" fill="#F9B132"/>
<path d="M26.1628 11.6677C25.1951 11.9335 24.2841 12.3438 23.417 12.8806C23.9383 12.2458 24.377 11.5748 24.7306 10.8857C25.1744 10.9528 25.6544 11.2341 26.1628 11.6677Z" fill="#F9B132"/>
<path d="M28.5705 11.306C27.7344 11.3318 26.9318 11.4531 26.1627 11.6672C25.6543 11.2337 25.1743 10.9524 24.7305 10.8853C24.8853 10.5859 25.0247 10.284 25.146 9.97949C26.4053 10.1498 27.5718 10.6143 28.5705 11.306Z" fill="#1EA6BC"/>
<path d="M30.304 22.7307C29.344 23.954 28.0279 24.8882 26.5156 25.3759C27.3621 24.5501 27.8627 23.6314 28.015 22.6172C29.2821 22.8882 30.2447 22.7411 30.304 22.7307Z" fill="#1EA6BC"/>
<path d="M24.64 19.6004C25.0658 20.6456 25.5767 21.3579 26.1935 21.8353C25.6413 23.3837 24.6451 24.6766 23.2051 25.7114C23.6206 24.6482 23.8503 23.4921 23.8503 22.2843C23.8503 21.6985 23.7961 21.123 23.6929 20.5682C23.3083 18.4778 22.2296 16.6301 20.707 15.2701C21.6877 14.661 22.6116 13.861 23.4167 12.8804C23.4167 12.8804 23.3625 14.341 23.7883 16.5501C23.8658 16.9527 23.9613 17.3836 24.0748 17.8327C24.2451 18.5062 24.4335 19.092 24.64 19.6004Z" fill="#1EA6BC"/>
<path d="M31.9998 17.8327C31.9998 18.0391 31.992 18.2404 31.9765 18.4417C29.6256 19.4533 27.1817 19.8404 24.6397 19.6004C24.4333 19.092 24.2449 18.5062 24.0745 17.8327C23.961 17.3836 23.8655 16.9527 23.7881 16.5501C25.9662 14.7436 28.423 13.9875 31.1636 14.2868C31.6978 15.3527 31.9998 16.5578 31.9998 17.8327Z" fill="#F9B132"/>
<path d="M31.9765 18.4419C31.8526 20.0548 31.2487 21.5335 30.3068 22.731C30.3068 22.731 30.3068 22.731 30.3042 22.731C30.2449 22.7413 29.2823 22.8884 28.0152 22.6174C27.8294 22.5761 27.6358 22.5271 27.4397 22.4677C26.9803 22.3284 26.5674 22.1271 26.1932 21.8355C25.5764 21.358 25.0655 20.6458 24.6396 19.6006C27.1816 19.8406 29.6255 19.4535 31.9765 18.4419Z" fill="#E7F2F1"/>
<path d="M31.1635 14.2868C28.4228 13.9875 25.966 14.7436 23.7879 16.5501C23.3621 14.341 23.4163 12.8804 23.4163 12.8804C24.2834 12.3436 25.1944 11.9333 26.1621 11.6674C26.9312 11.4533 27.7337 11.332 28.5699 11.3062H28.5725C29.6692 12.0623 30.5647 13.0894 31.1635 14.2868Z" fill="#E7F2F1"/>
<path d="M19.9018 14.6276C20.1031 14.7695 20.2966 14.9192 20.4825 15.0792C20.3457 15.0301 18.8979 14.576 15.7521 16.2714C14.2863 14.3979 15.9998 13.0146 15.9998 13.0146C16.8257 13.1488 17.6153 13.394 18.3534 13.7321L18.356 13.7347C18.6321 13.8611 18.9031 14.0005 19.1663 14.1527C19.4192 14.2998 19.6644 14.4572 19.9018 14.6276Z" fill="#C57742"/>
<path d="M23.6927 20.5683C23.796 21.1231 23.8501 21.6986 23.8501 22.2844C23.8501 23.4922 23.6205 24.6483 23.205 25.7116C22.6114 27.229 21.6308 28.5555 20.3895 29.5671C20.3895 29.5671 16.0901 21.4251 12.792 18.1889C13.9094 17.3554 14.8952 16.7334 15.752 16.2715C17.2178 18.1425 19.6385 17.7502 21.1611 18.1734C22.6863 18.5992 23.6927 20.5683 23.6927 20.5683Z" fill="#C57742"/>
<path d="M12.0714 28.4933C12.2701 30.1785 13.3436 31.5462 13.4056 31.6211C11.1604 31.3733 9.15262 30.3359 7.67132 28.7901C7.67132 28.7901 7.43132 23.7733 11.0133 19.8042C13.2456 21.3268 11.8649 26.7565 12.0714 28.4933Z" fill="#C57742"/>
<path d="M12.7917 18.1891C12.1129 18.6949 11.5246 19.2395 11.0136 19.8046C8.78131 18.282 5.07031 21.7556 5.07031 21.7556C5.22773 18.9246 6.63678 16.4291 8.75292 14.811C8.75292 14.811 9.49615 14.9504 12.7917 18.1891Z" fill="#C57742"/>
<path d="M5.25179 10.0278C5.19114 10.0278 5.1354 10.0072 5.09153 9.97262C5.07656 9.96126 5.06314 9.94836 5.05101 9.93391L1.9955 6.27194C1.90415 6.16252 1.91886 5.99968 2.02828 5.90859C2.1377 5.81723 2.30028 5.83194 2.39189 5.94136L5.43321 9.58655C5.48043 9.63326 5.50985 9.69752 5.50985 9.76875C5.50985 9.91094 5.39424 10.0278 5.25179 10.0278Z" fill="#D6EAE8"/>
<path d="M7.76046 9.41754C7.74213 9.41754 7.72329 9.41573 7.70446 9.4116C7.56536 9.38089 7.47736 9.24308 7.50807 9.10399L8.53775 4.4433C8.56846 4.30421 8.70524 4.21595 8.84537 4.24691C8.98447 4.27762 9.07247 4.41543 9.04176 4.55453L8.01207 9.21521C7.98549 9.33547 7.87891 9.41754 7.76046 9.41754Z" fill="#ACCCC6"/>
<path d="M6.50645 9.72189C6.48632 9.72189 6.46594 9.71957 6.44555 9.71467C6.30697 9.68112 6.2218 9.54176 6.25535 9.40318C6.62516 7.87207 6.63884 6.13399 6.29613 4.23746C6.27084 4.09733 6.364 3.96314 6.50413 3.93759C6.64503 3.91101 6.77845 4.00546 6.804 4.14559C7.15936 6.11335 7.14362 7.92291 6.75704 9.52421C6.72839 9.64267 6.62284 9.72189 6.50645 9.72189Z" fill="#B8D3CF"/>
<path d="M6.50575 9.7218C6.43349 9.7218 6.36175 9.69161 6.31091 9.63302C5.23271 8.39224 4.38625 6.793 3.79476 4.87944C3.7527 4.74318 3.82908 4.59866 3.96508 4.5566C4.10134 4.51427 4.2456 4.59066 4.28793 4.72692C4.85799 6.57158 5.66987 8.10837 6.70059 9.2947C6.79401 9.40231 6.78265 9.56515 6.67504 9.65883C6.62627 9.7009 6.56588 9.7218 6.50575 9.7218Z" fill="#C3DDDA"/>
<path d="M5.25111 9.76813L6.50532 9.46361L7.75952 9.15909L8.53114 8.9707L8.86404 10.3281V10.3307L4.80982 11.3165L4.47949 9.95652L5.24853 9.76813H5.25111Z" fill="#655F68"/>
<path d="M23.8084 21.4146C23.8368 21.701 23.8497 21.9926 23.8497 22.2842C23.8497 23.492 23.62 24.6481 23.2045 25.7114C22.611 27.2288 21.6303 28.5553 20.389 29.5669C20.389 29.5669 19.86 28.5656 19.0342 27.1281C20.7245 25.9668 22.371 24.1526 23.8084 21.4146Z" fill="#AC6839"/>
<path d="M19.0339 27.1279C19.8597 28.5654 20.3888 29.5667 20.3888 29.5667C18.7707 30.888 16.7036 31.6802 14.4507 31.6802C14.0971 31.6802 13.7487 31.6596 13.4055 31.6209C13.3487 31.5538 12.4532 30.4131 12.1436 28.937C14.2442 29.0996 16.6829 28.7408 19.0339 27.1279Z" fill="#DD864A"/>
<path d="M12.1437 28.937C12.4534 30.4131 13.3489 31.5538 13.4057 31.6209C11.1605 31.3731 9.15273 30.3357 7.67143 28.7899C7.67143 28.7899 7.65336 28.4234 7.69981 27.8066C8.73208 28.2557 10.3089 28.795 12.1437 28.937Z" fill="#AC6839"/>
<path d="M7.69993 27.8066C7.65348 28.4234 7.67154 28.7899 7.67154 28.7899C7.1967 28.297 6.77605 27.7525 6.41992 27.1641C6.41992 27.1641 6.89218 27.4583 7.69993 27.8066Z" fill="#DD864A"/>
<path d="M9.28198 11.2157C9.59166 12.4828 8.84842 13.7499 7.62261 14.0493C6.70905 14.2712 5.78776 13.8919 5.25098 13.1616C5.35678 13.1848 8.451 13.7835 8.03293 10.5319L8.86391 10.3306C9.05488 10.5861 9.20198 10.8828 9.28198 11.2157Z" fill="#C3DDDA"/>
</g>
<defs>
<clipPath id="clip0_522_290">
<rect width="32" height="32" fill="white"/>
</clipPath>
</defs>
</svg>
