<svg width="32" height="32" viewBox="0 0 32 32" fill="none" xmlns="http://www.w3.org/2000/svg">
<path fill-rule="evenodd" clip-rule="evenodd" d="M5.41992 15.9667L6.98611 24.3502L9.82255 23.5902L10.0263 14.188L5.41992 15.9667Z" fill="#CC2A2E"/>
<path fill-rule="evenodd" clip-rule="evenodd" d="M5.41992 15.9667L6.85855 23.6645L8.88711 23.1206L9.07311 14.5547L5.41992 15.9667Z" fill="#F14B4E"/>
<path fill-rule="evenodd" clip-rule="evenodd" d="M3.13672 10.6999C9.20641 9.0735 13.423 5.10143 18.5661 2.30225L22.4974 16.9733C16.6438 17.1204 10.4342 15.9404 4.93678 17.4144C4.33622 15.1769 3.73734 12.9375 3.13672 10.6999Z" fill="#FECA5C"/>
<path fill-rule="evenodd" clip-rule="evenodd" d="M3.13672 10.6996C8.92647 9.14937 13.0314 5.46081 17.8627 2.69531L21.5619 16.5036C15.9759 16.6453 10.0674 15.577 4.76134 16.7587L3.13672 10.6997V10.6996Z" fill="#FFE177"/>
<path fill-rule="evenodd" clip-rule="evenodd" d="M4.52011 17.5258L7.12092 16.9642L5.2518 10.0176L2.72186 10.8113C1.3258 11.2488 0.461234 12.6555 0.840359 14.0693L1.26205 15.6443C1.64117 17.0581 3.09036 17.8341 4.52011 17.5258Z" fill="#CC2A2E"/>
<path fill-rule="evenodd" clip-rule="evenodd" d="M4.53622 10.3257L2.72204 10.8111C1.30822 11.1902 0.461411 12.6554 0.840536 14.0692L1.26222 15.6442C1.41816 16.2235 1.75654 16.7089 2.19941 17.0527C2.63879 17.1731 3.11535 17.182 3.58485 17.0562L6.15554 16.3688L4.53622 10.3257Z" fill="#F14B4E"/>
<path fill-rule="evenodd" clip-rule="evenodd" d="M18.2381 1.07612C17.0529 1.39325 16.3424 2.62275 16.6596 3.808L20.0931 16.6224C20.4102 17.8059 21.6397 18.5163 22.8249 18.1992C24.0102 17.8821 24.7206 16.6525 24.4035 15.4673L20.97 2.65294C20.6511 1.46769 19.4216 0.759062 18.2381 1.07619V1.07612Z" fill="#CC2A2E"/>
<path fill-rule="evenodd" clip-rule="evenodd" d="M18.2381 1.07605C17.0529 1.39318 16.3424 2.62268 16.6596 3.80793L20.0931 16.6223C20.2153 17.0776 20.4739 17.4639 20.8106 17.7473C21.156 17.8288 21.5263 17.8288 21.8912 17.7296C23.0765 17.4125 23.7852 16.1829 23.4681 14.9977L20.0346 2.18518C19.9123 1.72811 19.6554 1.34186 19.3171 1.05843C18.9716 0.976927 18.6013 0.97874 18.2381 1.07618V1.07605Z" fill="#F14B4E"/>
<path fill-rule="evenodd" clip-rule="evenodd" d="M21.79 5.71424C25.9003 4.90811 27.5462 11.0487 23.583 12.4057L21.79 5.71424Z" fill="#5C6A85"/>
<path fill-rule="evenodd" clip-rule="evenodd" d="M21.79 5.71429C21.9761 5.6771 22.1585 5.65579 22.3357 5.64697C25.1172 6.23872 26.0438 10.3985 23.4696 11.9877L21.79 5.71429Z" fill="#7B839A"/>
<path d="M26.1011 4.12532C25.9062 4.32019 25.5891 4.32019 25.3942 4.12532C25.1993 3.93044 25.1993 3.61332 25.3942 3.41838L27.0525 1.76188C27.2473 1.567 27.5645 1.567 27.7594 1.76188C27.9543 1.95675 27.9543 2.27388 27.7594 2.46882L26.1011 4.12532ZM27.7168 12.0818C27.4511 12.0109 27.2916 11.7381 27.3625 11.4706C27.4351 11.2049 27.708 11.0472 27.9737 11.1181L30.2379 11.7239C30.5054 11.7948 30.6631 12.0694 30.5922 12.3352C30.5213 12.6027 30.2468 12.7604 29.981 12.6895L27.7168 12.0818ZM28.6151 7.71644C28.3493 7.78732 28.0747 7.62963 28.0039 7.36213C27.933 7.09638 28.0907 6.82175 28.3582 6.75094L30.6206 6.14507C30.8881 6.07244 31.161 6.23188 31.2318 6.49763C31.3045 6.76513 31.145 7.038 30.8793 7.10888L28.6151 7.71657V7.71644Z" fill="#A69AA6"/>
<path fill-rule="evenodd" clip-rule="evenodd" d="M20.2124 16.4381C21.2506 17.4763 21.9876 17.7739 23.4403 17.7739C24.4857 17.7739 24.9002 18.5906 24.9002 19.5136C24.9002 20.5855 25.2828 21.5085 26.0429 22.2686C26.8897 23.1155 26.8897 23.8773 26.0429 24.7258C25.2828 25.4841 24.9002 26.4089 24.9002 27.4808C24.9002 28.7138 24.3403 29.2188 23.1622 29.2188C22.0903 29.2188 21.1655 29.6015 20.4072 30.3615C19.5356 31.2331 18.7826 31.1924 17.95 30.3615C17.1899 29.6015 16.2669 29.2188 15.195 29.2188C13.962 29.2188 13.4553 28.6589 13.4553 27.4808C13.4553 26.409 13.0744 25.4841 12.3143 24.7258C11.6623 24.0739 11.3789 23.204 12.1195 22.4635L12.3143 22.2686C13.2161 21.3668 13.4553 20.4686 13.4553 19.2355C13.4553 18.4311 14.1126 17.7739 14.9169 17.7739C16.3874 17.7739 17.1173 17.4639 18.1448 16.4381C18.7135 15.8676 19.6419 15.8676 20.2124 16.4381Z" fill="#2FB3E3"/>
<path fill-rule="evenodd" clip-rule="evenodd" d="M21.4189 17.3787C21.8813 17.6197 22.372 17.7313 23.001 17.7632C23.334 18.0892 23.4775 18.5941 23.4775 19.138C23.4775 20.2099 23.8602 21.1347 24.6185 21.8929C25.4671 22.7416 25.4671 23.5034 24.6185 24.352C23.8602 25.1102 23.4775 26.0333 23.4775 27.1069C23.4775 28.34 22.9177 28.8449 21.7395 28.8449C20.6659 28.8449 19.7428 29.2276 18.9846 29.9859C18.6994 30.2711 18.4247 30.4589 18.1572 30.5528C18.0882 30.4943 18.019 30.4306 17.95 30.3614C17.259 29.6705 16.4334 29.2931 15.4838 29.2294C14.8655 29.2594 14.2986 29.1921 13.9212 28.8467C13.5988 28.5614 13.4553 28.1097 13.4553 27.4807C13.4553 26.4089 13.0744 25.4841 12.3143 24.7258C11.6623 24.0739 11.3789 23.2039 12.1195 22.4634L12.3143 22.2686C13.2161 21.3668 13.4553 20.4686 13.4553 19.2355C13.4553 18.4311 14.1126 17.7739 14.9169 17.7739C16.3874 17.7739 17.1173 17.4639 18.1448 16.4381C18.3309 16.252 18.5523 16.1281 18.7897 16.0625C19.6755 16.9501 20.3417 17.2956 21.4188 17.3788L21.4189 17.3787Z" fill="#6AC8EB"/>
<path d="M16.6425 26.7492C16.4459 26.9441 16.1305 26.9441 15.9356 26.7492C15.7389 26.5543 15.7389 26.2372 15.9356 26.0423L21.7165 20.2614C21.9114 20.0665 22.2285 20.0665 22.4234 20.2614C22.6182 20.4563 22.6182 20.7734 22.4234 20.9683L16.6425 26.7492Z" fill="white"/>
<path fill-rule="evenodd" clip-rule="evenodd" d="M16.9489 20.2969C17.6415 20.2969 18.2032 20.8584 18.2032 21.5512C18.2032 22.2439 17.6415 22.8055 16.9489 22.8055C16.2562 22.8055 15.6963 22.2439 15.6963 21.5512C15.6963 20.8585 16.2562 20.2969 16.9489 20.2969ZM21.4081 24.2051C22.1008 24.2051 22.6624 24.7667 22.6624 25.4594C22.6624 26.1522 22.1008 26.7138 21.4081 26.7138C20.7154 26.7138 20.1555 26.1521 20.1555 25.4594C20.1555 24.7668 20.7172 24.2051 21.4081 24.2051Z" fill="#6AC8EB"/>
<path d="M16.9493 19.7974C17.4329 19.7974 17.8723 19.994 18.1894 20.3112C18.5065 20.6283 18.7032 21.0677 18.7032 21.5514C18.7032 22.0351 18.5066 22.4744 18.1894 22.7915C17.8722 23.1086 17.4329 23.3052 16.9493 23.3052C16.4656 23.3052 16.0262 23.1086 15.7091 22.7915C15.3919 22.4744 15.1953 22.035 15.1953 21.5514C15.1953 21.0677 15.3919 20.6283 15.7091 20.3112C16.0262 19.9941 16.4656 19.7974 16.9493 19.7974ZM17.4825 21.0181C17.3461 20.8816 17.1583 20.7984 16.9493 20.7984C16.742 20.7984 16.5524 20.8816 16.416 21.0181C16.2796 21.1545 16.1963 21.3423 16.1963 21.5514C16.1963 21.7586 16.2796 21.9482 16.416 22.0846C16.5524 22.221 16.742 22.3043 16.9493 22.3043C17.1583 22.3043 17.3461 22.2211 17.4825 22.0846C17.6189 21.9482 17.7039 21.7586 17.7039 21.5514C17.7039 21.3423 17.6189 21.1545 17.4825 21.0181ZM21.4085 23.7056C21.8939 23.7056 22.3316 23.9022 22.6486 24.2194C22.9676 24.5366 23.1624 24.9759 23.1624 25.4596C23.1624 25.9433 22.9676 26.3827 22.6486 26.6997C22.3315 27.0169 21.8939 27.2135 21.4085 27.2135C20.9231 27.2135 20.4873 27.0169 20.1701 26.6997C19.8512 26.3826 19.6564 25.9432 19.6564 25.4596C19.6564 24.976 19.8512 24.5366 20.1701 24.2194C20.4873 23.9023 20.9249 23.7056 21.4085 23.7056ZM21.9418 24.9263C21.8053 24.7899 21.6175 24.7066 21.4085 24.7066C21.2012 24.7066 21.0134 24.7899 20.877 24.9263C20.7406 25.0627 20.6556 25.2522 20.6556 25.4596C20.6556 25.6686 20.7406 25.8564 20.877 25.9928C21.0134 26.1292 21.2012 26.2125 21.4085 26.2125C21.6176 26.2125 21.8054 26.1292 21.9418 25.9928C22.0781 25.8564 22.1632 25.6686 22.1632 25.4596C22.1632 25.2522 22.0782 25.0627 21.9418 24.9263Z" fill="white"/>
</svg>
