<svg width="32" height="32" viewBox="0 0 32 32" fill="none" xmlns="http://www.w3.org/2000/svg">
<path d="M27.5352 16.5447C29.161 16.5447 30.4912 15.2145 30.4912 13.5886V8.23363C30.4912 7.21575 29.9576 6.28812 29.1363 5.75453L29.0799 5.85738C27.9849 5.34314 28.5465 5.6793 5.44824 5.58139C3.82244 5.58139 2.4922 6.83681 2.4922 8.46261V13.8926C2.4922 14.1291 2.52175 14.3623 2.57429 14.5824C2.50614 14.6228 2.45868 14.6821 2.4248 14.7417C2.56056 15.0595 2.75262 15.3471 2.98502 15.5968L3.14778 15.7586C3.67503 16.2445 4.37583 16.5447 5.1451 16.5447H27.5352Z" fill="#5E8184"/>
<path d="M1.50977 12.9097L1.50977 7.55471C1.50977 5.92211 2.83324 4.59864 4.46584 4.59863L26.8559 4.59863C28.4817 4.59863 29.812 5.92887 29.812 7.5547L29.812 12.9097C29.812 14.5356 28.4817 15.8658 26.8559 15.8658L4.46584 15.8658C2.84 15.8658 1.50977 14.5356 1.50977 12.9097Z" fill="url(#paint0_linear_522_97)"/>
<path d="M26.8558 4.59863H4.46581C2.84 4.59863 1.50977 5.92886 1.50977 7.55474V12.9097L1.83367 8.28295L1.84805 7.51455C1.91802 6.0833 3.0047 4.9997 4.51339 4.98475L5.28693 4.99207C5.35842 4.99212 26.8736 5.00814 26.809 5.00823C28.3842 5.0355 29.3661 6.20013 29.4225 7.51598L29.4321 8.28366L29.4468 7.95218L29.6076 11.3633C29.5861 12.4791 29.8506 13.3684 29.3181 14.3317C28.8564 15.2166 27.8893 15.8211 26.8558 15.8658C28.4884 15.8658 29.8118 14.5423 29.8118 12.9098V7.55474C29.8119 5.92886 28.4816 4.59863 26.8558 4.59863Z" fill="url(#paint1_linear_522_97)"/>
<path d="M6.6382 8.06641H25.6793C26.7939 8.06641 27.6974 8.96976 27.6974 10.0845V10.1474C27.6974 11.2622 26.7939 12.1655 25.6793 12.1655H6.6382C5.52372 12.1655 4.62012 11.2622 4.62012 10.1474V10.0845C4.62012 8.96976 5.52372 8.06641 6.6382 8.06641Z" fill="url(#paint2_linear_522_97)"/>
<path d="M26.6877 10.148C26.6877 10.7048 26.2354 11.1572 25.6787 11.1572H6.63795C6.0812 11.1572 5.62891 10.7048 5.62891 10.148L5.62903 10.0848C5.62903 9.52798 6.08132 9.07568 6.63807 9.07568H25.6788C26.2355 9.07568 26.6878 9.52798 26.6878 10.0848L26.6877 10.148Z" fill="url(#paint3_linear_522_97)"/>
<path d="M8.48789 9.07568H24.8917L24.8916 25.0275C24.8916 26.3392 23.8292 27.4014 22.5178 27.4014H10.8618C10.2028 27.4014 9.60352 27.1286 9.1762 26.6953C9.11572 26.6555 7.43829 24.9576 7.37793 24.897L8.48773 24.3987L8.48789 9.07568Z" fill="#2FA52F"/>
<path d="M23.6977 9.07568V23.7797C23.6977 25.1239 22.6093 26.2126 21.2652 26.2126H9.73431C8.3903 26.2126 7.30176 25.1239 7.30176 23.7797V9.07568H23.6977Z" fill="url(#paint4_linear_522_97)"/>
<path d="M23.1082 9.07568V23.19C23.1082 24.5338 22.0195 25.6225 20.6753 25.6225H9.14478C7.80061 25.6225 6.71191 24.5338 6.71191 23.19V9.07568H23.1082Z" fill="url(#paint5_linear_522_97)"/>
<path d="M20.1973 9.07617H23.1099V23.19H20.1973V9.07617Z" fill="url(#paint6_linear_522_97)"/>
<path d="M7.31836 9.07617H9.56621V23.19H7.31836V9.07617Z" fill="url(#paint7_linear_522_97)"/>
<path d="M19.7597 9.07568L19.7594 20.8967C18.7268 20.8967 17.8895 21.7338 17.8895 22.7666H10.9402C10.9402 21.7338 10.1031 20.8967 9.07031 20.8967V9.07568H19.7597Z" fill="url(#paint8_linear_522_97)"/>
<path d="M20.2555 9.07568V20.8967C19.2227 20.8967 18.3856 21.7338 18.3856 22.7666H11.4363C11.4363 21.7338 10.599 20.8967 9.56641 20.8967V9.07568H20.2555Z" fill="#2FA52F"/>
<path d="M19.6464 20.3339V9.07568H20.2547V20.3339C18.9112 20.3339 17.822 21.423 17.822 22.7666H17.2139C17.2139 21.423 18.303 20.3339 19.6464 20.3339Z" fill="#209120"/>
<path d="M16.0102 18.7785C16.0102 19.3859 15.5178 19.8783 14.9103 19.8783C14.3029 19.8783 13.8105 19.3859 13.8105 18.7785C13.8106 18.1711 14.3029 17.6787 14.9104 17.6787C15.5178 17.6787 16.0102 18.1711 16.0102 18.7785Z" fill="url(#paint9_linear_522_97)"/>
<path d="M14.0271 18.7785C14.0271 19.3488 14.4628 19.8122 15.0186 19.8674C14.9824 19.871 14.9474 19.8783 14.9103 19.8783C14.3029 19.8783 13.8105 19.3859 13.8105 18.7785C13.8106 18.1711 14.3029 17.6787 14.9104 17.6787C14.9474 17.6787 14.9825 17.686 15.0186 17.6896C14.4628 17.7448 14.0271 18.2082 14.0271 18.7785Z" fill="#DFFFD7"/>
<path d="M7.30345 9.07568L7.31778 11.916L7.28581 18.5731L7.24265 21.9017C7.22117 23.087 7.22294 23.3487 7.2458 23.4861C7.35374 24.4063 8.14411 25.1237 9.04801 25.178C11.9412 25.2621 17.539 25.4271 20.6765 25.6222H9.14251C7.79897 25.6222 6.70996 24.5332 6.70996 23.1897V9.07568H7.30345Z" fill="#ADFF9F"/>
<path d="M20.6762 13.3241C21.6149 13.3241 22.3758 12.5631 22.3758 11.6244C22.3758 10.6858 21.6149 9.9248 20.6762 9.9248C19.7375 9.9248 18.9766 10.6858 18.9766 11.6244C18.9766 12.5631 19.7375 13.3241 20.6762 13.3241Z" fill="url(#paint10_radial_522_97)"/>
<path d="M20.4557 11.7397L20.0369 12.2634L20.5607 11.8443L20.6758 12.8834L20.7909 11.8443L21.3147 12.2634L20.8956 11.7397L21.9346 11.6245L20.8956 11.509L21.3147 10.9857L20.7909 11.4044L20.6758 10.3657L20.5607 11.4048L20.0369 10.9857L20.4557 11.509L19.417 11.6245L20.4557 11.7397Z" fill="url(#paint11_radial_522_97)"/>
<path d="M12.3109 11.6251C12.3786 10.8322 12.6809 10.2502 13.0966 9.84277L13.9121 10.4242C13.6175 10.7039 13.3532 11.1114 13.2623 11.6251L14.4561 11.6251C14.6527 10.8471 14.9395 10.0014 15.967 10.0014C16.7296 10.0014 17.3793 10.6054 17.485 11.6251L18.1876 11.6251L18.1877 12.3426L17.4702 12.3426C17.4019 12.9549 17.1679 13.4686 16.7979 13.876L16.0122 13.2798C16.2616 13.0077 16.4202 12.6829 16.5033 12.3426L15.4378 12.3426C15.2419 13.1212 14.9396 13.9895 13.9121 13.9895C13.0735 13.9895 12.4315 13.4454 12.3186 12.3425L11.6309 12.3425L11.6309 11.6251L12.3109 11.6251ZM15.6267 11.6251L16.5485 11.6251C16.5033 11.2854 16.3144 11.0965 16.0573 11.0965C15.8381 11.0965 15.7176 11.308 15.6267 11.6251ZM14.275 12.3426L13.2623 12.3425C13.3384 12.7131 13.5569 12.902 13.7915 12.902C14.0404 12.902 14.1692 12.6674 14.275 12.3426Z" fill="url(#paint12_linear_522_97)"/>
<path d="M17.318 11.6247L17.4854 11.6247C17.3796 10.605 16.7299 10.001 15.9673 10.001C15.9379 10.001 15.9149 10.0083 15.8867 10.0097C16.6107 10.0544 17.2163 10.6445 17.318 11.6247Z" fill="#DFFFD7"/>
<path d="M13.0948 11.6246L13.2622 11.6246C13.353 11.1109 13.6173 10.7035 13.9119 10.4237L13.0965 9.84229C13.0737 9.86459 13.0553 9.89314 13.0332 9.91652L13.7445 10.4237C13.4499 10.7035 13.1857 11.1109 13.0948 11.6246Z" fill="#DFFFD7"/>
<path d="M16.6924 13.7957L16.7979 13.8758C17.1679 13.4683 17.4019 12.9546 17.4702 12.3423H17.3028C17.2387 12.9169 17.0239 13.4011 16.6924 13.7957Z" fill="#DFFFD7"/>
<path d="M13.8164 13.9812C13.8485 13.9829 13.8787 13.9892 13.9114 13.9892C14.9389 13.9892 15.2412 13.1209 15.4372 12.3423H15.2698C15.0788 13.1009 14.7817 13.9384 13.8164 13.9812Z" fill="#DFFFD7"/>
<path d="M13.6239 12.9018C13.6522 12.9018 13.6739 12.8886 13.6993 12.8827C13.502 12.8389 13.3279 12.663 13.2621 12.3423L13.0947 12.3423C13.1707 12.7129 13.3893 12.9018 13.6239 12.9018Z" fill="#DFFFD7"/>
<defs>
<linearGradient id="paint0_linear_522_97" x1="15.661" y1="11.7772" x2="15.661" y2="16.5857" gradientUnits="userSpaceOnUse">
<stop offset="1e-07" stop-color="#DAE7ED"/>
<stop offset="0.713274" stop-color="#A2B9BD"/>
<stop offset="1" stop-color="#8CA6AA"/>
</linearGradient>
<linearGradient id="paint1_linear_522_97" x1="18.6834" y1="-0.896601" x2="16.8528" y2="5.84393" gradientUnits="userSpaceOnUse">
<stop offset="1e-07" stop-color="#DAE7ED"/>
<stop offset="0.713274" stop-color="#A2B9BD"/>
<stop offset="1" stop-color="#8CA6AA"/>
</linearGradient>
<linearGradient id="paint2_linear_522_97" x1="27.6978" y1="10.116" x2="4.6204" y2="10.116" gradientUnits="userSpaceOnUse">
<stop offset="1e-07" stop-color="#727272"/>
<stop offset="0.853342" stop-color="#313131"/>
<stop offset="1" stop-color="#262626"/>
</linearGradient>
<linearGradient id="paint3_linear_522_97" x1="5.62918" y1="10.1163" x2="26.6882" y2="10.1163" gradientUnits="userSpaceOnUse">
<stop offset="1e-07" stop-color="#727272"/>
<stop offset="0.853342" stop-color="#313131"/>
<stop offset="1" stop-color="#262626"/>
</linearGradient>
<linearGradient id="paint4_linear_522_97" x1="3.58896" y1="3.41499" x2="23.0601" y2="25.4407" gradientUnits="userSpaceOnUse">
<stop offset="1e-07" stop-color="#3FB642"/>
<stop offset="0.886486" stop-color="#52CC52"/>
</linearGradient>
<linearGradient id="paint5_linear_522_97" x1="14.9105" y1="-1.78712" x2="14.9105" y2="25.6224" gradientUnits="userSpaceOnUse">
<stop offset="1e-07" stop-color="#52CC52"/>
<stop offset="0.886487" stop-color="#82EA73"/>
</linearGradient>
<linearGradient id="paint6_linear_522_97" x1="21.6542" y1="23.1954" x2="21.6542" y2="0.734436" gradientUnits="userSpaceOnUse">
<stop stop-color="white" stop-opacity="0"/>
<stop offset="0.641442" stop-color="white" stop-opacity="0.5"/>
<stop offset="1" stop-color="white" stop-opacity="0"/>
</linearGradient>
<linearGradient id="paint7_linear_522_97" x1="8.43715" y1="0.733832" x2="8.43715" y2="23.1948" gradientUnits="userSpaceOnUse">
<stop stop-color="white" stop-opacity="0"/>
<stop offset="0.641442" stop-color="white" stop-opacity="0.5"/>
<stop offset="1" stop-color="white" stop-opacity="0"/>
</linearGradient>
<linearGradient id="paint8_linear_522_97" x1="14.4096" y1="1.06994" x2="14.4096" y2="22.7714" gradientUnits="userSpaceOnUse">
<stop offset="7e-07" stop-color="#82EA73"/>
<stop offset="0.89009" stop-color="#ADFF9F"/>
</linearGradient>
<linearGradient id="paint9_linear_522_97" x1="15.9808" y1="18.7838" x2="12.6432" y2="18.7838" gradientUnits="userSpaceOnUse">
<stop offset="7e-07" stop-color="#82EA73"/>
<stop offset="0.89009" stop-color="#ADFF9F"/>
</linearGradient>
<radialGradient id="paint10_radial_522_97" cx="0" cy="0" r="1" gradientUnits="userSpaceOnUse" gradientTransform="translate(20.6762 11.6244) rotate(180) scale(1.69962)">
<stop offset="0.306307" stop-color="white" stop-opacity="0.5"/>
<stop offset="1" stop-color="white" stop-opacity="0"/>
</radialGradient>
<radialGradient id="paint11_radial_522_97" cx="0" cy="0" r="1" gradientUnits="userSpaceOnUse" gradientTransform="translate(20.6761 11.6243) rotate(180) scale(1.25887)">
<stop offset="0.306306" stop-color="white"/>
<stop offset="1" stop-color="white" stop-opacity="0"/>
</radialGradient>
<linearGradient id="paint12_linear_522_97" x1="14.9155" y1="9.84855" x2="14.9155" y2="13.9947" gradientUnits="userSpaceOnUse">
<stop offset="7e-07" stop-color="#82EA73"/>
<stop offset="0.89009" stop-color="#ADFF9F"/>
</linearGradient>
</defs>
</svg>
