<svg width="32" height="32" viewBox="0 0 32 32" fill="none" xmlns="http://www.w3.org/2000/svg">
<path d="M29.0263 16.9385V27.8091C29.0263 29.3151 27.8074 30.5338 26.3062 30.5338H5.69445C4.18859 30.5338 2.96973 29.3151 2.96973 27.8091V16.9385C2.96973 16.595 3.24741 16.3174 3.58622 16.3174H28.4098C28.7533 16.3174 29.0263 16.595 29.0263 16.9385Z" fill="#E5E8EF"/>
<path d="M29.0272 19.0256V16.9385C29.0272 16.595 28.7543 16.3174 28.4107 16.3174H3.5872C3.24839 16.3174 2.9707 16.595 2.9707 16.9385V19.0256H29.0272Z" fill="#CDD4DF"/>
<path d="M29.0265 16.9385V27.8091C29.0265 29.3151 27.8076 30.5338 26.3065 30.5338H23.6006C25.1017 30.5338 26.3206 29.3151 26.3206 27.8091V16.9385C26.3206 16.595 26.0476 16.3174 25.7041 16.3174H28.41C28.7535 16.3174 29.0265 16.595 29.0265 16.9385Z" fill="#CDD4DF"/>
<path d="M31.0591 12.4355V16.5577C31.0591 17.3344 30.4284 17.9649 29.6473 17.9649H2.34835C1.57192 17.9649 0.941406 17.3344 0.941406 16.5577V12.4355C0.941406 11.6588 1.57192 11.0283 2.34835 11.0283H29.6473C30.4284 11.0283 31.0591 11.6588 31.0591 12.4355Z" fill="#E5E8EF"/>
<path d="M31.0588 12.4355V16.5577C31.0588 17.3344 30.4281 17.9649 29.647 17.9649H27.374C28.1504 17.9649 28.7811 17.3344 28.7811 16.5577V12.4355C28.7811 11.6588 28.1504 11.0283 27.374 11.0283H29.647C30.4281 11.0283 31.0588 11.6588 31.0588 12.4355Z" fill="#CDD4DF"/>
<path d="M26.4286 14.4964C26.4286 14.8399 26.2921 15.1457 26.0662 15.367C25.8451 15.5929 25.5344 15.7294 25.1957 15.7294H6.80509C6.12264 15.7294 5.56738 15.1788 5.56738 14.4964C5.56738 14.1529 5.70387 13.847 5.92974 13.6212C6.15562 13.3999 6.46617 13.2588 6.80509 13.2588H25.1957C25.8779 13.2588 26.4286 13.8139 26.4286 14.4964Z" fill="#435E88"/>
<path d="M23.4257 8.8916C23.4257 10.5246 22.8987 12.0352 21.9999 13.2588C21.2187 14.3411 20.1457 15.2023 18.8987 15.7294H13.101C11.854 15.2023 10.7811 14.3411 9.99512 13.2588C9.09634 12.0352 8.56934 10.5246 8.56934 8.8916C8.56934 4.7882 11.9011 1.46582 15.9999 1.46582C20.0987 1.46582 23.4257 4.7882 23.4257 8.8916Z" fill="#FFD80C"/>
<path d="M21.1488 8.89007C21.1488 11.7351 18.8433 14.0406 15.9982 14.0406C13.1531 14.0406 10.8477 11.7351 10.8477 8.89007C10.8477 6.04966 13.1531 3.74414 15.9982 3.74414C18.8433 3.74414 21.1488 6.04966 21.1488 8.89007Z" fill="#FFBE00"/>
<path d="M19.9558 5.60469C19.0706 4.87563 17.9345 4.44014 16.6941 4.44014C13.8489 4.44014 11.5435 6.74566 11.5435 9.58607C11.5435 10.8311 11.9838 11.9766 12.7223 12.862C11.5767 11.9198 10.8477 10.4901 10.8477 8.89006C10.8477 6.04966 13.1531 3.74414 15.9982 3.74414C17.5936 3.74414 19.0138 4.46834 19.9558 5.60469Z" fill="#FFA300"/>
<path d="M17.8531 10.064C17.8531 10.833 17.3083 11.4897 16.5619 11.7139V12.0124C16.5619 12.3181 16.308 12.5722 16.0021 12.5722C15.6887 12.5722 15.4423 12.3181 15.4423 12.0124V11.7139C14.6884 11.4897 14.1436 10.833 14.1436 10.064C14.1436 9.75056 14.3972 9.50419 14.7034 9.50419C15.0168 9.50419 15.2632 9.75056 15.2632 10.064C15.2632 10.4 15.599 10.6686 16.0021 10.6686C16.4052 10.6686 16.7335 10.4 16.7335 10.064C16.7335 9.72833 16.4052 9.45208 16.0021 9.45208C14.9796 9.45208 14.1436 8.67579 14.1436 7.72056C14.1436 6.95157 14.6884 6.29483 15.4423 6.07069V5.7722C15.4423 5.46643 15.6887 5.2124 16.0021 5.2124C16.308 5.2124 16.5619 5.46643 16.5619 5.7722V6.07069C17.3083 6.29483 17.8531 6.95157 17.8531 7.72056C17.8531 8.03399 17.6069 8.28036 17.2933 8.28036C16.9874 8.28036 16.7335 8.03399 16.7335 7.72056C16.7335 7.38454 16.4052 7.11594 16.0021 7.11594C15.599 7.11594 15.2632 7.38454 15.2632 7.72056C15.2632 8.05622 15.599 8.33248 16.0021 8.33248C17.0246 8.33248 17.8531 9.10876 17.8531 10.064Z" fill="#FFD80C"/>
<path d="M26.4287 14.4964C26.4287 14.8399 26.2922 15.1457 26.0663 15.367C25.8452 15.5929 25.5345 15.7294 25.1958 15.7294H23.3135C23.6522 15.7294 23.9628 15.5929 24.184 15.367C24.4099 15.1457 24.5464 14.8399 24.5464 14.4964C24.5464 13.8139 23.9957 13.2588 23.3135 13.2588H25.1958C25.878 13.2588 26.4287 13.8139 26.4287 14.4964Z" fill="#33527D"/>
<path d="M7.2416 7.35758V7.36217C7.22747 7.71994 6.91681 8.00234 6.55444 7.9835L4.34282 7.87987C3.98045 7.86585 3.70277 7.55519 3.72161 7.19765V7.19283C3.73574 6.83506 4.04158 6.55289 4.40394 6.56691L6.62039 6.67513C6.98275 6.68938 7.26033 6.99981 7.2416 7.35758Z" fill="#FFD80C"/>
<path d="M8.2013 5.30565V5.31047C7.93786 5.55059 7.51909 5.53634 7.27437 5.26819L5.77782 3.63997C5.5331 3.37159 5.55194 2.9527 5.8155 2.71281L5.82021 2.70822C6.08365 2.4681 6.49783 2.48212 6.74726 2.7505L8.2437 4.38331C8.48841 4.64687 8.46957 5.06576 8.2013 5.30565Z" fill="#FFD80C"/>
<path d="M24.7548 7.35758V7.36217C24.7689 7.71994 25.0796 8.00234 25.442 7.9835L27.6536 7.87987C28.0159 7.86585 28.2936 7.55519 28.2748 7.19765V7.19283C28.2607 6.83506 27.9548 6.55289 27.5925 6.56691L25.376 6.67513C25.0136 6.68938 24.7361 6.99981 24.7548 7.35758Z" fill="#FFD80C"/>
<path d="M23.7953 5.30565V5.31047C24.0587 5.55059 24.4775 5.53634 24.7222 5.26819L26.2188 3.63997C26.4635 3.37159 26.4447 2.9527 26.1811 2.71281L26.1764 2.70822C25.913 2.4681 25.4988 2.48212 25.2493 2.7505L23.7529 4.38331C23.5082 4.64687 23.527 5.06576 23.7953 5.30565Z" fill="#FFD80C"/>
</svg>
