<svg width="32" height="32" viewBox="0 0 32 32" fill="none" xmlns="http://www.w3.org/2000/svg">
<path d="M24.5 1.5H7.5C6.96957 1.5 6.46086 1.71071 6.08579 2.08579C5.71071 2.46086 5.5 2.96957 5.5 3.5V28.5C5.5 27.9696 5.71071 27.4609 6.08579 27.0858C6.46086 26.7107 6.96957 26.5 7.5 26.5H24.5C25.0304 26.5 25.5391 26.2893 25.9142 25.9142C26.2893 25.5391 26.5 25.0304 26.5 24.5V3.5C26.5 2.96957 26.2893 2.46086 25.9142 2.08579C25.5391 1.71071 25.0304 1.5 24.5 1.5Z" fill="#F21628"/>
<path d="M7.5 1.5V26.5C6.96957 26.5 6.46086 26.7107 6.08579 27.0858C5.71071 27.4609 5.5 27.9696 5.5 28.5V3.5C5.5 2.96957 5.71071 2.46086 6.08579 2.08579C6.46086 1.71071 6.96957 1.5 7.5 1.5Z" fill="#B5101E"/>
<path d="M10.5 5.5C11.0523 5.5 11.5 5.05228 11.5 4.5C11.5 3.94772 11.0523 3.5 10.5 3.5C9.94772 3.5 9.5 3.94772 9.5 4.5C9.5 5.05228 9.94772 5.5 10.5 5.5Z" fill="white"/>
<path d="M22.4184 14.1707C24.8588 11.7303 24.8588 7.77361 22.4184 5.3332C19.978 2.89279 16.0213 2.8928 13.5809 5.3332C11.1405 7.77361 11.1405 11.7303 13.5809 14.1707C16.0213 16.6111 19.978 16.6111 22.4184 14.1707Z" fill="#FFAA00"/>
<path d="M24.5 26.5H7.5C6.96957 26.5 6.46086 26.7107 6.08579 27.0858C5.71071 27.4609 5.5 27.9696 5.5 28.5C5.5 29.0304 5.71071 29.5391 6.08579 29.9142C6.46086 30.2893 6.96957 30.5 7.5 30.5H25.5C25.7652 30.5 26.0196 30.3946 26.2071 30.2071C26.3946 30.0196 26.5 29.7652 26.5 29.5V24.5C26.5 25.0304 26.2893 25.5391 25.9142 25.9142C25.5391 26.2893 25.0304 26.5 24.5 26.5Z" fill="#C9DFEB"/>
<path d="M24.5 22.5H24V22C24 21.8674 23.9473 21.7402 23.8536 21.6464C23.7598 21.5527 23.6326 21.5 23.5 21.5C23.3674 21.5 23.2402 21.5527 23.1464 21.6464C23.0527 21.7402 23 21.8674 23 22V22.5H22.5C22.3674 22.5 22.2402 22.5527 22.1464 22.6464C22.0527 22.7402 22 22.8674 22 23C22 23.1326 22.0527 23.2598 22.1464 23.3536C22.2402 23.4473 22.3674 23.5 22.5 23.5H23V24C23 24.1326 23.0527 24.2598 23.1464 24.3536C23.2402 24.4473 23.3674 24.5 23.5 24.5C23.6326 24.5 23.7598 24.4473 23.8536 24.3536C23.9473 24.2598 24 24.1326 24 24V23.5H24.5C24.6326 23.5 24.7598 23.4473 24.8536 23.3536C24.9473 23.2598 25 23.1326 25 23C25 22.8674 24.9473 22.7402 24.8536 22.6464C24.7598 22.5527 24.6326 22.5 24.5 22.5Z" fill="white"/>
<path d="M22.45 5.4249L22.48 5.3949C22.2451 5.15643 21.9927 4.93582 21.725 4.7349C20.4388 5.89619 19.6477 7.50708 19.515 9.2349H18.5V3.5249C18.335 3.5249 18.17 3.5249 18 3.5249C17.83 3.5249 17.665 3.5249 17.5 3.5249V9.2499H16.5C16.3673 7.52209 15.5762 5.91119 14.29 4.7499C14.0107 4.94461 13.7466 5.16023 13.5 5.3949L13.53 5.4249C14.6569 6.39692 15.3631 7.76801 15.5 9.2499H11.775C11.775 9.4149 11.75 9.5799 11.75 9.7499C11.75 9.9199 11.75 10.0849 11.775 10.2499H15.5C15.3721 11.7267 14.6789 13.097 13.565 14.0749L13.535 14.1049C13.7699 14.3434 14.0223 14.564 14.29 14.7649C15.5762 13.6036 16.3673 11.9927 16.5 10.2649H17.5V15.9999C17.665 15.9999 17.83 16.0249 18 16.0249C18.17 16.0249 18.335 16.0249 18.5 15.9999V10.2499H19.5C19.6327 11.9777 20.4238 13.5886 21.71 14.7499C21.9893 14.5552 22.2534 14.3396 22.5 14.1049L22.47 14.0749C21.3431 13.1029 20.6369 11.7318 20.5 10.2499H24.21C24.21 10.0849 24.21 9.9199 24.21 9.7499C24.21 9.5799 24.21 9.4149 24.21 9.2499H20.5C20.6318 7.77095 21.3305 6.40031 22.45 5.4249Z" fill="#FFC02A"/>
<path d="M26.5 28H9C8.86739 28 8.74021 28.0527 8.64645 28.1464C8.55268 28.2402 8.5 28.3674 8.5 28.5C8.5 28.6326 8.55268 28.7598 8.64645 28.8536C8.74021 28.9473 8.86739 29 9 29H26.5V28Z" fill="#A2BBCB"/>
<path d="M20.1664 22.6658C22.6068 20.2254 22.6068 16.2687 20.1664 13.8283C17.726 11.3879 13.7693 11.3879 11.3289 13.8283C8.8885 16.2687 8.8885 20.2254 11.3289 22.6658C13.7693 25.1062 17.726 25.1062 20.1664 22.6658Z" fill="#C9DFEB"/>
<path d="M11.425 16.8452L9.50001 18.2802V18.2502C9.49778 16.9208 9.92188 15.6257 10.71 14.5552L11.425 16.8452Z" fill="#33383A"/>
<path d="M13.0798 21.9249L13.8448 24.1999C12.7629 23.8578 11.796 23.2247 11.0498 22.3699C10.9198 22.2199 10.7948 22.0599 10.6748 21.8999L13.0798 21.9249Z" fill="#33383A"/>
<path d="M17.7049 12.315L15.7499 13.705L13.7949 12.315C15.0644 11.895 16.4354 11.895 17.7049 12.315Z" fill="#33383A"/>
<path d="M18.4203 21.9249L20.8253 21.8999C20.7053 22.0599 20.5803 22.2199 20.4503 22.3699C19.7041 23.2247 18.7372 23.8578 17.6553 24.1999L18.4203 21.9249Z" fill="#33383A"/>
<path d="M22.0002 18.2502V18.2802L20.0752 16.8452L20.7902 14.5552C21.5783 15.6257 22.0024 16.9208 22.0002 18.2502Z" fill="#33383A"/>
<path d="M15.7498 16.2598L13.7598 17.6698L14.5198 19.9548H16.9798L17.7398 17.6698L15.7498 16.2598Z" fill="#33383A"/>
</svg>
