<svg width="24" height="24" viewBox="0 0 24 24" fill="none" xmlns="http://www.w3.org/2000/svg">
<g clip-path="url(#clip0_9_85)">
<g clip-path="url(#clip1_9_85)">
<path d="M11.7539 10.2282C11.7851 10.2298 11.8163 10.2304 11.8475 10.2326V10.2304C12.3881 10.2749 12.893 10.5179 13.2652 10.9125C13.5106 11.1623 13.6912 11.4684 13.7912 11.804C13.8558 12.0149 13.889 12.2343 13.8893 12.4549V12.6956H15.3247C15.6898 12.6936 16.0394 12.5475 16.2973 12.2892C16.5553 12.0308 16.7008 11.681 16.7021 11.3159V8.32465C16.6967 7.96084 16.5499 7.61335 16.2928 7.35587C16.0357 7.09833 15.6885 6.95096 15.3247 6.94495H12.3334C11.9696 6.95096 11.6225 7.09833 11.3654 7.35587C11.1082 7.61335 10.9614 7.96084 10.9561 8.32465V10.2259H11.6603C11.6915 10.2259 11.7227 10.227 11.7539 10.2282ZM14.2994 9.82027C14.3003 9.91304 14.2736 10.004 14.2227 10.0815C14.1718 10.1591 14.0991 10.2198 14.0135 10.2559C13.9281 10.2921 13.8339 10.3019 13.7428 10.2844C13.6517 10.2669 13.5678 10.2226 13.5019 10.1573C13.436 10.0921 13.391 10.0087 13.3725 9.91772C13.3541 9.82681 13.3631 9.73249 13.3984 9.64668C13.4337 9.56087 13.4937 9.48751 13.5707 9.43587C13.6479 9.3842 13.7385 9.35666 13.8313 9.35666C13.8925 9.35629 13.9532 9.36799 14.0098 9.39106C14.0666 9.41419 14.1181 9.44827 14.1616 9.49134C14.205 9.53439 14.2396 9.58559 14.2633 9.64206C14.2869 9.69852 14.2993 9.75908 14.2994 9.82027Z" fill="white"/>
<path d="M8.59033 16.8608H11.6617C11.8375 16.8613 12.0118 16.8273 12.1742 16.7603C12.3367 16.6932 12.4845 16.5947 12.6088 16.4704C12.7331 16.3462 12.8316 16.1985 12.8986 16.0359C12.9655 15.8734 12.9997 15.6993 12.9991 15.5234V12.4542C13.0002 12.2384 12.9482 12.0255 12.8475 11.8346L12.8464 11.8352C12.7494 11.6457 12.6081 11.4824 12.4345 11.3592C12.2607 11.236 12.06 11.1567 11.849 11.1279C11.8178 11.1257 11.7866 11.1252 11.7554 11.1236C11.7241 11.1213 11.6929 11.1168 11.6617 11.1168H10.9574L10.9578 11.1191H8.59033C8.41452 11.1184 8.24034 11.1526 8.07781 11.2196C7.91528 11.2865 7.76758 11.385 7.64329 11.5094C7.51899 11.6337 7.42052 11.7814 7.35348 11.9439C7.28649 12.1065 7.25236 12.2806 7.25294 12.4564V15.5234C7.25236 15.6993 7.28654 15.8734 7.35353 16.0359C7.42052 16.1985 7.51899 16.3462 7.64329 16.4704C7.76758 16.5947 7.91528 16.6932 8.07781 16.7603C8.24034 16.8273 8.41452 16.8614 8.59033 16.8608ZM11.0565 15.0777H10.8582C10.7455 15.0538 10.6456 14.9889 10.5779 14.8956C10.5103 14.8022 10.4797 14.6871 10.492 14.5726C10.5044 14.4579 10.5588 14.352 10.6448 14.2753C10.7308 14.1985 10.8422 14.1564 10.9574 14.1572C11.0491 14.1568 11.1389 14.1831 11.2159 14.2329V14.2352C11.2804 14.2777 11.3332 14.3357 11.3698 14.4038C11.4064 14.4719 11.4255 14.5479 11.4255 14.6252C11.4255 14.7024 11.4064 14.7784 11.3698 14.8466C11.3332 14.9146 11.2804 14.9726 11.2159 15.0153V15.013C11.1667 15.0431 11.1127 15.0649 11.0565 15.0777ZM10.0116 12.9022H10.2361C10.3378 12.9264 10.4282 12.9843 10.4928 13.0665C10.5574 13.1486 10.5923 13.2502 10.5919 13.3547C10.5917 13.4418 10.5671 13.5272 10.5208 13.6011C10.4745 13.675 10.4084 13.7344 10.3301 13.7726C10.2517 13.8108 10.1642 13.8262 10.0775 13.8171C9.99078 13.8081 9.90837 13.7748 9.83962 13.7211C9.77083 13.6676 9.71851 13.5958 9.68858 13.5138C9.6586 13.432 9.65222 13.3433 9.67013 13.258C9.68805 13.1727 9.72952 13.0942 9.78991 13.0312C9.85026 12.9683 9.92703 12.9237 10.0116 12.9022ZM9.03607 14.2352V14.2329C9.11317 14.1831 9.20296 14.1568 9.29462 14.1572C9.40988 14.1564 9.52132 14.1985 9.60729 14.2753C9.69326 14.352 9.7477 14.458 9.76003 14.5726C9.77242 14.6871 9.7418 14.8022 9.67412 14.8956C9.60649 14.9889 9.50659 15.0538 9.39388 15.0777H9.19557C9.13927 15.0649 9.08541 15.0431 9.03607 15.013V15.0153C8.97169 14.9726 8.91884 14.9146 8.88226 14.8466C8.84569 14.7784 8.82655 14.7024 8.82655 14.6252C8.82655 14.5479 8.84569 14.4719 8.88226 14.4038C8.91884 14.3357 8.97169 14.2777 9.03607 14.2352Z" fill="white"/>
<path d="M0.0668945 5.06888V9.03209H0.958381H4.25297V5.06888H0.958381H0.0668945Z" fill="white"/>
<path d="M21.6561 0H19.7036V4.17704H23.8851V2.22893C23.8849 1.63785 23.65 1.07104 23.232 0.65308C22.814 0.235121 22.2473 0.00021798 21.6561 0Z" fill="white"/>
<path d="M0.0668945 19.6279V21.5849C0.0678675 22.1757 0.303009 22.7421 0.720803 23.1599C1.1386 23.5776 1.70498 23.8128 2.29583 23.8138H4.25281V19.6279H0.0668945Z" fill="white"/>
<path d="M0.0668945 2.22893V4.17704H0.958466V4.1748H4.25281V0H2.29583C1.70498 0.000972937 1.1386 0.236115 0.720803 0.653909C0.303009 1.07171 0.0678675 1.63808 0.0668945 2.22893Z" fill="white"/>
<path d="M0.0668945 9.92352V13.8867H0.958381H4.25297V9.92352H0.958381H0.0668945Z" fill="white"/>
<path d="M14.854 0.891487V4.17715H18.8129V0.891487V0H14.854V0.891487Z" fill="white"/>
<path d="M0.0668945 14.7784V18.7369H0.958381H4.25297V14.7784H0.958381H0.0668945Z" fill="white"/>
<path d="M5.14355 22.9224V23.8139H9.10208V22.9224V19.6279H5.14355V22.9224Z" fill="white"/>
<path d="M9.99512 22.9224V23.8139H13.9625V22.9224V19.6279H9.99512V22.9224Z" fill="white"/>
<path d="M14.854 22.9224V23.8139H18.8129V22.9224V19.6279H14.854V22.9224Z" fill="white"/>
<path d="M19.7036 19.6279V23.8138H21.6561C22.2473 23.8136 22.814 23.5787 23.232 23.1607C23.65 22.7427 23.8849 22.1759 23.8851 21.5849V19.6279H19.7036Z" fill="white"/>
<path d="M19.7036 5.06888V9.03209H22.9936H23.8851V5.06888H22.9936H19.7036Z" fill="white"/>
<path d="M19.7036 14.7784V18.7369H22.9936H23.8851V14.7784H22.9936H19.7036Z" fill="white"/>
<path d="M19.7036 9.92352V13.8867H22.9936H23.8851V9.92352H22.9936H19.7036Z" fill="white"/>
<path d="M13.9625 0.891487V0H9.99512V0.891487V4.17715H13.9625V0.891487Z" fill="white"/>
<path d="M9.10208 0.891487V0H5.14355V0.891487V4.17715H9.10208V0.891487Z" fill="white"/>
<path d="M5.14355 18.7367H18.8114V5.06888H5.14355V18.7367ZM6.36058 12.4556C6.36079 11.8645 6.59569 11.2977 7.01367 10.8797C7.43161 10.4617 7.99841 10.2268 8.58951 10.2266H10.0651V8.32759C10.065 7.72537 10.3039 7.14778 10.7294 6.72155C11.1547 6.29531 11.7318 6.05521 12.3341 6.05405H15.3253C15.9275 6.05521 16.5047 6.29531 16.93 6.72155C17.3555 7.14778 17.5944 7.72537 17.5944 8.32759V11.3144C17.5947 11.6126 17.5363 11.908 17.4225 12.1838C17.3087 12.4595 17.1415 12.7101 16.9309 12.9212C16.7201 13.1324 16.4699 13.2999 16.1944 13.4142C15.919 13.5287 15.6237 13.5876 15.3253 13.5878H13.8899V15.5225C13.8897 16.1136 13.6548 16.6804 13.2367 17.0984C12.8188 17.5164 12.252 17.7513 11.6609 17.7515H8.58951C7.99841 17.7513 7.43161 17.5164 7.01367 17.0984C6.59569 16.6804 6.36079 16.1136 6.36058 15.5225V12.4556Z" fill="white"/>
</g>
</g>
<defs>
<clipPath id="clip0_9_85">
<rect width="24" height="24" fill="white"/>
</clipPath>
<clipPath id="clip1_9_85">
<rect width="24" height="24" fill="white"/>
</clipPath>
</defs>
</svg>
